{"glyphs":{"0":{"ha":857,"x_min":50,"x_max":833,"o":"m 833 661 q 801 408 833 534 q 712 185 769 281 q 569 36 654 90 q 364 -17 484 -17 q 133 73 216 -17 q 50 322 50 162 q 84 572 50 446 q 175 792 117 699 q 316 937 232 886 q 522 989 401 989 q 688 950 618 989 q 796 835 758 911 q 833 661 833 759 m 557 689 q 507 778 557 778 q 419 698 457 778 q 354 491 382 618 q 326 288 326 363 q 380 196 326 196 q 431 221 410 196 q 517 431 477 275 q 557 689 557 587 z "},"1":{"ha":671,"x_min":97,"x_max":644,"o":"m 145 0 l 300 733 l 97 703 l 144 920 l 644 989 l 434 0 l 145 0 z "},"2":{"ha":771,"x_min":-58,"x_max":774,"o":"m -58 0 l -42 78 q 8 221 -25 160 q 95 335 41 282 q 279 474 149 388 q 416 573 385 546 q 461 626 446 600 q 476 684 476 652 q 450 743 476 721 q 377 765 424 765 q 123 692 229 765 l 174 929 q 495 989 305 989 q 645 956 582 989 q 741 866 707 924 q 774 734 774 808 q 746 598 774 658 q 660 487 718 538 q 481 369 603 436 q 337 279 373 307 q 296 232 300 250 l 669 232 l 620 0 l -58 0 z "},"3":{"ha":722,"x_min":-57,"x_max":718,"o":"m 718 749 q 688 634 718 689 q 603 542 658 578 q 476 493 549 505 l 476 490 q 644 281 644 454 q 592 120 644 188 q 443 17 539 52 q 212 -17 347 -17 q -57 37 62 -17 l -10 256 q 201 195 99 195 q 316 223 273 195 q 358 300 358 251 q 323 368 358 346 q 214 390 289 390 l 123 390 l 168 603 l 281 603 q 392 628 352 603 q 432 701 432 653 q 315 778 432 778 q 126 734 225 778 l 170 949 q 305 980 245 972 q 423 989 364 989 q 642 926 566 989 q 718 749 718 864 z "},"4":{"ha":823,"x_min":-24,"x_max":795,"o":"m 795 972 l 665 364 l 776 364 l 734 167 l 623 167 l 588 0 l 334 0 l 369 167 l -24 167 l 18 367 q 274 642 140 479 q 519 972 408 805 l 795 972 m 410 364 l 469 644 q 362 498 429 582 q 238 364 294 415 l 410 364 z "},"5":{"ha":758,"x_min":-16,"x_max":793,"o":"m 744 747 l 394 747 l 363 611 l 393 612 q 613 538 534 612 q 692 336 692 465 q 635 154 692 237 q 480 26 578 70 q 255 -17 382 -17 q 101 -1 175 -17 q -16 40 26 16 l 30 254 q 134 212 71 230 q 241 195 198 195 q 363 226 318 195 q 408 309 408 258 q 243 406 408 406 q 159 401 210 406 q 81 390 109 397 l 207 972 l 793 972 l 744 747 z "},"6":{"ha":823,"x_min":54,"x_max":829,"o":"m 781 737 q 616 778 715 778 q 448 720 517 778 q 353 557 380 661 l 356 557 q 439 617 391 595 q 545 640 488 640 q 712 567 650 640 q 774 367 774 494 q 724 174 774 265 q 589 34 675 83 q 396 -16 504 -16 q 147 86 239 -16 q 54 367 54 188 q 129 691 54 547 q 332 912 203 835 q 624 989 462 989 q 829 958 743 989 l 781 737 m 505 338 q 485 411 505 384 q 431 439 466 439 q 357 398 385 439 q 328 297 328 358 q 349 225 328 249 q 400 201 370 201 q 475 242 445 201 q 505 338 505 283 z "},"7":{"ha":762,"x_min":24,"x_max":823,"o":"m 24 0 q 134 248 73 133 q 271 472 195 363 q 488 747 347 581 l 64 747 l 112 972 l 823 972 l 787 802 q 582 516 656 633 q 443 273 507 399 q 325 0 379 146 l 24 0 z "},"8":{"ha":832,"x_min":5,"x_max":851,"o":"m 5 243 q 66 421 5 351 q 252 517 126 492 q 179 595 208 542 q 151 711 151 648 q 194 854 151 791 q 319 954 238 918 q 511 989 401 989 q 762 920 673 989 q 851 732 851 852 q 791 574 851 640 q 620 481 732 509 q 726 398 690 452 q 762 271 762 344 q 714 122 762 187 q 577 21 667 57 q 361 -16 488 -16 q 174 17 255 -16 q 49 110 93 50 q 5 243 5 169 m 279 275 q 306 201 279 227 q 376 176 334 176 q 459 210 427 176 q 490 295 490 243 q 464 369 490 342 q 393 395 437 395 q 310 363 341 395 q 279 275 279 332 m 408 679 q 431 611 408 632 q 491 589 454 589 q 560 621 533 589 q 587 696 587 652 q 565 766 587 743 q 505 790 543 790 q 434 760 460 790 q 408 679 408 730 z "},"9":{"ha":832,"x_min":26,"x_max":802,"o":"m 802 600 q 776 408 802 502 q 700 232 750 315 q 574 91 649 150 q 419 8 498 32 q 233 -16 340 -16 q 117 -5 173 -16 q 26 18 61 5 l 70 236 q 149 208 97 220 q 248 196 200 196 q 502 418 448 196 l 499 418 q 414 354 456 372 q 315 336 372 336 q 148 412 214 336 q 82 610 82 488 q 132 805 82 714 q 268 943 182 895 q 462 990 353 990 q 710 885 619 990 q 802 600 802 780 m 534 672 q 512 744 534 713 q 456 774 490 774 q 386 733 414 774 q 357 636 357 692 q 378 564 357 592 q 433 536 399 536 q 505 574 475 536 q 534 672 534 611 z "},"\r":{"ha":0,"x_min":0,"x_max":0,"o":""}," ":{"ha":382,"x_min":0,"x_max":0,"o":""},"!":{"ha":484,"x_min":33,"x_max":521,"o":"m 347 328 l 115 328 l 216 972 l 521 972 l 347 328 m 357 127 q 310 22 357 62 q 186 -17 262 -17 q 76 18 119 -17 q 33 109 33 53 q 81 214 33 174 q 205 254 128 254 q 315 218 273 254 q 357 127 357 182 z "},"\"":{"ha":806,"x_min":227,"x_max":796,"o":"m 762 694 l 587 694 l 553 996 l 796 996 l 762 694 m 435 694 l 257 694 l 227 996 l 468 996 l 435 694 z "},"#":{"ha":777,"x_min":33,"x_max":799,"o":"m 764 586 l 681 586 l 646 436 l 742 436 l 703 277 l 611 277 l 566 72 l 397 72 l 440 277 l 292 277 l 248 72 l 77 72 l 119 277 l 33 277 l 66 436 l 154 436 l 189 586 l 92 586 l 123 746 l 222 746 l 268 961 l 441 961 l 396 746 l 542 746 l 587 961 l 761 961 l 715 746 l 799 746 l 764 586 m 359 586 l 325 436 l 473 436 l 509 586 l 359 586 z "},"$":{"ha":832,"x_min":9,"x_max":793,"o":"m 746 697 q 614 754 668 739 q 509 768 560 768 q 437 749 464 768 q 410 699 410 730 q 433 645 410 667 q 522 589 457 623 q 682 463 639 526 q 725 304 725 400 q 685 156 725 223 q 575 51 646 90 q 408 1 505 13 l 380 -132 l 220 -132 l 248 0 q 9 68 114 12 l 60 304 q 317 210 189 210 q 395 229 368 210 q 421 283 421 248 q 400 335 421 314 q 306 390 378 356 q 150 506 195 444 q 106 664 106 569 q 151 824 106 752 q 274 935 196 895 q 456 981 352 974 l 479 1090 l 640 1090 l 615 974 q 793 928 694 962 l 746 697 z "},"%":{"ha":1247,"x_min":110,"x_max":1189,"o":"m 1189 282 q 1154 125 1189 195 q 1058 21 1120 56 q 913 -14 997 -14 q 743 45 806 -14 q 681 199 681 104 q 717 355 681 284 q 816 459 753 426 q 962 493 879 493 q 1128 437 1068 493 q 1189 282 1189 382 m 343 0 l 127 0 l 960 972 l 1174 972 l 343 0 m 618 775 q 583 618 618 689 q 486 513 547 547 q 340 479 425 479 q 172 538 233 479 q 110 692 110 597 q 146 848 110 777 q 245 952 182 919 q 392 986 308 986 q 558 930 498 986 q 618 775 618 873 m 1007 278 q 991 329 1007 311 q 951 347 976 347 q 887 309 911 347 q 864 201 864 270 q 879 152 864 170 q 920 134 895 134 q 983 174 960 134 q 1007 278 1007 215 m 436 771 q 421 822 436 803 q 380 840 407 840 q 316 800 340 840 q 293 694 293 760 q 308 645 293 663 q 349 627 323 627 q 412 667 389 627 q 436 771 436 708 z "},"&":{"ha":1051,"x_min":28,"x_max":1007,"o":"m 1007 530 q 939 356 989 443 q 818 201 888 269 l 960 0 l 668 0 l 631 58 q 336 -17 495 -17 q 106 48 184 -17 q 28 232 28 113 q 97 406 28 334 q 319 539 165 479 q 260 722 260 637 q 304 861 260 797 q 422 957 349 924 q 591 989 496 989 q 789 929 716 989 q 863 770 863 870 q 611 515 863 600 l 711 366 q 786 530 770 446 l 1007 530 m 633 761 q 566 821 633 821 q 513 798 535 821 q 490 746 490 774 q 499 695 490 718 q 529 642 508 672 q 608 694 583 667 q 633 761 633 721 m 404 407 q 327 347 357 385 q 297 272 297 309 q 328 197 297 227 q 404 168 359 168 q 529 210 469 168 l 404 407 z "},"'":{"ha":478,"x_min":227,"x_max":468,"o":"m 435 696 l 257 696 l 227 996 l 468 996 l 435 696 z "},"(":{"ha":585,"x_min":121,"x_max":720,"o":"m 720 972 q 450 581 531 768 q 368 178 368 393 q 391 -39 368 64 q 453 -220 414 -143 l 235 -220 q 152 -14 182 -136 q 121 222 121 108 q 215 637 121 445 q 481 972 309 829 l 720 972 z "},")":{"ha":585,"x_min":-135,"x_max":464,"o":"m 464 530 q 371 117 464 309 q 104 -220 277 -76 l -135 -220 q 135 172 54 -16 q 216 575 216 360 q 195 789 216 686 q 132 972 173 892 l 350 972 q 433 772 401 892 q 464 530 464 652 z "},"*":{"ha":672,"x_min":113,"x_max":701,"o":"m 511 671 l 652 539 l 494 432 l 407 602 l 319 433 l 163 539 l 302 671 l 113 689 l 174 863 l 345 782 l 304 972 l 510 972 l 469 782 l 640 863 l 701 689 l 511 671 z "},"+":{"ha":993,"x_min":170,"x_max":842,"o":"m 589 309 l 589 56 l 421 56 l 421 309 l 170 309 l 170 476 l 421 476 l 421 728 l 589 728 l 589 476 l 842 476 l 842 309 l 589 309 z "},",":{"ha":444,"x_min":-78,"x_max":359,"o":"m 163 -161 l -78 -161 l 92 184 l 359 184 l 163 -161 z "},"-":{"ha":566,"x_min":77,"x_max":489,"o":"m 447 267 l 77 267 l 118 461 l 489 461 l 447 267 z "},".":{"ha":444,"x_min":16,"x_max":339,"o":"m 339 127 q 292 23 339 63 q 168 -17 245 -17 q 58 18 101 -17 q 16 109 16 53 q 62 214 16 174 q 187 254 109 254 q 297 219 256 254 q 339 127 339 183 z "},"/":{"ha":669,"x_min":-191,"x_max":818,"o":"m 96 -161 l -191 -161 l 532 972 l 818 972 l 96 -161 z "},":":{"ha":444,"x_min":16,"x_max":429,"o":"m 429 568 q 382 464 429 504 q 258 424 335 424 q 149 458 192 424 q 106 549 106 492 q 153 654 106 614 q 278 694 199 694 q 387 659 345 694 q 429 568 429 624 m 339 127 q 292 23 339 63 q 168 -17 245 -17 q 58 18 101 -17 q 16 109 16 53 q 62 214 16 174 q 187 254 109 254 q 297 219 256 254 q 339 127 339 183 z "},";":{"ha":444,"x_min":-100,"x_max":429,"o":"m 429 568 q 382 464 429 504 q 258 424 335 424 q 149 458 192 424 q 106 549 106 492 q 153 654 106 614 q 278 694 199 694 q 387 659 345 694 q 429 568 429 624 m 140 -161 l -100 -161 l 69 184 l 338 184 l 140 -161 z "},"<":{"ha":993,"x_min":144,"x_max":817,"o":"m 144 296 l 144 458 l 817 734 l 817 536 l 342 376 l 342 374 l 817 214 l 817 16 l 144 296 z "},"=":{"ha":993,"x_min":170,"x_max":842,"o":"m 170 452 l 170 619 l 842 619 l 842 452 l 170 452 m 170 160 l 170 328 l 842 328 l 842 160 l 170 160 z "},">":{"ha":993,"x_min":186,"x_max":859,"o":"m 186 29 l 186 229 l 661 387 l 661 390 l 186 549 l 186 749 l 859 472 l 859 310 l 186 29 z "},"?":{"ha":615,"x_min":69,"x_max":697,"o":"m 697 764 q 489 475 697 591 q 407 409 432 443 q 371 314 382 376 l 143 314 q 176 436 159 395 q 217 510 192 476 q 279 570 242 543 q 376 643 361 628 q 399 672 392 658 q 407 703 407 686 q 381 754 407 737 q 311 771 356 771 q 94 713 211 771 l 146 949 q 270 987 200 973 q 395 1002 339 1002 q 618 940 539 1002 q 697 764 697 879 m 393 127 q 346 23 393 63 q 222 -17 299 -17 q 112 19 155 -17 q 69 109 69 54 q 117 214 69 174 q 241 254 164 254 q 351 219 309 254 q 393 127 393 183 z "},"@":{"ha":1318,"x_min":81,"x_max":1282,"o":"m 1282 554 q 1231 335 1282 439 q 1094 176 1180 231 q 895 122 1008 122 q 806 136 841 122 q 752 171 771 149 q 733 215 733 192 l 733 224 l 729 224 q 551 122 660 122 q 420 182 466 122 q 375 351 375 242 q 419 545 375 454 q 536 681 464 635 q 696 728 609 728 q 764 709 735 728 q 803 654 793 690 l 806 654 l 819 713 l 1018 713 q 971 520 994 616 q 938 375 949 425 q 926 317 926 325 q 935 286 926 296 q 965 275 943 275 q 1025 314 994 275 q 1076 415 1057 352 q 1095 550 1095 477 q 1006 763 1095 691 q 749 835 918 835 q 504 774 612 835 q 338 605 397 714 q 279 355 279 495 q 373 107 279 193 q 647 21 467 21 q 823 40 731 21 q 962 81 915 58 l 935 -81 q 798 -113 892 -98 q 616 -127 704 -127 q 220 -2 360 -127 q 81 351 81 124 q 169 678 81 531 q 410 905 257 825 q 758 985 564 985 q 1146 873 1010 985 q 1282 554 1282 762 m 770 515 q 754 563 770 546 q 708 579 738 579 q 617 512 656 579 q 578 363 578 446 q 639 271 578 271 q 700 308 670 271 q 750 406 730 345 q 770 515 770 467 z "},"A":{"ha":1042,"x_min":-64,"x_max":950,"o":"m 652 0 l 637 179 l 346 179 l 258 0 l -64 0 l 476 972 l 840 972 l 950 0 l 652 0 m 609 684 q 612 750 609 730 l 606 750 l 593 716 l 567 657 l 449 408 l 623 408 l 610 652 l 609 684 z "},"B":{"ha":974,"x_min":21,"x_max":965,"o":"m 965 745 q 900 593 965 653 q 722 511 836 532 l 722 509 q 865 442 814 497 q 917 301 917 387 q 866 141 917 209 q 716 37 815 74 q 476 0 618 0 l 21 0 l 227 972 l 627 972 q 882 917 798 972 q 965 745 965 861 m 654 688 q 627 756 654 736 q 532 777 600 777 l 478 777 l 439 593 l 530 593 q 620 621 585 593 q 654 688 654 648 m 606 307 q 580 372 606 347 q 509 396 554 396 l 399 396 l 354 197 l 457 197 q 566 227 527 197 q 606 307 606 256 z "},"C":{"ha":875,"x_min":56,"x_max":937,"o":"m 878 688 q 787 721 836 707 q 667 734 737 734 q 507 695 574 734 q 403 584 439 655 q 367 427 367 513 q 422 284 367 336 q 581 233 477 233 q 684 248 627 233 q 794 289 741 263 l 736 21 q 503 -17 630 -17 q 172 94 288 -17 q 56 400 56 204 q 135 713 56 576 q 357 920 214 850 q 692 989 500 989 q 822 979 753 989 q 937 956 890 969 l 878 688 z "},"D":{"ha":1079,"x_min":21,"x_max":1059,"o":"m 1059 578 q 986 271 1059 405 q 784 69 914 138 q 475 0 653 0 l 21 0 l 227 972 l 614 972 q 946 869 833 972 q 1059 578 1059 765 m 747 555 q 698 696 747 650 q 546 743 648 743 l 471 743 l 363 229 l 461 229 q 671 317 595 229 q 747 555 747 405 z "},"E":{"ha":766,"x_min":21,"x_max":832,"o":"m 783 743 l 471 743 l 441 602 l 734 602 l 686 372 l 393 372 l 363 229 l 697 229 l 648 0 l 21 0 l 227 972 l 832 972 l 783 743 z "},"F":{"ha":751,"x_min":21,"x_max":836,"o":"m 787 743 l 471 743 l 435 568 l 724 568 l 673 339 l 385 339 l 314 0 l 21 0 l 227 972 l 836 972 l 787 743 z "},"G":{"ha":1015,"x_min":62,"x_max":1000,"o":"m 943 688 q 828 734 893 717 q 703 751 764 751 q 461 664 548 751 q 374 421 374 576 q 422 270 374 323 q 558 216 470 216 q 619 224 589 216 l 650 366 l 471 366 l 518 587 l 990 587 l 879 64 q 515 -17 713 -17 q 181 96 300 -17 q 62 416 62 210 q 143 713 62 581 q 368 918 223 846 q 708 989 513 989 q 1000 940 844 989 l 943 688 z "},"H":{"ha":1116,"x_min":20,"x_max":1150,"o":"m 943 0 l 648 0 l 726 363 l 390 363 l 313 0 l 20 0 l 227 972 l 519 972 l 443 612 l 779 612 l 856 972 l 1150 972 l 943 0 z "},"I":{"ha":484,"x_min":20,"x_max":518,"o":"m 313 0 l 20 0 l 225 972 l 518 972 l 313 0 z "},"J":{"ha":713,"x_min":-45,"x_max":758,"o":"m 126 -17 q 43 -8 90 -17 q -45 16 -5 0 l 14 286 q 86 247 47 261 q 150 233 125 233 q 277 281 229 233 q 349 432 326 330 l 464 972 l 758 972 l 639 415 q 126 -17 545 -17 z "},"K":{"ha":958,"x_min":21,"x_max":1093,"o":"m 1093 972 l 713 509 l 914 0 l 558 0 l 427 406 q 414 461 420 422 l 411 461 l 314 0 l 21 0 l 227 972 l 519 972 l 425 525 l 428 525 l 445 551 l 746 972 l 1093 972 z "},"L":{"ha":751,"x_min":21,"x_max":697,"o":"m 648 0 l 21 0 l 227 972 l 519 972 l 363 229 l 697 229 l 648 0 z "},"M":{"ha":1369,"x_min":20,"x_max":1404,"o":"m 1198 0 l 909 0 l 1031 572 l 1063 718 l 1057 718 l 1007 597 l 733 0 l 464 0 l 429 564 q 425 718 425 621 l 419 718 q 374 444 399 568 l 279 0 l 20 0 l 225 972 l 636 972 l 670 391 q 667 300 670 347 l 671 300 q 694 368 682 332 q 720 432 707 404 l 957 972 l 1404 972 l 1198 0 z "},"N":{"ha":1146,"x_min":20,"x_max":1181,"o":"m 975 0 l 745 0 l 463 476 q 412 576 424 543 l 410 576 q 379 415 397 494 l 290 0 l 20 0 l 225 972 l 478 972 l 750 521 q 773 478 759 508 q 794 428 788 449 l 798 428 q 806 481 800 453 l 909 972 l 1181 972 l 975 0 z "},"O":{"ha":1061,"x_min":62,"x_max":1040,"o":"m 1040 562 q 970 264 1040 402 q 775 55 900 127 q 479 -17 651 -17 q 255 36 349 -17 q 112 186 161 90 q 62 408 62 283 q 134 707 62 570 q 330 916 205 844 q 619 989 454 989 q 928 875 815 989 q 1040 562 1040 761 m 729 553 q 692 688 729 642 q 586 734 655 734 q 475 692 522 734 q 400 573 427 649 q 374 415 374 498 q 411 279 374 325 q 514 233 448 233 q 623 271 575 233 q 700 387 671 309 q 729 553 729 465 z "},"P":{"ha":925,"x_min":21,"x_max":958,"o":"m 958 679 q 903 484 958 569 q 749 355 848 398 q 518 313 651 313 l 379 313 l 314 0 l 21 0 l 227 972 l 619 972 q 871 897 783 972 q 958 679 958 821 m 647 659 q 616 735 647 709 q 526 762 585 762 l 475 762 l 425 522 l 507 522 q 609 561 570 522 q 647 659 647 599 z "},"Q":{"ha":1061,"x_min":62,"x_max":1040,"o":"m 1040 562 q 1025 419 1040 491 q 980 284 1009 347 q 911 172 951 221 q 822 93 871 123 l 1008 -131 l 668 -131 l 577 -12 q 479 -17 524 -17 q 255 36 349 -17 q 112 186 161 90 q 62 408 62 283 q 134 707 62 570 q 330 916 205 844 q 619 989 454 989 q 928 875 815 989 q 1040 562 1040 761 m 729 553 q 692 688 729 642 q 586 734 655 734 q 475 692 522 734 q 400 573 427 649 q 374 415 374 498 q 411 279 374 325 q 514 233 448 233 q 623 271 575 233 q 700 387 671 309 q 729 553 729 465 z "},"R":{"ha":947,"x_min":21,"x_max":950,"o":"m 950 721 q 874 532 950 610 q 671 431 798 453 l 671 428 q 806 254 777 389 l 860 0 l 549 0 l 513 216 q 473 310 502 277 q 389 342 444 342 l 386 342 l 314 0 l 21 0 l 227 972 l 608 972 q 860 907 770 972 q 950 721 950 841 m 637 667 q 611 743 637 715 q 530 770 584 770 l 478 770 l 428 547 l 493 547 q 598 582 559 547 q 637 667 637 616 z "},"S":{"ha":794,"x_min":17,"x_max":817,"o":"m 768 699 q 640 755 696 739 q 525 771 583 771 q 452 751 479 771 q 425 700 425 732 q 447 648 425 670 q 541 587 469 627 q 702 461 656 526 q 747 297 747 397 q 695 129 747 203 q 550 19 642 55 q 330 -17 457 -17 q 158 4 238 -17 q 17 57 77 24 l 68 297 q 330 201 197 201 q 436 277 436 201 q 410 333 436 311 q 318 386 384 356 q 161 502 208 437 q 114 665 114 566 q 165 836 114 760 q 307 950 217 912 q 514 989 396 989 q 682 972 608 989 q 817 933 756 955 l 768 699 z "},"T":{"ha":884,"x_min":103,"x_max":993,"o":"m 945 743 l 669 743 l 513 0 l 218 0 l 375 743 l 103 743 l 151 972 l 993 972 l 945 743 z "},"U":{"ha":1025,"x_min":89,"x_max":1071,"o":"m 464 -17 q 186 70 283 -17 q 89 322 89 157 q 113 503 89 384 l 212 972 l 507 972 l 406 500 q 390 422 397 459 q 382 357 382 385 q 412 266 382 298 q 497 233 442 233 q 599 277 561 233 q 659 421 637 321 l 777 972 l 1071 972 l 950 404 q 853 151 913 238 q 697 23 792 63 q 464 -17 602 -17 z "},"V":{"ha":975,"x_min":139,"x_max":1100,"o":"m 576 0 l 248 0 l 139 972 l 439 972 l 472 336 q 467 265 472 298 l 473 265 q 487 306 479 283 q 779 972 496 328 l 1100 972 l 576 0 z "},"W":{"ha":1463,"x_min":144,"x_max":1579,"o":"m 1128 0 l 821 0 l 798 560 q 807 643 798 589 l 811 667 l 808 667 q 792 618 806 654 q 766 554 779 582 l 507 0 l 171 0 l 144 972 l 453 972 l 425 397 q 411 286 422 355 l 415 286 q 433 342 420 304 q 457 401 447 380 l 722 972 l 1040 972 l 1046 393 q 1043 338 1046 374 q 1039 288 1041 302 l 1042 288 l 1076 397 l 1278 972 l 1579 972 l 1128 0 z "},"X":{"ha":975,"x_min":-82,"x_max":1099,"o":"m 715 475 l 888 0 l 557 0 l 503 252 q 494 335 496 283 l 494 355 l 492 355 q 446 261 471 301 l 281 0 l -82 0 l 317 503 l 153 972 l 493 972 l 530 728 q 538 644 537 688 l 538 621 l 541 621 q 559 667 546 636 q 584 716 572 698 q 758 972 596 734 l 1099 972 l 715 475 z "},"Y":{"ha":903,"x_min":131,"x_max":1034,"o":"m 518 0 l 224 0 l 294 334 l 131 972 l 449 972 l 489 667 q 496 564 496 614 l 498 564 q 539 661 529 643 l 705 972 l 1034 972 l 589 338 l 518 0 z "},"Z":{"ha":890,"x_min":-33,"x_max":974,"o":"m 401 229 l 831 229 l 782 0 l -33 0 l 9 205 l 561 743 l 151 743 l 200 972 l 974 972 l 930 768 l 401 229 z "},"[":{"ha":585,"x_min":46,"x_max":669,"o":"m 633 796 l 486 796 l 307 -46 l 454 -46 l 416 -221 l 46 -221 l 298 972 l 669 972 l 633 796 z "},"\\":{"ha":669,"x_min":135,"x_max":611,"o":"m 367 -161 l 135 972 l 380 972 l 611 -161 l 367 -161 z "},"]":{"ha":585,"x_min":-82,"x_max":539,"o":"m 286 -221 l -82 -221 l -45 -46 l 98 -46 l 278 796 l 131 796 l 168 972 l 539 972 l 286 -221 z "},"^":{"ha":993,"x_min":170,"x_max":905,"o":"m 700 427 l 539 802 l 536 802 l 376 427 l 170 427 l 457 989 l 618 989 l 905 427 l 700 427 z "},"_":{"ha":576,"x_min":-121,"x_max":472,"o":"m -121 -201 l -104 -121 l 472 -121 l 456 -201 l -121 -201 z "},"`":{"ha":694,"x_min":196,"x_max":568,"o":"m 376 777 l 196 994 l 427 994 l 568 777 l 376 777 z "},"a":{"ha":876,"x_min":33,"x_max":875,"o":"m 758 0 l 472 0 q 482 123 472 22 l 479 123 q 248 -17 376 -17 q 89 54 145 -17 q 33 254 33 125 q 69 436 33 347 q 167 585 104 526 q 321 678 230 645 q 532 711 412 711 q 875 669 695 711 l 785 244 q 766 122 774 196 q 758 0 758 48 m 557 524 q 515 528 541 528 q 418 496 461 528 q 348 403 374 465 q 321 278 321 340 q 338 216 321 237 q 382 195 356 195 q 469 250 431 195 q 530 408 508 305 l 557 524 z "},"b":{"ha":876,"x_min":9,"x_max":843,"o":"m 843 456 q 781 204 843 315 q 605 38 718 92 q 339 -17 492 -17 q 168 4 256 -17 q 9 66 80 26 l 214 1028 l 503 1028 l 433 699 l 404 587 l 411 587 q 636 711 501 711 q 787 644 730 711 q 843 456 843 577 m 555 411 q 489 500 555 500 q 406 443 444 500 q 347 290 368 385 l 322 179 q 383 167 343 167 q 469 202 430 167 q 532 295 509 237 q 555 411 555 353 z "},"c":{"ha":659,"x_min":33,"x_max":675,"o":"m 628 471 q 509 500 583 500 q 375 444 430 500 q 321 304 321 387 q 436 195 321 195 q 509 204 469 195 q 581 232 549 214 l 541 35 q 434 -4 492 9 q 322 -17 376 -17 q 110 59 187 -17 q 33 269 33 136 q 92 493 33 391 q 255 653 151 595 q 490 711 359 711 q 675 675 602 711 l 628 471 z "},"d":{"ha":876,"x_min":33,"x_max":950,"o":"m 758 0 l 472 0 q 482 123 472 22 l 479 123 q 248 -17 378 -17 q 90 54 146 -17 q 33 250 33 124 q 93 491 33 385 q 262 654 153 596 q 505 711 371 711 q 552 709 515 711 q 593 705 590 707 l 663 1028 l 950 1028 l 785 244 q 766 122 774 196 q 758 0 758 48 m 557 524 q 514 528 532 528 q 417 496 460 528 q 348 402 374 465 q 321 278 321 338 q 339 216 321 237 q 383 195 357 195 q 468 249 430 195 q 530 408 507 304 l 557 524 z "},"e":{"ha":753,"x_min":33,"x_max":757,"o":"m 757 504 q 647 326 757 385 q 310 261 538 268 l 310 256 q 343 194 310 216 q 432 172 376 172 q 551 189 481 172 q 665 229 621 206 l 625 40 q 497 -1 572 15 q 346 -17 421 -17 q 117 60 200 -17 q 33 272 33 138 q 91 497 33 394 q 249 656 148 600 q 481 711 349 711 q 685 658 612 711 q 757 504 757 604 m 490 505 q 481 532 490 520 q 449 545 472 545 q 371 510 404 545 q 326 412 338 475 q 447 435 403 412 q 490 505 490 458 z "},"f":{"ha":599,"x_min":7,"x_max":742,"o":"m 697 812 q 610 833 641 833 q 501 742 521 833 l 492 694 l 654 694 l 612 494 l 449 494 l 293 -231 l 7 -231 l 160 494 l 41 494 l 83 694 l 201 694 l 218 768 q 583 1044 279 1044 q 742 1023 672 1044 l 697 812 z "},"g":{"ha":876,"x_min":-18,"x_max":875,"o":"m 215 -326 q -18 -279 97 -326 l 29 -60 q 132 -109 77 -92 q 236 -126 186 -126 q 385 -80 333 -126 q 457 60 437 -34 l 468 113 l 465 113 q 368 16 425 50 q 245 -17 311 -17 q 90 54 146 -17 q 33 244 33 124 q 96 492 33 383 q 269 656 159 602 q 524 711 378 711 q 697 700 604 711 q 875 669 790 689 l 757 111 q 657 -146 722 -56 q 484 -281 592 -237 q 215 -326 376 -326 m 557 524 q 510 528 541 528 q 415 494 458 528 q 346 402 372 460 q 321 278 321 343 q 338 216 321 237 q 382 195 356 195 q 468 249 429 195 q 530 408 507 304 l 557 524 z "},"h":{"ha":869,"x_min":-7,"x_max":836,"o":"m 836 541 q 821 422 836 493 l 732 0 l 443 0 l 525 385 q 536 454 536 431 q 489 500 536 500 q 410 451 452 500 q 354 342 367 403 l 282 0 l -7 0 l 211 1028 l 500 1028 l 404 575 l 407 575 q 534 674 462 637 q 669 711 606 711 q 836 541 836 711 z "},"i":{"ha":428,"x_min":27,"x_max":469,"o":"m 469 889 q 422 785 469 825 q 298 745 375 745 q 188 780 231 745 q 145 869 145 816 q 193 975 145 935 q 317 1015 240 1015 q 427 980 384 1015 q 469 889 469 945 m 247 -17 q 86 37 145 -17 q 27 179 27 90 q 41 285 27 222 l 130 694 l 419 694 l 334 294 q 328 241 328 266 q 374 203 328 203 q 451 220 412 203 l 406 9 q 345 -8 387 0 q 247 -17 302 -17 z "},"j":{"ha":428,"x_min":-210,"x_max":479,"o":"m 479 889 q 432 785 479 825 q 309 745 385 745 q 198 780 241 745 q 155 869 155 816 q 203 975 155 935 q 328 1015 250 1015 q 437 980 394 1015 q 479 889 479 945 m -93 -326 q -210 -302 -164 -326 l -165 -98 q -140 -110 -157 -105 q -109 -115 -123 -115 q -40 -84 -63 -115 q -4 14 -18 -53 l 140 694 l 429 694 l 290 37 q 212 -173 262 -95 q 84 -289 161 -252 q -93 -326 8 -326 z "},"k":{"ha":840,"x_min":-8,"x_max":924,"o":"m 643 353 l 774 0 l 458 0 l 358 350 l 355 350 l 281 0 l -8 0 l 211 1028 l 500 1028 l 361 375 l 364 375 l 591 694 l 924 694 l 643 353 z "},"l":{"ha":428,"x_min":27,"x_max":490,"o":"m 247 -17 q 86 37 145 -17 q 27 179 27 90 q 41 285 27 222 l 201 1028 l 490 1028 l 334 294 q 328 241 328 266 q 374 203 328 203 q 451 220 412 203 l 406 9 q 345 -8 387 0 q 247 -17 302 -17 z "},"m":{"ha":1317,"x_min":-7,"x_max":1283,"o":"m 1283 541 q 1268 422 1283 490 l 1179 0 l 890 0 l 972 385 q 983 454 983 428 q 937 500 983 500 q 885 477 915 500 q 833 417 856 454 q 803 342 811 380 l 733 0 l 443 0 l 525 385 q 536 454 536 431 q 490 500 536 500 q 411 451 454 500 q 355 342 368 403 l 283 0 l -7 0 l 92 461 q 132 694 115 574 l 416 694 q 403 575 412 613 l 406 575 q 533 675 461 638 q 669 711 606 711 q 835 558 825 711 q 964 670 888 628 q 1117 711 1040 711 q 1283 541 1283 711 z "},"n":{"ha":869,"x_min":-7,"x_max":836,"o":"m 836 541 q 821 422 836 493 l 732 0 l 443 0 l 525 385 q 536 454 536 431 q 490 500 536 500 q 411 451 454 500 q 355 342 368 403 l 285 0 l -7 0 l 92 461 q 132 694 115 574 l 416 694 q 403 575 412 613 l 406 575 q 533 675 461 638 q 669 711 606 711 q 836 541 836 711 z "},"o":{"ha":839,"x_min":34,"x_max":806,"o":"m 806 406 q 752 183 806 284 q 600 33 697 83 q 370 -17 502 -17 q 122 64 210 -17 q 34 290 34 144 q 65 458 34 376 q 152 596 96 540 q 289 682 208 652 q 474 711 370 711 q 720 632 633 711 q 806 406 806 552 m 519 406 q 499 476 519 452 q 446 500 479 500 q 381 471 409 500 q 337 392 353 442 q 321 288 321 341 q 341 218 321 241 q 395 195 361 195 q 485 254 451 195 q 519 406 519 314 z "},"p":{"ha":876,"x_min":-72,"x_max":843,"o":"m 843 460 q 784 209 843 319 q 619 41 725 99 q 372 -17 513 -17 q 326 -15 363 -17 q 286 -11 290 -13 l 218 -319 l -72 -319 l 92 450 q 119 592 107 519 q 134 694 132 665 l 411 694 q 396 571 408 637 l 399 571 q 639 711 494 711 q 787 642 731 711 q 843 460 843 572 m 555 415 q 490 500 555 500 q 408 445 446 500 q 346 286 370 391 l 319 171 q 363 167 344 167 q 499 239 444 167 q 555 415 555 312 z "},"q":{"ha":876,"x_min":33,"x_max":872,"o":"m 665 -319 l 376 -319 l 436 -39 l 455 39 l 473 113 l 471 113 q 369 17 427 51 q 248 -17 311 -17 q 89 54 145 -17 q 33 253 33 125 q 70 436 33 347 q 168 586 106 526 q 321 679 231 646 q 526 711 412 711 q 872 659 709 711 l 665 -319 m 555 519 q 507 528 537 528 q 417 496 458 528 q 348 403 375 464 q 321 283 321 342 q 337 217 321 239 q 380 195 353 195 q 468 247 429 195 q 526 392 507 300 l 555 519 z "},"r":{"ha":601,"x_min":-6,"x_max":656,"o":"m 598 447 l 597 447 q 523 464 563 464 q 409 423 452 464 q 342 283 365 382 l 283 0 l -6 0 l 88 443 q 132 694 121 597 l 416 694 q 398 561 408 629 l 401 561 q 487 675 441 638 q 595 711 534 711 q 656 703 621 711 l 598 447 z "},"s":{"ha":660,"x_min":-3,"x_max":643,"o":"m 606 489 q 519 517 570 504 q 427 530 468 530 q 364 492 364 530 q 380 461 364 471 q 421 440 395 451 q 536 381 502 408 q 587 320 570 355 q 603 231 603 284 q 560 101 603 157 q 436 14 517 45 q 239 -17 355 -17 q 106 -7 170 -17 q -3 17 42 3 l 35 216 q 249 161 155 161 q 334 205 334 161 q 315 238 334 225 q 268 260 296 250 q 125 342 166 293 q 83 468 83 391 q 126 597 83 541 q 245 683 170 654 q 424 711 321 711 q 540 702 473 711 q 643 684 607 693 l 606 489 z "},"t":{"ha":571,"x_min":22,"x_max":616,"o":"m 568 494 l 412 494 l 372 306 q 363 236 363 262 q 411 195 363 195 q 504 214 452 195 l 463 14 q 372 -8 431 1 q 267 -17 313 -17 q 66 172 66 -17 q 76 245 66 197 q 127 494 85 293 l 22 494 l 71 694 l 170 694 l 203 854 l 504 924 l 456 694 l 616 694 l 568 494 z "},"u":{"ha":869,"x_min":28,"x_max":868,"o":"m 746 0 l 453 0 q 464 114 458 79 l 461 114 q 332 16 400 48 q 197 -17 264 -17 q 28 154 28 -17 q 43 272 28 205 l 132 694 l 421 694 l 340 318 q 329 241 329 272 q 339 217 329 228 q 370 207 349 207 q 459 257 419 207 q 514 382 499 308 l 579 694 l 868 694 l 775 258 q 754 123 762 197 q 746 0 746 50 z "},"v":{"ha":803,"x_min":64,"x_max":880,"o":"m 497 0 l 144 0 l 64 694 l 351 694 l 361 250 q 357 178 361 209 l 361 178 l 384 243 l 410 311 l 567 694 l 880 694 l 497 0 z "},"w":{"ha":1174,"x_min":79,"x_max":1234,"o":"m 892 0 l 591 0 l 595 351 q 603 456 595 400 l 600 456 q 580 393 593 427 q 424 0 568 359 l 115 0 l 79 694 l 355 694 l 330 290 q 321 200 325 226 l 325 200 q 357 293 346 267 l 524 694 l 806 694 l 796 293 q 790 201 796 250 l 794 201 l 822 293 l 958 694 l 1234 694 l 892 0 z "},"x":{"ha":863,"x_min":-77,"x_max":939,"o":"m 644 358 l 790 0 l 469 0 l 425 158 q 411 231 416 188 l 408 231 l 390 195 l 371 161 l 265 0 l -77 0 l 228 355 l 85 694 l 407 694 q 448 541 434 593 q 464 457 463 488 l 467 457 q 493 505 477 477 q 612 694 509 532 l 939 694 l 644 358 z "},"y":{"ha":798,"x_min":-111,"x_max":868,"o":"m 49 -326 q -111 -298 -42 -326 l -64 -86 q 29 -115 -28 -115 q 150 -50 111 -115 l 184 7 l 43 694 l 346 694 l 374 359 q 378 260 378 313 l 376 233 l 379 233 q 404 300 389 263 q 571 694 418 337 l 868 694 l 465 -20 q 336 -207 393 -146 q 209 -296 278 -267 q 49 -326 139 -326 z "},"z":{"ha":724,"x_min":-56,"x_max":762,"o":"m 385 200 l 663 200 l 621 0 l -56 0 l -28 135 l 361 494 l 79 494 l 121 694 l 762 694 l 726 524 l 385 200 z "},"{":{"ha":585,"x_min":62,"x_max":646,"o":"m 294 339 l 294 336 q 345 283 325 319 q 366 197 366 248 q 354 106 366 150 l 326 -20 q 322 -57 322 -39 q 411 -135 322 -135 l 379 -286 q 169 -235 240 -286 q 98 -77 98 -184 q 111 21 98 -33 l 142 154 q 147 199 147 174 q 125 258 147 238 q 62 278 102 278 l 96 431 q 177 451 147 431 q 216 522 206 472 l 249 676 q 295 815 266 758 q 368 907 325 873 q 472 957 410 942 q 646 972 533 972 l 614 819 q 525 794 554 819 q 479 696 495 770 l 447 543 q 392 409 431 463 q 294 339 354 355 z "},"|":{"ha":553,"x_min":67,"x_max":412,"o":"m 191 -326 l 191 1063 l 412 1063 l 412 -326 l 191 -326 m 67 1044 z "},"}":{"ha":585,"x_min":-66,"x_max":517,"o":"m -66 -285 l -33 -132 q 57 -106 27 -132 q 102 -8 87 -81 l 134 144 q 188 278 150 225 q 286 349 227 332 l 286 351 q 235 405 256 369 q 215 490 215 440 q 227 582 215 533 l 254 707 q 257 745 257 720 q 170 822 257 822 l 201 974 q 411 924 342 974 q 481 768 481 875 q 469 667 481 711 l 439 533 q 433 489 433 513 q 457 428 433 446 q 517 410 481 410 l 485 257 q 404 236 433 257 q 364 165 374 216 l 332 11 q 285 -128 315 -71 q 213 -219 255 -185 q 110 -269 171 -254 q -66 -285 48 -285 z "},"~":{"ha":993,"x_min":140,"x_max":869,"o":"m 869 526 q 806 336 865 408 q 650 264 747 264 q 553 279 594 264 q 465 321 512 294 q 386 351 415 351 q 334 328 354 351 q 309 256 313 304 l 140 256 q 203 449 144 378 q 366 519 263 519 q 448 508 412 519 q 517 478 483 496 q 575 446 549 460 q 628 432 602 432 q 680 459 660 432 q 701 526 700 486 l 869 526 z "},"Ä":{"ha":1042,"x_min":-64,"x_max":977,"o":"m 652 0 l 637 179 l 346 179 l 258 0 l -64 0 l 476 972 l 840 972 l 950 0 l 652 0 m 609 684 q 612 750 609 730 l 606 750 l 593 716 l 567 657 l 449 408 l 623 408 l 610 652 l 609 684 m 977 1173 q 941 1093 977 1124 q 846 1062 906 1062 q 752 1094 789 1062 q 715 1173 715 1125 q 751 1251 715 1221 q 846 1281 787 1281 q 941 1251 905 1281 q 977 1173 977 1221 m 637 1173 q 602 1094 637 1125 q 506 1062 567 1062 q 412 1094 448 1062 q 376 1173 376 1126 q 412 1251 376 1221 q 506 1281 448 1281 q 601 1252 565 1281 q 637 1173 637 1222 z "},"Å":{"ha":1042,"x_min":-64,"x_max":950,"o":"m 652 0 l 637 179 l 346 179 l 258 0 l -64 0 l 476 972 q 460 1048 460 1005 q 515 1175 460 1127 q 657 1222 570 1222 q 804 1174 749 1222 q 859 1048 859 1126 q 840 968 859 1006 l 950 0 l 652 0 m 729 1048 q 711 1089 729 1072 q 657 1107 694 1107 q 609 1090 628 1107 q 590 1048 590 1073 q 609 1006 590 1023 q 657 989 627 989 q 708 1006 687 989 q 729 1048 729 1023 m 609 684 q 612 750 609 730 l 606 750 l 593 716 l 567 657 l 449 408 l 623 408 l 610 652 l 609 684 z "},"Ç":{"ha":875,"x_min":56,"x_max":937,"o":"m 878 688 q 787 721 836 707 q 667 734 737 734 q 507 695 574 734 q 403 584 439 655 q 367 427 367 513 q 422 284 367 336 q 581 233 477 233 q 684 248 627 233 q 794 289 741 263 l 736 21 q 503 -17 630 -17 q 172 94 288 -17 q 56 400 56 204 q 135 713 56 576 q 357 920 214 850 q 692 989 500 989 q 822 979 753 989 q 937 956 890 969 l 878 688 m 684 -158 q 653 -242 684 -203 q 568 -302 623 -280 q 437 -323 513 -323 q 345 -317 383 -323 l 373 -200 q 429 -207 399 -207 q 484 -195 464 -207 q 503 -165 503 -183 q 430 -125 503 -125 l 401 -126 l 430 0 l 566 0 l 555 -45 q 653 -78 623 -50 q 684 -158 684 -106 z "},"É":{"ha":766,"x_min":21,"x_max":878,"o":"m 783 743 l 471 743 l 441 602 l 734 602 l 686 372 l 393 372 l 363 229 l 697 229 l 648 0 l 21 0 l 227 972 l 832 972 l 783 743 m 608 1063 l 388 1063 l 618 1280 l 878 1280 l 608 1063 z "},"Ñ":{"ha":1146,"x_min":20,"x_max":1181,"o":"m 975 0 l 745 0 l 463 476 q 412 576 424 543 l 410 576 q 379 415 397 494 l 290 0 l 20 0 l 225 972 l 478 972 l 750 521 q 773 478 759 508 q 794 428 788 449 l 798 428 q 806 481 800 453 l 909 972 l 1181 972 l 975 0 m 1012 1303 q 813 1073 969 1073 q 751 1082 777 1073 q 706 1102 726 1091 q 668 1122 686 1113 q 629 1131 650 1131 q 584 1116 601 1131 q 556 1063 566 1101 l 425 1063 q 495 1235 444 1176 q 621 1294 545 1294 q 685 1285 660 1294 q 730 1265 710 1276 q 768 1245 750 1254 q 810 1236 786 1236 q 878 1303 865 1236 l 1012 1303 z "},"Ö":{"ha":1061,"x_min":62,"x_max":1040,"o":"m 1040 562 q 970 264 1040 402 q 775 55 900 127 q 479 -17 651 -17 q 255 36 349 -17 q 112 186 161 90 q 62 408 62 283 q 134 707 62 570 q 330 916 205 844 q 619 989 454 989 q 928 875 815 989 q 1040 562 1040 761 m 729 553 q 692 688 729 642 q 586 734 655 734 q 475 692 522 734 q 400 573 427 649 q 374 415 374 498 q 411 279 374 325 q 514 233 448 233 q 623 271 575 233 q 700 387 671 309 q 729 553 729 465 m 930 1174 q 895 1094 930 1124 q 800 1063 860 1063 q 706 1094 743 1063 q 669 1174 669 1126 q 705 1252 669 1222 q 800 1282 741 1282 q 895 1252 859 1282 q 930 1174 930 1221 m 591 1174 q 556 1094 591 1126 q 460 1063 521 1063 q 366 1095 402 1063 q 330 1174 330 1127 q 366 1252 330 1222 q 460 1282 401 1282 q 555 1252 519 1282 q 591 1174 591 1223 z "},"Ü":{"ha":1025,"x_min":89,"x_max":1071,"o":"m 464 -17 q 186 70 283 -17 q 89 322 89 157 q 113 503 89 384 l 212 972 l 507 972 l 406 500 q 390 422 397 459 q 382 357 382 385 q 412 266 382 298 q 497 233 442 233 q 599 277 561 233 q 659 421 637 321 l 777 972 l 1071 972 l 950 404 q 853 151 913 238 q 697 23 792 63 q 464 -17 602 -17 m 956 1173 q 921 1093 956 1124 q 826 1062 886 1062 q 732 1094 769 1062 q 695 1173 695 1125 q 731 1251 695 1221 q 826 1281 767 1281 q 920 1251 884 1281 q 956 1173 956 1221 m 616 1173 q 582 1094 616 1125 q 486 1062 547 1062 q 392 1094 428 1062 q 355 1173 355 1126 q 391 1251 355 1221 q 486 1281 427 1281 q 581 1252 545 1281 q 616 1173 616 1222 z "},"á":{"ha":876,"x_min":33,"x_max":875,"o":"m 758 0 l 472 0 q 482 123 472 22 l 479 123 q 248 -17 376 -17 q 89 54 145 -17 q 33 254 33 125 q 69 436 33 347 q 167 585 104 526 q 321 678 230 645 q 532 711 412 711 q 875 669 695 711 l 785 244 q 766 122 774 196 q 758 0 758 48 m 557 524 q 515 528 541 528 q 418 496 461 528 q 348 403 374 465 q 321 278 321 340 q 338 216 321 237 q 382 195 356 195 q 469 250 431 195 q 530 408 508 305 l 557 524 m 552 777 l 332 777 l 562 994 l 821 994 l 552 777 z "},"à":{"ha":876,"x_min":33,"x_max":875,"o":"m 758 0 l 472 0 q 482 123 472 22 l 479 123 q 248 -17 376 -17 q 89 54 145 -17 q 33 254 33 125 q 69 436 33 347 q 167 585 104 526 q 321 678 230 645 q 532 711 412 711 q 875 669 695 711 l 785 244 q 766 122 774 196 q 758 0 758 48 m 557 524 q 515 528 541 528 q 418 496 461 528 q 348 403 374 465 q 321 278 321 340 q 338 216 321 237 q 382 195 356 195 q 469 250 431 195 q 530 408 508 305 l 557 524 m 521 777 l 340 994 l 571 994 l 713 777 l 521 777 z "},"â":{"ha":876,"x_min":33,"x_max":875,"o":"m 758 0 l 472 0 q 482 123 472 22 l 479 123 q 248 -17 376 -17 q 89 54 145 -17 q 33 254 33 125 q 69 436 33 347 q 167 585 104 526 q 321 678 230 645 q 532 711 412 711 q 875 669 695 711 l 785 244 q 766 122 774 196 q 758 0 758 48 m 557 524 q 515 528 541 528 q 418 496 461 528 q 348 403 374 465 q 321 278 321 340 q 338 216 321 237 q 382 195 356 195 q 469 250 431 195 q 530 408 508 305 l 557 524 m 616 777 l 536 885 l 416 777 l 228 777 l 446 999 l 661 999 l 791 777 l 616 777 z "},"ä":{"ha":876,"x_min":33,"x_max":875,"o":"m 758 0 l 472 0 q 482 123 472 22 l 479 123 q 248 -17 376 -17 q 89 54 145 -17 q 33 254 33 125 q 69 436 33 347 q 167 585 104 526 q 321 678 230 645 q 532 711 412 711 q 875 669 695 711 l 785 244 q 766 122 774 196 q 758 0 758 48 m 557 524 q 515 528 541 528 q 418 496 461 528 q 348 403 374 465 q 321 278 321 340 q 338 216 321 237 q 382 195 356 195 q 469 250 431 195 q 530 408 508 305 l 557 524 m 829 888 q 793 807 829 838 q 699 777 758 777 q 605 808 642 777 q 568 888 568 840 q 604 966 568 936 q 699 996 640 996 q 793 965 757 996 q 829 888 829 935 m 489 888 q 454 808 489 840 q 358 777 419 777 q 264 809 300 777 q 228 888 228 841 q 264 966 228 936 q 358 996 300 996 q 453 966 417 996 q 489 888 489 937 z "},"ã":{"ha":876,"x_min":33,"x_max":875,"o":"m 758 0 l 472 0 q 482 123 472 22 l 479 123 q 248 -17 376 -17 q 89 54 145 -17 q 33 254 33 125 q 69 436 33 347 q 167 585 104 526 q 321 678 230 645 q 532 711 412 711 q 875 669 695 711 l 785 244 q 766 122 774 196 q 758 0 758 48 m 557 524 q 515 528 541 528 q 418 496 461 528 q 348 403 374 465 q 321 278 321 340 q 338 216 321 237 q 382 195 356 195 q 469 250 431 195 q 530 408 508 305 l 557 524 m 840 1017 q 641 786 797 786 q 579 795 604 786 q 534 815 554 804 q 496 835 514 826 q 456 844 478 844 q 411 829 429 844 q 384 777 394 814 l 252 777 q 322 948 272 889 q 449 1007 373 1007 q 513 998 488 1007 q 558 978 538 989 q 596 958 578 967 q 638 949 614 949 q 706 1017 692 949 l 840 1017 z "},"å":{"ha":876,"x_min":33,"x_max":875,"o":"m 758 0 l 472 0 q 482 123 472 22 l 479 123 q 248 -17 376 -17 q 89 54 145 -17 q 33 254 33 125 q 69 436 33 347 q 167 585 104 526 q 321 678 230 645 q 532 711 412 711 q 875 669 695 711 l 785 244 q 766 122 774 196 q 758 0 758 48 m 557 524 q 515 528 541 528 q 418 496 461 528 q 348 403 374 465 q 321 278 321 340 q 338 216 321 237 q 382 195 356 195 q 469 250 431 195 q 530 408 508 305 l 557 524 m 736 936 q 685 820 736 864 q 552 777 633 777 q 424 821 474 777 q 373 936 373 865 q 396 1020 373 985 q 461 1075 420 1056 q 552 1095 503 1095 q 686 1051 636 1095 q 736 936 736 1007 m 618 936 q 602 974 618 958 q 552 990 586 990 q 508 974 526 990 q 491 936 491 958 q 508 897 491 913 q 552 882 526 882 q 599 897 580 882 q 618 936 618 912 z "},"ç":{"ha":659,"x_min":33,"x_max":675,"o":"m 628 471 q 509 500 583 500 q 375 444 430 500 q 321 304 321 387 q 436 195 321 195 q 509 204 469 195 q 581 232 549 214 l 541 35 q 434 -4 492 9 q 322 -17 376 -17 q 110 59 187 -17 q 33 269 33 136 q 92 493 33 391 q 255 653 151 595 q 490 711 359 711 q 675 675 602 711 l 628 471 m 487 -158 q 456 -242 487 -203 q 371 -302 426 -280 q 240 -323 317 -323 q 149 -317 186 -323 l 176 -200 q 232 -207 202 -207 q 287 -195 267 -207 q 307 -165 307 -183 q 233 -125 307 -125 l 204 -126 l 233 0 l 369 0 l 358 -45 q 456 -78 426 -50 q 487 -158 487 -106 z "},"é":{"ha":753,"x_min":33,"x_max":794,"o":"m 757 504 q 647 326 757 385 q 310 261 538 268 l 310 256 q 343 194 310 216 q 432 172 376 172 q 551 189 481 172 q 665 229 621 206 l 625 40 q 497 -1 572 15 q 346 -17 421 -17 q 117 60 200 -17 q 33 272 33 138 q 91 497 33 394 q 249 656 148 600 q 481 711 349 711 q 685 658 612 711 q 757 504 757 604 m 490 505 q 481 532 490 520 q 449 545 472 545 q 371 510 404 545 q 326 412 338 475 q 447 435 403 412 q 490 505 490 458 m 525 777 l 304 777 l 534 994 l 794 994 l 525 777 z "},"è":{"ha":753,"x_min":33,"x_max":757,"o":"m 757 504 q 647 326 757 385 q 310 261 538 268 l 310 256 q 343 194 310 216 q 432 172 376 172 q 551 189 481 172 q 665 229 621 206 l 625 40 q 497 -1 572 15 q 346 -17 421 -17 q 117 60 200 -17 q 33 272 33 138 q 91 497 33 394 q 249 656 148 600 q 481 711 349 711 q 685 658 612 711 q 757 504 757 604 m 490 505 q 481 532 490 520 q 449 545 472 545 q 371 510 404 545 q 326 412 338 475 q 447 435 403 412 q 490 505 490 458 m 433 777 l 252 994 l 483 994 l 625 777 l 433 777 z "},"ê":{"ha":753,"x_min":33,"x_max":757,"o":"m 757 504 q 647 326 757 385 q 310 261 538 268 l 310 256 q 343 194 310 216 q 432 172 376 172 q 551 189 481 172 q 665 229 621 206 l 625 40 q 497 -1 572 15 q 346 -17 421 -17 q 117 60 200 -17 q 33 272 33 138 q 91 497 33 394 q 249 656 148 600 q 481 711 349 711 q 685 658 612 711 q 757 504 757 604 m 490 505 q 481 532 490 520 q 449 545 472 545 q 371 510 404 545 q 326 412 338 475 q 447 435 403 412 q 490 505 490 458 m 568 777 l 489 885 l 368 777 l 180 777 l 399 999 l 614 999 l 743 777 l 568 777 z "},"ë":{"ha":753,"x_min":33,"x_max":774,"o":"m 757 504 q 647 326 757 385 q 310 261 538 268 l 310 256 q 343 194 310 216 q 432 172 376 172 q 551 189 481 172 q 665 229 621 206 l 625 40 q 497 -1 572 15 q 346 -17 421 -17 q 117 60 200 -17 q 33 272 33 138 q 91 497 33 394 q 249 656 148 600 q 481 711 349 711 q 685 658 612 711 q 757 504 757 604 m 490 505 q 481 532 490 520 q 449 545 472 545 q 371 510 404 545 q 326 412 338 475 q 447 435 403 412 q 490 505 490 458 m 774 888 q 739 807 774 838 q 644 777 704 777 q 550 808 587 777 q 513 888 513 840 q 549 966 513 936 q 644 996 585 996 q 739 965 703 996 q 774 888 774 935 m 435 888 q 400 808 435 840 q 304 777 365 777 q 210 809 246 777 q 174 888 174 841 q 210 966 174 936 q 304 996 245 996 q 399 966 363 996 q 435 888 435 937 z "},"í":{"ha":428,"x_min":27,"x_max":633,"o":"m 247 -17 q 86 37 145 -17 q 27 179 27 90 q 41 285 27 222 l 130 694 l 419 694 l 334 294 q 328 241 328 266 q 374 203 328 203 q 451 220 412 203 l 406 9 q 345 -8 387 0 q 247 -17 302 -17 m 364 777 l 144 777 l 374 994 l 633 994 l 364 777 z "},"ì":{"ha":428,"x_min":27,"x_max":453,"o":"m 247 -17 q 86 37 145 -17 q 27 179 27 90 q 41 285 27 222 l 130 694 l 419 694 l 334 294 q 328 241 328 266 q 374 203 328 203 q 451 220 412 203 l 406 9 q 345 -8 387 0 q 247 -17 302 -17 m 261 777 l 81 994 l 311 994 l 453 777 l 261 777 z "},"î":{"ha":428,"x_min":0,"x_max":563,"o":"m 247 -17 q 86 37 145 -17 q 27 179 27 90 q 41 285 27 222 l 130 694 l 419 694 l 334 294 q 328 241 328 266 q 374 203 328 203 q 451 220 412 203 l 406 9 q 345 -8 387 0 q 247 -17 302 -17 m 388 777 l 309 885 l 188 777 l 0 777 l 218 999 l 433 999 l 563 777 l 388 777 z "},"ï":{"ha":428,"x_min":-4,"x_max":597,"o":"m 247 -17 q 86 37 145 -17 q 27 179 27 90 q 41 285 27 222 l 130 694 l 419 694 l 334 294 q 328 241 328 266 q 374 203 328 203 q 451 220 412 203 l 406 9 q 345 -8 387 0 q 247 -17 302 -17 m 597 888 q 562 807 597 838 q 467 777 526 777 q 373 808 410 777 q 336 888 336 840 q 372 966 336 936 q 467 996 408 996 q 561 965 525 996 q 597 888 597 935 m 257 888 q 222 808 257 840 q 126 777 187 777 q 32 809 68 777 q -4 888 -4 841 q 32 966 -4 936 q 126 996 68 996 q 221 966 185 996 q 257 888 257 937 z "},"ñ":{"ha":869,"x_min":-7,"x_max":836,"o":"m 836 541 q 821 422 836 493 l 732 0 l 443 0 l 525 385 q 536 454 536 431 q 490 500 536 500 q 411 451 454 500 q 355 342 368 403 l 285 0 l -7 0 l 92 461 q 132 694 115 574 l 416 694 q 403 575 412 613 l 406 575 q 533 675 461 638 q 669 711 606 711 q 836 541 836 711 m 821 1017 q 622 786 778 786 q 560 795 585 786 q 515 815 535 804 q 477 835 495 826 q 437 844 459 844 q 392 829 410 844 q 365 777 375 814 l 233 777 q 303 948 253 889 q 430 1007 354 1007 q 494 998 469 1007 q 539 978 519 989 q 577 958 559 967 q 619 949 595 949 q 687 1017 673 949 l 821 1017 z "},"ó":{"ha":839,"x_min":34,"x_max":806,"o":"m 806 406 q 752 183 806 284 q 600 33 697 83 q 370 -17 502 -17 q 122 64 210 -17 q 34 290 34 144 q 65 458 34 376 q 152 596 96 540 q 289 682 208 652 q 474 711 370 711 q 720 632 633 711 q 806 406 806 552 m 519 406 q 499 476 519 452 q 446 500 479 500 q 381 471 409 500 q 337 392 353 442 q 321 288 321 341 q 341 218 321 241 q 395 195 361 195 q 485 254 451 195 q 519 406 519 314 m 532 777 l 311 777 l 541 994 l 801 994 l 532 777 z "},"ò":{"ha":839,"x_min":34,"x_max":806,"o":"m 806 406 q 752 183 806 284 q 600 33 697 83 q 370 -17 502 -17 q 122 64 210 -17 q 34 290 34 144 q 65 458 34 376 q 152 596 96 540 q 289 682 208 652 q 474 711 370 711 q 720 632 633 711 q 806 406 806 552 m 519 406 q 499 476 519 452 q 446 500 479 500 q 381 471 409 500 q 337 392 353 442 q 321 288 321 341 q 341 218 321 241 q 395 195 361 195 q 485 254 451 195 q 519 406 519 314 m 416 777 l 235 994 l 466 994 l 608 777 l 416 777 z "},"ô":{"ha":839,"x_min":34,"x_max":806,"o":"m 806 406 q 752 183 806 284 q 600 33 697 83 q 370 -17 502 -17 q 122 64 210 -17 q 34 290 34 144 q 65 458 34 376 q 152 596 96 540 q 289 682 208 652 q 474 711 370 711 q 720 632 633 711 q 806 406 806 552 m 519 406 q 499 476 519 452 q 446 500 479 500 q 381 471 409 500 q 337 392 353 442 q 321 288 321 341 q 341 218 321 241 q 395 195 361 195 q 485 254 451 195 q 519 406 519 314 m 580 777 l 500 885 l 380 777 l 192 777 l 410 999 l 625 999 l 755 777 l 580 777 z "},"ö":{"ha":839,"x_min":34,"x_max":806,"o":"m 806 406 q 752 183 806 284 q 600 33 697 83 q 370 -17 502 -17 q 122 64 210 -17 q 34 290 34 144 q 65 458 34 376 q 152 596 96 540 q 289 682 208 652 q 474 711 370 711 q 720 632 633 711 q 806 406 806 552 m 519 406 q 499 476 519 452 q 446 500 479 500 q 381 471 409 500 q 337 392 353 442 q 321 288 321 341 q 341 218 321 241 q 395 195 361 195 q 485 254 451 195 q 519 406 519 314 m 764 888 q 728 807 764 838 q 633 777 693 777 q 539 808 576 777 q 503 888 503 840 q 538 966 503 936 q 633 996 574 996 q 728 965 692 996 q 764 888 764 935 m 424 888 q 389 808 424 840 q 293 777 354 777 q 199 809 235 777 q 163 888 163 841 q 199 966 163 936 q 293 996 235 996 q 388 966 352 996 q 424 888 424 937 z "},"õ":{"ha":839,"x_min":34,"x_max":806,"o":"m 806 406 q 752 183 806 284 q 600 33 697 83 q 370 -17 502 -17 q 122 64 210 -17 q 34 290 34 144 q 65 458 34 376 q 152 596 96 540 q 289 682 208 652 q 474 711 370 711 q 720 632 633 711 q 806 406 806 552 m 519 406 q 499 476 519 452 q 446 500 479 500 q 381 471 409 500 q 337 392 353 442 q 321 288 321 341 q 341 218 321 241 q 395 195 361 195 q 485 254 451 195 q 519 406 519 314 m 797 1017 q 598 786 754 786 q 536 795 562 786 q 491 815 511 804 q 453 835 471 826 q 414 844 435 844 q 369 829 386 844 q 341 777 351 814 l 210 777 q 280 948 229 889 q 406 1007 330 1007 q 470 998 445 1007 q 515 978 495 989 q 553 958 535 967 q 595 949 571 949 q 663 1017 650 949 l 797 1017 z "},"ú":{"ha":869,"x_min":28,"x_max":868,"o":"m 746 0 l 453 0 q 464 114 458 79 l 461 114 q 332 16 400 48 q 197 -17 264 -17 q 28 154 28 -17 q 43 272 28 205 l 132 694 l 421 694 l 340 318 q 329 241 329 272 q 339 217 329 228 q 370 207 349 207 q 459 257 419 207 q 514 382 499 308 l 579 694 l 868 694 l 775 258 q 754 123 762 197 q 746 0 746 50 m 549 777 l 328 777 l 558 994 l 818 994 l 549 777 z "},"ù":{"ha":869,"x_min":28,"x_max":868,"o":"m 746 0 l 453 0 q 464 114 458 79 l 461 114 q 332 16 400 48 q 197 -17 264 -17 q 28 154 28 -17 q 43 272 28 205 l 132 694 l 421 694 l 340 318 q 329 241 329 272 q 339 217 329 228 q 370 207 349 207 q 459 257 419 207 q 514 382 499 308 l 579 694 l 868 694 l 775 258 q 754 123 762 197 q 746 0 746 50 m 463 777 l 283 994 l 513 994 l 655 777 l 463 777 z "},"û":{"ha":869,"x_min":28,"x_max":868,"o":"m 746 0 l 453 0 q 464 114 458 79 l 461 114 q 332 16 400 48 q 197 -17 264 -17 q 28 154 28 -17 q 43 272 28 205 l 132 694 l 421 694 l 340 318 q 329 241 329 272 q 339 217 329 228 q 370 207 349 207 q 459 257 419 207 q 514 382 499 308 l 579 694 l 868 694 l 775 258 q 754 123 762 197 q 746 0 746 50 m 614 777 l 534 885 l 414 777 l 226 777 l 444 999 l 659 999 l 789 777 l 614 777 z "},"ü":{"ha":869,"x_min":28,"x_max":868,"o":"m 746 0 l 453 0 q 464 114 458 79 l 461 114 q 332 16 400 48 q 197 -17 264 -17 q 28 154 28 -17 q 43 272 28 205 l 132 694 l 421 694 l 340 318 q 329 241 329 272 q 339 217 329 228 q 370 207 349 207 q 459 257 419 207 q 514 382 499 308 l 579 694 l 868 694 l 775 258 q 754 123 762 197 q 746 0 746 50 m 822 888 q 787 807 822 838 q 692 777 751 777 q 598 808 635 777 q 561 888 561 840 q 597 966 561 936 q 692 996 633 996 q 786 965 750 996 q 822 888 822 935 m 482 888 q 447 808 482 840 q 351 777 412 777 q 257 809 294 777 q 221 888 221 841 q 257 966 221 936 q 351 996 293 996 q 446 966 410 996 q 482 888 482 937 z "},"†":{"ha":600,"x_min":87,"x_max":637,"o":"m 604 615 l 436 615 l 340 164 l 160 164 l 256 615 l 87 615 l 121 770 l 289 770 l 332 972 l 513 972 l 469 770 l 637 770 l 604 615 z "},"°":{"ha":536,"x_min":171,"x_max":554,"o":"m 554 803 q 529 709 554 753 q 458 641 503 666 q 363 615 413 615 q 227 670 283 615 q 171 803 171 724 q 226 934 171 880 q 363 989 281 989 q 498 935 442 989 q 554 803 554 880 m 433 803 q 413 855 433 834 q 363 876 393 876 q 310 855 331 876 q 289 803 289 834 q 311 750 289 772 q 363 728 332 728 q 413 750 392 728 q 433 803 433 772 z "},"¢":{"ha":832,"x_min":82,"x_max":765,"o":"m 722 585 q 655 606 701 597 q 559 614 609 614 q 408 563 465 614 q 351 427 351 513 q 392 340 351 372 q 498 309 433 309 q 583 319 537 309 q 667 349 628 329 l 624 149 q 489 104 559 117 l 461 -21 l 300 -21 l 326 103 q 145 195 208 121 q 82 383 82 269 q 131 588 82 494 q 270 742 180 682 q 479 819 360 802 l 510 965 l 671 965 l 640 822 q 765 789 713 815 l 722 585 m 322 972 z "},"£":{"ha":832,"x_min":7,"x_max":833,"o":"m 785 721 q 728 752 767 739 q 656 766 690 766 q 528 648 551 766 l 515 587 l 677 587 l 639 410 l 476 410 l 471 382 q 351 212 452 287 l 747 212 l 701 0 l 7 0 l 50 199 q 156 253 119 216 q 208 359 193 290 l 220 410 l 109 410 l 146 587 l 257 587 l 275 673 q 408 905 307 822 q 660 989 509 989 q 833 951 754 989 l 785 721 z "},"§":{"ha":721,"x_min":17,"x_max":714,"o":"m 679 789 q 583 827 640 812 q 479 843 526 843 q 403 794 403 843 q 426 749 403 768 q 528 694 449 729 q 640 618 604 662 q 676 515 676 574 q 658 432 676 469 q 612 366 640 395 q 529 302 584 337 q 558 251 546 282 q 570 189 570 220 q 532 70 570 123 q 426 -12 495 18 q 265 -41 356 -41 q 129 -25 200 -41 q 17 16 57 -9 l 56 197 q 273 127 164 127 q 336 143 312 127 q 361 183 361 159 q 276 268 361 231 q 175 326 209 297 q 123 391 141 355 q 106 471 106 427 q 119 549 106 516 q 154 606 132 582 q 233 665 176 630 q 200 730 209 703 q 192 787 192 757 q 230 903 192 852 q 337 983 268 955 q 498 1011 406 1011 q 714 966 619 1011 l 679 789 m 481 472 q 459 518 481 500 q 390 559 437 537 q 347 581 367 572 q 311 549 326 569 q 296 511 296 530 q 308 469 296 485 q 350 435 319 453 q 421 401 381 418 q 464 431 448 412 q 481 472 481 450 z "},"•":{"ha":600,"x_min":100,"x_max":494,"o":"m 494 330 q 467 232 494 278 q 394 159 440 186 q 296 132 347 132 q 158 190 216 132 q 100 330 100 248 q 157 469 100 412 q 296 526 214 526 q 437 468 380 526 q 494 330 494 409 z "},"¶":{"ha":778,"x_min":94,"x_max":736,"o":"m 663 831 l 663 0 l 509 0 l 509 831 l 441 831 l 441 0 l 288 0 l 288 525 q 149 598 203 534 q 94 751 94 662 q 124 866 94 814 q 205 945 154 917 q 319 972 257 972 l 736 972 l 736 831 l 663 831 z "},"ß":{"ha":954,"x_min":-7,"x_max":932,"o":"m 932 790 q 696 534 932 605 l 696 532 q 909 297 909 483 q 858 134 909 209 q 719 21 807 59 q 515 -17 630 -17 q 339 8 407 -17 l 386 221 q 490 195 427 195 q 580 228 545 195 q 615 307 615 260 q 567 391 615 362 q 428 419 519 419 l 468 611 q 592 648 547 611 q 637 749 637 685 q 613 810 637 787 q 549 833 589 833 q 476 800 508 833 q 431 699 445 766 l 282 0 l -7 0 l 136 675 q 284 953 176 861 q 572 1044 392 1044 q 768 1012 688 1044 q 890 922 848 979 q 932 790 932 865 z "},"­":{"ha":566,"x_min":77,"x_max":489,"o":"m 447 267 l 77 267 l 118 461 l 489 461 l 447 267 z "},"®":{"ha":1190,"x_min":171,"x_max":1020,"o":"m 1020 581 q 963 374 1020 469 q 807 227 906 279 q 593 174 709 174 q 377 225 474 174 q 225 370 280 277 q 171 578 171 463 q 227 786 171 691 q 382 933 283 880 q 598 986 480 986 q 813 934 716 986 q 965 789 910 882 q 1020 581 1020 696 m 928 578 q 885 748 928 671 q 766 866 842 824 q 595 908 690 908 q 425 865 502 908 q 305 746 349 822 q 262 579 262 669 q 305 411 262 486 q 426 295 349 336 q 595 253 503 253 q 763 295 686 253 q 885 413 841 338 q 928 578 928 488 m 651 339 l 622 471 q 583 517 612 517 l 544 517 l 544 339 l 399 339 l 399 830 l 598 830 q 753 794 699 830 q 808 686 808 759 q 701 560 808 593 l 701 557 q 769 493 751 547 l 821 339 l 651 339 m 650 669 q 635 701 650 688 q 589 714 621 714 l 544 714 l 544 621 l 600 621 q 636 634 623 621 q 650 669 650 647 z "},"©":{"ha":1190,"x_min":93,"x_max":1145,"o":"m 1145 488 q 1075 232 1145 349 q 882 49 1004 115 q 616 -17 760 -17 q 348 47 468 -17 q 160 227 227 111 q 93 484 93 342 q 162 740 93 624 q 353 922 231 856 q 623 989 474 989 q 890 925 770 989 q 1077 745 1010 861 q 1145 488 1145 629 m 1031 485 q 978 694 1031 601 q 831 840 926 787 q 619 892 736 892 q 408 839 503 892 q 260 691 313 785 q 207 485 207 597 q 260 278 207 371 q 409 133 313 185 q 619 81 504 81 q 827 134 731 81 q 977 280 922 187 q 1031 485 1031 373 m 828 220 q 643 175 741 175 q 477 214 551 175 q 361 321 403 252 q 319 473 319 390 q 415 709 319 620 q 665 799 511 799 q 828 760 747 799 l 828 567 q 758 602 800 588 q 669 616 716 616 q 569 578 609 616 q 529 481 529 541 q 571 389 529 425 q 673 353 614 353 q 828 401 764 353 l 828 220 z "},"™":{"ha":1069,"x_min":121,"x_max":1013,"o":"m 893 524 l 893 818 l 889 818 l 817 524 l 676 524 l 615 821 l 611 821 l 611 524 l 489 524 l 489 972 l 686 972 l 750 677 l 753 677 l 833 972 l 1013 972 l 1013 524 l 893 524 m 346 879 l 346 524 l 222 524 l 222 879 l 121 879 l 121 972 l 453 972 l 453 879 l 346 879 z "},"´":{"ha":694,"x_min":275,"x_max":765,"o":"m 496 777 l 275 777 l 505 994 l 765 994 l 496 777 z "},"¨":{"ha":694,"x_min":160,"x_max":761,"o":"m 761 888 q 726 807 761 838 q 631 777 690 777 q 537 808 574 777 q 500 888 500 840 q 536 966 500 936 q 631 996 572 996 q 725 965 689 996 q 761 888 761 935 m 421 888 q 386 808 421 840 q 290 777 351 777 q 196 809 233 777 q 160 888 160 841 q 196 966 160 936 q 290 996 232 996 q 385 966 349 996 q 421 888 421 937 z "},"≠":{"ha":993,"x_min":161,"x_max":833,"o":"m 481 160 l 396 0 l 182 0 l 267 160 l 161 160 l 161 328 l 355 328 l 421 452 l 161 452 l 161 619 l 510 619 l 607 806 l 821 806 l 724 619 l 833 619 l 833 452 l 635 452 l 570 328 l 833 328 l 833 160 l 481 160 z "},"Æ":{"ha":1390,"x_min":-110,"x_max":1428,"o":"m 1379 743 l 1067 743 l 1038 602 l 1331 602 l 1282 372 l 989 372 l 958 229 l 1293 229 l 1244 0 l 616 0 l 654 179 l 350 179 l 227 0 l -110 0 l 619 972 l 1428 972 l 1379 743 m 736 746 l 509 408 l 703 408 l 775 746 l 736 746 z "},"Ø":{"ha":1061,"x_min":25,"x_max":1059,"o":"m 964 833 q 1040 562 1040 727 q 970 264 1040 402 q 775 55 900 127 q 479 -17 651 -17 q 237 47 336 -17 l 123 -78 l 25 20 l 139 143 q 62 408 62 256 q 134 707 62 570 q 330 916 205 844 q 619 989 454 989 q 861 928 762 989 l 958 1032 l 1059 935 l 964 833 m 696 746 q 650 769 678 760 q 591 778 622 778 q 465 729 520 778 q 376 591 409 680 q 343 419 343 502 l 343 366 l 696 746 m 760 553 q 757 610 760 593 l 401 224 q 504 191 448 191 q 639 239 581 191 q 728 373 697 287 q 760 553 760 458 z "},"∞":{"ha":1122,"x_min":50,"x_max":1092,"o":"m 1092 386 q 1057 251 1092 313 q 961 152 1022 188 q 828 115 900 115 q 680 157 742 115 q 571 279 617 199 q 457 169 526 211 q 313 127 387 127 q 123 205 196 127 q 50 408 50 282 q 85 544 50 481 q 181 643 120 606 q 314 679 242 679 q 462 637 400 679 q 570 515 524 596 q 685 626 615 585 q 829 667 755 667 q 1019 589 946 667 q 1092 386 1092 512 m 890 389 q 862 459 890 433 q 789 486 834 486 q 663 390 718 486 q 729 313 701 332 q 791 294 757 294 q 861 322 831 294 q 890 389 890 349 m 479 404 q 413 481 441 462 q 350 500 385 500 q 280 472 309 500 q 252 406 252 444 q 280 336 252 363 q 353 309 308 309 q 479 404 422 309 z "},"±":{"ha":993,"x_min":161,"x_max":835,"o":"m 581 492 l 581 239 l 412 239 l 412 492 l 165 492 l 165 660 l 412 660 l 412 920 l 581 920 l 581 660 l 835 660 l 835 492 l 581 492 m 161 0 l 161 168 l 829 168 l 829 0 l 161 0 z "},"≤":{"ha":993,"x_min":182,"x_max":854,"o":"m 182 436 l 182 611 l 854 852 l 854 654 l 378 522 l 378 519 l 854 387 l 854 189 l 182 436 m 182 0 l 182 168 l 854 168 l 854 0 l 182 0 z "},"≥":{"ha":993,"x_min":182,"x_max":854,"o":"m 182 189 l 182 387 l 657 519 l 657 522 l 182 654 l 182 852 l 854 611 l 854 436 l 182 189 m 182 0 l 182 168 l 854 168 l 854 0 l 182 0 z "},"¥":{"ha":832,"x_min":36,"x_max":966,"o":"m 629 538 l 794 538 l 765 396 l 567 396 l 549 313 l 747 313 l 717 168 l 518 168 l 482 0 l 204 0 l 240 168 l 36 168 l 66 313 l 271 313 l 289 396 l 85 396 l 114 538 l 281 538 l 140 972 l 415 972 l 476 648 l 485 608 l 488 608 l 513 648 l 705 972 l 966 972 l 629 538 z "},"µ":{"ha":940,"x_min":-75,"x_max":906,"o":"m 488 125 q 393 29 450 66 q 277 -14 336 -8 l 214 -319 l -75 -319 l 139 694 l 428 694 l 347 318 q 338 245 338 261 q 376 207 338 207 q 466 256 426 207 q 521 382 506 306 l 586 694 l 875 694 l 789 294 q 783 241 783 266 q 829 203 783 203 q 906 220 867 203 l 861 9 q 800 -8 842 0 q 702 -17 758 -17 q 557 22 613 -17 q 491 125 501 60 l 488 125 z "},"∂":{"ha":846,"x_min":33,"x_max":832,"o":"m 832 615 q 772 273 832 419 q 603 55 712 127 q 343 -17 494 -17 q 114 59 194 -17 q 33 278 33 136 q 80 479 33 384 q 204 624 127 575 q 379 673 282 673 q 558 585 498 673 l 561 585 l 562 614 q 523 769 562 720 q 401 818 484 818 q 306 806 357 818 q 208 774 254 795 l 262 985 q 471 1023 370 1023 q 741 923 650 1023 q 832 615 832 823 m 517 412 q 491 469 509 449 q 444 489 472 489 q 382 459 411 489 q 336 379 354 429 q 318 286 318 330 q 336 216 318 238 q 383 195 355 195 q 463 254 427 195 q 517 412 499 313 m 214 694 z "},"∑":{"ha":921,"x_min":54,"x_max":921,"o":"m 54 -319 l 54 -157 l 433 334 l 69 802 l 69 972 l 897 972 l 897 743 l 478 743 l 768 340 l 460 -90 l 921 -90 l 921 -319 l 54 -319 z "},"∏":{"ha":1140,"x_min":117,"x_max":1080,"o":"m 787 -319 l 787 722 l 410 722 l 410 -319 l 117 -319 l 117 972 l 1080 972 l 1080 -319 l 787 -319 z "},"∫":{"ha":832,"x_min":115,"x_max":760,"o":"m 760 818 q 676 833 715 833 q 605 809 628 833 q 582 742 582 784 l 582 -50 q 543 -200 582 -135 q 428 -300 503 -264 q 245 -336 353 -336 q 179 -332 219 -336 q 115 -321 139 -328 l 115 -110 q 199 -125 158 -125 q 270 -100 247 -125 q 293 -33 293 -75 l 293 758 q 332 908 293 843 q 447 1008 372 972 q 629 1044 522 1044 q 760 1029 706 1044 l 760 818 z "},"ª":{"ha":672,"x_min":111,"x_max":720,"o":"m 636 485 l 428 485 l 433 551 l 435 572 l 432 572 q 261 472 361 472 q 150 522 189 472 q 111 664 111 572 q 157 828 111 749 q 283 947 202 907 q 469 986 363 986 q 595 978 524 986 q 720 957 665 970 l 656 657 q 642 571 648 622 q 636 485 636 521 m 488 852 q 458 857 467 857 q 385 832 416 857 q 337 765 354 806 q 319 681 319 723 q 332 637 319 651 q 364 623 345 623 q 468 772 433 623 l 488 852 z "},"º":{"ha":644,"x_min":94,"x_max":676,"o":"m 676 762 q 634 615 676 682 q 518 510 593 549 q 355 472 444 472 q 164 534 233 472 q 94 704 94 595 q 136 845 94 779 q 250 948 177 911 q 407 986 322 986 q 607 930 538 986 q 676 762 676 873 m 465 754 q 395 839 465 839 q 332 799 359 839 q 304 694 304 758 q 322 640 304 660 q 374 621 340 621 q 436 662 408 621 q 465 754 465 703 z "},"æ":{"ha":1229,"x_min":33,"x_max":1234,"o":"m 1234 504 q 1122 326 1234 383 q 786 261 1011 268 l 786 256 q 819 194 786 216 q 908 172 852 172 q 1027 189 958 172 q 1141 229 1095 206 l 1101 40 q 973 -1 1048 15 q 822 -17 898 -17 q 665 13 734 -17 q 555 106 595 43 l 553 106 q 429 11 493 38 q 278 -17 364 -17 q 151 16 208 -17 q 64 110 95 49 q 33 254 33 171 q 70 431 33 340 q 166 583 106 522 q 313 678 227 644 q 509 711 399 711 q 760 672 624 711 q 957 711 842 711 q 1161 658 1088 711 q 1234 504 1234 604 m 966 505 q 957 532 966 520 q 925 545 948 545 q 847 510 880 545 q 803 412 814 475 q 923 435 879 412 q 966 505 966 458 m 557 524 q 515 528 541 528 q 418 496 461 528 q 348 403 374 465 q 321 278 321 340 q 338 216 321 237 q 382 195 356 195 q 469 250 431 195 q 530 408 508 305 l 557 524 z "},"ø":{"ha":839,"x_min":5,"x_max":838,"o":"m 760 583 q 806 406 806 512 q 751 183 806 283 q 598 33 696 83 q 368 -17 500 -17 q 171 26 250 -17 l 86 -54 l 5 43 l 79 114 q 33 290 33 189 q 90 513 33 412 q 244 663 146 614 q 472 711 342 711 q 664 669 583 711 l 757 758 l 838 661 l 760 583 m 498 513 q 453 525 475 525 q 323 467 370 525 q 277 315 277 409 l 277 301 l 498 513 m 562 382 l 561 401 l 339 187 q 389 171 364 171 q 517 226 471 171 q 562 382 562 281 z "},"¿":{"ha":615,"x_min":-87,"x_max":541,"o":"m 541 585 q 493 480 541 520 q 370 440 446 440 q 259 476 302 440 q 216 566 216 511 q 264 671 216 631 q 389 711 311 711 q 499 676 457 711 q 541 585 541 640 m 215 -307 q -8 -246 71 -307 q -87 -69 -87 -184 q 121 220 -87 104 q 201 284 176 251 q 239 380 227 317 l 467 380 q 434 259 450 300 q 393 185 418 218 q 330 125 369 153 q 233 52 249 66 q 210 23 218 37 q 203 -8 203 9 q 228 -60 203 -43 q 298 -77 254 -77 q 515 -18 399 -77 l 464 -254 q 340 -293 410 -279 q 215 -307 271 -307 m 328 -319 z "},"¡":{"ha":484,"x_min":-46,"x_max":441,"o":"m 441 585 q 394 479 441 519 q 271 440 347 440 q 161 475 203 440 q 118 566 118 510 q 165 671 118 631 q 290 711 213 711 q 400 675 358 711 q 441 585 441 640 m 258 -278 l -46 -278 l 127 367 l 359 367 l 258 -278 z "},"¬":{"ha":993,"x_min":161,"x_max":833,"o":"m 665 160 l 665 392 l 161 392 l 161 559 l 833 559 l 833 160 l 665 160 z "},"√":{"ha":903,"x_min":66,"x_max":871,"o":"m 589 -1 l 411 -1 l 195 481 l 66 481 l 66 621 l 345 621 l 494 278 l 701 1028 l 871 1028 l 589 -1 z "},"ƒ":{"ha":832,"x_min":28,"x_max":828,"o":"m 789 783 q 708 802 745 802 q 608 711 634 802 l 593 654 l 718 654 l 673 476 l 551 476 l 463 104 q 353 -116 427 -44 q 158 -187 279 -187 q 28 -165 85 -187 l 58 0 q 114 -12 87 -12 q 175 10 152 -12 q 208 81 197 32 l 301 476 l 204 476 l 249 654 l 345 654 l 359 714 q 477 921 395 853 q 679 989 559 989 q 828 958 758 989 l 789 783 z "},"≈":{"ha":993,"x_min":132,"x_max":861,"o":"m 861 686 q 798 494 857 566 q 642 422 738 422 q 549 436 589 422 q 456 480 509 450 q 378 510 405 510 q 325 486 346 510 q 300 415 304 462 l 132 415 q 195 607 136 536 q 357 677 254 677 q 509 636 435 677 q 567 604 541 618 q 619 590 593 590 q 672 618 652 590 q 693 686 692 646 l 861 686 m 861 366 q 798 175 857 247 q 642 103 739 103 q 549 117 589 103 q 456 161 509 130 q 378 191 405 191 q 325 166 345 191 q 300 94 304 142 l 132 94 q 195 288 136 217 q 357 358 255 358 q 509 317 435 358 q 567 285 541 299 q 619 271 593 271 q 671 298 651 271 q 693 366 692 325 l 861 366 z "},"Δ":{"ha":1095,"x_min":-24,"x_max":994,"o":"m -24 0 l 0 111 l 505 972 l 869 972 l 994 111 l 971 0 l -24 0 m 643 683 l 646 736 l 647 750 l 640 750 q 602 657 631 712 l 371 229 l 692 229 l 644 652 l 643 683 z "},"«":{"ha":875,"x_min":22,"x_max":886,"o":"m 624 350 l 802 131 l 575 131 l 389 364 l 644 591 l 886 591 l 624 350 m 257 350 l 435 131 l 208 131 l 22 364 l 278 591 l 519 591 l 257 350 z "},"»":{"ha":875,"x_min":-11,"x_max":852,"o":"m 597 136 l 355 136 l 618 378 l 440 597 l 667 597 l 852 364 l 597 136 m 231 136 l -11 136 l 252 378 l 74 597 l 300 597 l 486 364 l 231 136 z "},"…":{"ha":1453,"x_min":36,"x_max":1326,"o":"m 1326 127 q 1279 23 1326 63 q 1156 -17 1232 -17 q 1046 18 1088 -17 q 1003 109 1003 53 q 1050 214 1003 174 q 1175 254 1097 254 q 1285 218 1243 254 q 1326 127 1326 182 m 843 127 q 796 22 843 62 q 672 -17 749 -17 q 562 18 605 -17 q 519 109 519 53 q 566 214 519 174 q 692 254 613 254 q 801 218 760 254 q 843 127 843 182 m 359 127 q 312 22 359 62 q 189 -17 265 -17 q 79 19 121 -17 q 36 109 36 54 q 83 214 36 174 q 208 254 131 254 q 318 218 276 254 q 359 127 359 182 z "},"À":{"ha":1042,"x_min":-64,"x_max":950,"o":"m 652 0 l 637 179 l 346 179 l 258 0 l -64 0 l 476 972 l 840 972 l 950 0 l 652 0 m 609 684 q 612 750 609 730 l 606 750 l 593 716 l 567 657 l 449 408 l 623 408 l 610 652 l 609 684 m 633 1062 l 452 1280 l 683 1280 l 825 1062 l 633 1062 z "},"Ã":{"ha":1042,"x_min":-64,"x_max":960,"o":"m 652 0 l 637 179 l 346 179 l 258 0 l -64 0 l 476 972 l 840 972 l 950 0 l 652 0 m 609 684 q 612 750 609 730 l 606 750 l 593 716 l 567 657 l 449 408 l 623 408 l 610 652 l 609 684 m 960 1302 q 762 1072 918 1072 q 700 1081 725 1072 q 655 1101 675 1090 q 617 1121 635 1112 q 577 1130 599 1130 q 532 1115 549 1130 q 505 1062 515 1099 l 373 1062 q 443 1234 393 1175 q 570 1293 494 1293 q 633 1283 608 1293 q 679 1263 659 1274 q 716 1243 699 1253 q 759 1234 734 1234 q 827 1302 813 1234 l 960 1302 z "},"Õ":{"ha":1061,"x_min":62,"x_max":1040,"o":"m 1040 562 q 970 264 1040 402 q 775 55 900 127 q 479 -17 651 -17 q 255 36 349 -17 q 112 186 161 90 q 62 408 62 283 q 134 707 62 570 q 330 916 205 844 q 619 989 454 989 q 928 875 815 989 q 1040 562 1040 761 m 729 553 q 692 688 729 642 q 586 734 655 734 q 475 692 522 734 q 400 573 427 649 q 374 415 374 498 q 411 279 374 325 q 514 233 448 233 q 623 271 575 233 q 700 387 671 309 q 729 553 729 465 m 933 1303 q 734 1073 890 1073 q 673 1082 698 1073 q 628 1102 648 1091 q 590 1122 608 1113 q 550 1131 572 1131 q 505 1116 522 1131 q 477 1063 488 1101 l 346 1063 q 416 1235 366 1176 q 543 1294 467 1294 q 606 1285 581 1294 q 651 1265 631 1276 q 689 1245 671 1254 q 732 1236 707 1236 q 800 1303 786 1236 l 933 1303 z "},"Œ":{"ha":1263,"x_min":62,"x_max":1326,"o":"m 1278 743 l 965 743 l 936 602 l 1229 602 l 1181 372 l 888 372 l 857 229 l 1192 229 l 1143 0 l 635 0 q 456 -17 553 -17 q 253 36 343 -17 q 113 188 163 90 q 62 418 62 287 q 127 714 62 584 q 310 917 193 844 q 597 989 428 989 q 755 972 688 989 l 1326 972 l 1278 743 m 665 713 q 639 727 659 720 q 586 734 618 734 q 479 696 525 734 q 404 575 434 658 q 374 408 374 493 q 411 279 374 324 q 514 233 448 233 q 567 240 545 233 l 665 713 z "},"œ":{"ha":1223,"x_min":33,"x_max":1227,"o":"m 1227 504 q 1118 326 1227 385 q 781 261 1008 268 l 781 256 q 814 194 781 216 q 903 172 847 172 q 1021 189 953 172 q 1136 229 1090 206 l 1096 40 q 856 -17 992 -17 q 713 9 779 -17 q 611 79 647 36 l 608 79 q 502 8 569 34 q 359 -17 435 -17 q 189 20 262 -17 q 75 130 117 56 q 33 292 33 203 q 82 506 33 408 q 218 657 131 603 q 418 711 305 711 q 561 686 499 711 q 671 603 623 660 l 673 603 q 798 683 727 655 q 946 711 868 711 q 1102 685 1040 711 q 1195 612 1163 659 q 1227 504 1227 566 m 961 505 q 952 532 961 520 q 920 545 943 545 q 842 510 875 545 q 798 412 809 475 q 917 435 873 412 q 961 505 961 458 m 518 406 q 498 476 518 452 q 446 500 479 500 q 380 471 408 500 q 337 392 353 442 q 321 288 321 341 q 341 218 321 241 q 395 195 361 195 q 484 254 450 195 q 518 406 518 314 z "},"–":{"ha":694,"x_min":-18,"x_max":718,"o":"m -18 267 l 24 461 l 718 461 l 676 267 l -18 267 z "},"—":{"ha":1389,"x_min":-18,"x_max":1413,"o":"m -18 267 l 24 461 l 1413 461 l 1371 267 l -18 267 z "},"“":{"ha":806,"x_min":175,"x_max":787,"o":"m 705 694 l 484 694 l 618 996 l 787 996 l 705 694 m 397 694 l 175 694 l 310 996 l 479 996 l 397 694 z "},"”":{"ha":806,"x_min":207,"x_max":818,"o":"m 682 694 l 514 694 l 597 996 l 818 996 l 682 694 m 375 694 l 207 694 l 290 996 l 511 996 l 375 694 z "},"‘":{"ha":498,"x_min":175,"x_max":481,"o":"m 399 694 l 175 694 l 310 996 l 481 996 l 399 694 z "},"’":{"ha":498,"x_min":207,"x_max":511,"o":"m 375 694 l 207 694 l 290 996 l 511 996 l 375 694 z "},"÷":{"ha":993,"x_min":165,"x_max":838,"o":"m 610 667 q 579 589 610 620 q 503 558 549 558 q 425 590 456 558 q 393 665 393 623 q 424 745 393 712 q 503 778 455 778 q 581 746 551 778 q 610 667 610 714 m 165 309 l 165 476 l 838 476 l 838 309 l 165 309 m 610 115 q 579 38 610 68 q 503 7 549 7 q 425 39 456 7 q 393 114 393 71 q 424 193 393 161 q 503 225 454 225 q 580 195 550 225 q 610 115 610 164 z "},"◊":{"ha":806,"x_min":45,"x_max":798,"o":"m 468 0 l 372 0 l 45 485 l 372 972 l 468 972 l 798 486 l 468 0 m 421 753 l 248 486 l 421 220 l 595 486 l 421 753 z "},"ÿ":{"ha":798,"x_min":-111,"x_max":868,"o":"m 49 -326 q -111 -298 -42 -326 l -64 -86 q 29 -115 -28 -115 q 150 -50 111 -115 l 184 7 l 43 694 l 346 694 l 374 359 q 378 260 378 313 l 376 233 l 379 233 q 404 300 389 263 q 571 694 418 337 l 868 694 l 465 -20 q 336 -207 393 -146 q 209 -296 278 -267 q 49 -326 139 -326 m 768 888 q 732 807 768 838 q 637 777 697 777 q 544 808 581 777 q 507 888 507 840 q 543 966 507 936 q 637 996 578 996 q 732 965 696 996 q 768 888 768 935 m 428 888 q 393 808 428 840 q 297 777 358 777 q 203 809 239 777 q 167 888 167 841 q 203 966 167 936 q 297 996 239 996 q 392 966 356 996 q 428 888 428 937 z "},"Ÿ":{"ha":903,"x_min":131,"x_max":1034,"o":"m 518 0 l 224 0 l 294 334 l 131 972 l 449 972 l 489 667 q 496 564 496 614 l 498 564 q 539 661 529 643 l 705 972 l 1034 972 l 589 338 l 518 0 m 894 1138 q 859 1058 894 1088 q 764 1027 823 1027 q 670 1058 707 1027 q 633 1138 633 1090 q 669 1216 633 1186 q 764 1246 705 1246 q 858 1216 822 1246 q 894 1138 894 1185 m 554 1138 q 519 1058 554 1090 q 423 1027 484 1027 q 329 1059 366 1027 q 293 1138 293 1091 q 329 1216 293 1186 q 423 1246 365 1246 q 518 1216 482 1246 q 554 1138 554 1187 z "},"∕":{"ha":339,"x_min":-353,"x_max":693,"o":"m -138 0 l -353 0 l 479 972 l 693 972 l -138 0 z "},"€":{"ha":832,"x_min":31,"x_max":875,"o":"m 829 730 l 804 753 q 676 798 751 798 q 546 763 602 798 q 454 663 489 728 l 713 663 l 682 521 l 393 521 q 384 477 387 498 q 378 437 381 457 l 665 437 l 635 293 l 380 293 q 429 204 391 236 q 529 172 467 172 q 621 186 576 172 q 724 236 666 199 l 682 28 q 575 -7 618 2 q 484 -17 532 -17 q 239 64 331 -17 q 134 293 148 144 l 31 293 l 61 437 l 129 437 q 133 477 132 454 q 140 521 135 499 l 78 521 l 109 663 l 183 663 q 378 903 248 817 q 677 989 509 989 q 801 978 747 989 q 875 951 854 967 l 829 730 z "},"‹":{"ha":509,"x_min":24,"x_max":521,"o":"m 258 350 l 436 131 l 210 131 l 24 364 l 279 591 l 521 591 l 258 350 z "},"›":{"ha":509,"x_min":-11,"x_max":486,"o":"m 231 136 l -11 136 l 252 378 l 74 597 l 300 597 l 486 364 l 231 136 z "},"ﬁ":{"ha":1026,"x_min":7,"x_max":1065,"o":"m 697 812 q 610 833 641 833 q 501 742 521 833 l 492 694 l 654 694 l 612 494 l 449 494 l 293 -231 l 7 -231 l 160 494 l 41 494 l 83 694 l 201 694 l 218 768 q 583 1044 279 1044 q 742 1023 672 1044 l 697 812 m 1065 889 q 1018 785 1065 825 q 894 745 970 745 q 783 780 826 745 q 741 869 741 816 q 788 975 741 935 q 913 1015 836 1015 q 1022 980 979 1015 q 1065 889 1065 945 m 842 -17 q 682 37 741 -17 q 623 179 623 90 q 637 285 623 222 l 726 694 l 1015 694 l 930 294 q 923 241 923 266 q 970 203 923 203 q 1046 220 1008 203 l 1002 9 q 940 -8 982 0 q 842 -17 898 -17 z "},"ﬂ":{"ha":1026,"x_min":7,"x_max":1088,"o":"m 697 812 q 610 833 641 833 q 501 742 521 833 l 492 694 l 654 694 l 612 494 l 449 494 l 293 -231 l 7 -231 l 160 494 l 41 494 l 83 694 l 201 694 l 218 768 q 583 1044 279 1044 q 742 1023 672 1044 l 697 812 m 845 -17 q 684 37 743 -17 q 625 179 625 90 q 640 285 625 222 l 800 1028 l 1088 1028 l 932 294 q 926 241 926 266 q 972 203 926 203 q 1049 220 1010 203 l 1004 9 q 943 -8 985 0 q 845 -17 901 -17 z "},"‡":{"ha":600,"x_min":37,"x_max":643,"o":"m 610 627 l 441 627 l 418 518 l 586 518 l 554 368 l 386 368 l 343 164 l 163 164 l 205 368 l 37 368 l 69 518 l 237 518 l 261 627 l 93 627 l 126 781 l 294 781 l 335 972 l 515 972 l 475 781 l 643 781 l 610 627 z "},"‚":{"ha":498,"x_min":24,"x_max":328,"o":"m 192 -153 l 24 -153 l 107 149 l 328 149 l 192 -153 z "},"„":{"ha":806,"x_min":24,"x_max":635,"o":"m 498 -153 l 330 -153 l 414 149 l 635 149 l 498 -153 m 192 -153 l 24 -153 l 107 149 l 328 149 l 192 -153 z "},"‰":{"ha":1800,"x_min":110,"x_max":1742,"o":"m 1742 282 q 1707 125 1742 195 q 1611 21 1672 56 q 1466 -14 1550 -14 q 1296 45 1358 -14 q 1234 199 1234 104 q 1270 355 1234 284 q 1369 459 1305 426 q 1515 493 1432 493 q 1681 437 1621 493 q 1742 282 1742 382 m 1189 282 q 1154 125 1189 195 q 1058 21 1120 56 q 913 -14 997 -14 q 743 45 806 -14 q 681 199 681 104 q 717 355 681 284 q 816 459 753 426 q 962 493 879 493 q 1128 437 1068 493 q 1189 282 1189 382 m 343 0 l 127 0 l 960 972 l 1174 972 l 343 0 m 618 775 q 583 618 618 689 q 486 513 547 547 q 340 479 425 479 q 172 538 233 479 q 110 692 110 597 q 146 848 110 777 q 245 952 182 919 q 392 986 308 986 q 558 930 498 986 q 618 775 618 873 m 1560 278 q 1544 329 1560 311 q 1504 347 1529 347 q 1440 307 1463 347 q 1417 201 1417 267 q 1432 152 1417 170 q 1472 134 1447 134 q 1536 174 1512 134 q 1560 278 1560 215 m 1007 278 q 991 329 1007 311 q 951 347 976 347 q 887 309 911 347 q 864 201 864 270 q 879 152 864 170 q 920 134 895 134 q 983 174 960 134 q 1007 278 1007 215 m 436 771 q 421 822 436 803 q 380 840 407 840 q 316 800 340 840 q 293 694 293 760 q 308 645 293 663 q 349 627 323 627 q 412 667 389 627 q 436 771 436 708 z "},"Â":{"ha":1042,"x_min":-64,"x_max":950,"o":"m 652 0 l 637 179 l 346 179 l 258 0 l -64 0 l 476 972 l 840 972 l 950 0 l 652 0 m 609 684 q 612 750 609 730 l 606 750 l 593 716 l 567 657 l 449 408 l 623 408 l 610 652 l 609 684 m 762 1062 l 683 1171 l 562 1062 l 374 1062 l 593 1284 l 808 1284 l 937 1062 l 762 1062 z "},"Ê":{"ha":766,"x_min":21,"x_max":832,"o":"m 783 743 l 471 743 l 441 602 l 734 602 l 686 372 l 393 372 l 363 229 l 697 229 l 648 0 l 21 0 l 227 972 l 832 972 l 783 743 m 633 1063 l 553 1171 l 433 1063 l 245 1063 l 463 1285 l 678 1285 l 808 1063 l 633 1063 z "},"Á":{"ha":1042,"x_min":-64,"x_max":950,"o":"m 652 0 l 637 179 l 346 179 l 258 0 l -64 0 l 476 972 l 840 972 l 950 0 l 652 0 m 609 684 q 612 750 609 730 l 606 750 l 593 716 l 567 657 l 449 408 l 623 408 l 610 652 l 609 684 m 677 1062 l 457 1062 l 687 1280 l 947 1280 l 677 1062 z "},"Ë":{"ha":766,"x_min":21,"x_max":844,"o":"m 783 743 l 471 743 l 441 602 l 734 602 l 686 372 l 393 372 l 363 229 l 697 229 l 648 0 l 21 0 l 227 972 l 832 972 l 783 743 m 844 1174 q 808 1094 844 1124 q 713 1063 773 1063 q 620 1094 656 1063 q 583 1174 583 1126 q 618 1252 583 1222 q 713 1282 654 1282 q 808 1252 772 1282 q 844 1174 844 1221 m 504 1174 q 469 1094 504 1126 q 373 1063 434 1063 q 279 1095 315 1063 q 243 1174 243 1127 q 279 1252 243 1222 q 373 1282 315 1282 q 468 1252 432 1282 q 504 1174 504 1223 z "},"È":{"ha":766,"x_min":21,"x_max":832,"o":"m 783 743 l 471 743 l 441 602 l 734 602 l 686 372 l 393 372 l 363 229 l 697 229 l 648 0 l 21 0 l 227 972 l 832 972 l 783 743 m 482 1063 l 302 1280 l 532 1280 l 674 1063 l 482 1063 z "},"Í":{"ha":484,"x_min":20,"x_max":702,"o":"m 313 0 l 20 0 l 225 972 l 518 972 l 313 0 m 433 1063 l 212 1063 l 442 1280 l 702 1280 l 433 1063 z "},"Î":{"ha":484,"x_min":20,"x_max":658,"o":"m 313 0 l 20 0 l 225 972 l 518 972 l 313 0 m 483 1063 l 404 1172 l 283 1063 l 95 1063 l 313 1286 l 528 1286 l 658 1063 l 483 1063 z "},"Ï":{"ha":484,"x_min":20,"x_max":677,"o":"m 313 0 l 20 0 l 225 972 l 518 972 l 313 0 m 677 1174 q 642 1094 677 1124 q 547 1063 607 1063 q 453 1094 490 1063 q 416 1174 416 1126 q 452 1252 416 1222 q 547 1282 488 1282 q 642 1252 606 1282 q 677 1174 677 1221 m 338 1174 q 303 1094 338 1126 q 207 1063 268 1063 q 113 1095 149 1063 q 77 1174 77 1127 q 113 1252 77 1222 q 207 1282 149 1282 q 302 1252 266 1282 q 338 1174 338 1223 z "},"Ì":{"ha":484,"x_min":20,"x_max":546,"o":"m 313 0 l 20 0 l 225 972 l 518 972 l 313 0 m 354 1063 l 174 1280 l 404 1280 l 546 1063 l 354 1063 z "},"Ó":{"ha":1061,"x_min":62,"x_max":1040,"o":"m 1040 562 q 970 264 1040 402 q 775 55 900 127 q 479 -17 651 -17 q 255 36 349 -17 q 112 186 161 90 q 62 408 62 283 q 134 707 62 570 q 330 916 205 844 q 619 989 454 989 q 928 875 815 989 q 1040 562 1040 761 m 729 553 q 692 688 729 642 q 586 734 655 734 q 475 692 522 734 q 400 573 427 649 q 374 415 374 498 q 411 279 374 325 q 514 233 448 233 q 623 271 575 233 q 700 387 671 309 q 729 553 729 465 m 668 1063 l 448 1063 l 677 1280 l 937 1280 l 668 1063 z "},"Ô":{"ha":1061,"x_min":62,"x_max":1040,"o":"m 1040 562 q 970 264 1040 402 q 775 55 900 127 q 479 -17 651 -17 q 255 36 349 -17 q 112 186 161 90 q 62 408 62 283 q 134 707 62 570 q 330 916 205 844 q 619 989 454 989 q 928 875 815 989 q 1040 562 1040 761 m 729 553 q 692 688 729 642 q 586 734 655 734 q 475 692 522 734 q 400 573 427 649 q 374 415 374 498 q 411 279 374 325 q 514 233 448 233 q 623 271 575 233 q 700 387 671 309 q 729 553 729 465 m 714 1063 l 635 1171 l 514 1063 l 326 1063 l 545 1285 l 760 1285 l 889 1063 l 714 1063 z "},"Ò":{"ha":1061,"x_min":62,"x_max":1040,"o":"m 1040 562 q 970 264 1040 402 q 775 55 900 127 q 479 -17 651 -17 q 255 36 349 -17 q 112 186 161 90 q 62 408 62 283 q 134 707 62 570 q 330 916 205 844 q 619 989 454 989 q 928 875 815 989 q 1040 562 1040 761 m 729 553 q 692 688 729 642 q 586 734 655 734 q 475 692 522 734 q 400 573 427 649 q 374 415 374 498 q 411 279 374 325 q 514 233 448 233 q 623 271 575 233 q 700 387 671 309 q 729 553 729 465 m 570 1063 l 389 1280 l 620 1280 l 762 1063 l 570 1063 z "},"Ú":{"ha":1025,"x_min":89,"x_max":1071,"o":"m 464 -17 q 186 70 283 -17 q 89 322 89 157 q 113 503 89 384 l 212 972 l 507 972 l 406 500 q 390 422 397 459 q 382 357 382 385 q 412 266 382 298 q 497 233 442 233 q 599 277 561 233 q 659 421 637 321 l 777 972 l 1071 972 l 950 404 q 853 151 913 238 q 697 23 792 63 q 464 -17 602 -17 m 721 1063 l 500 1063 l 730 1280 l 990 1280 l 721 1063 z "},"Û":{"ha":1025,"x_min":89,"x_max":1071,"o":"m 464 -17 q 186 70 283 -17 q 89 322 89 157 q 113 503 89 384 l 212 972 l 507 972 l 406 500 q 390 422 397 459 q 382 357 382 385 q 412 266 382 298 q 497 233 442 233 q 599 277 561 233 q 659 421 637 321 l 777 972 l 1071 972 l 950 404 q 853 151 913 238 q 697 23 792 63 q 464 -17 602 -17 m 755 1063 l 675 1171 l 555 1063 l 367 1063 l 585 1285 l 800 1285 l 930 1063 l 755 1063 z "},"Ù":{"ha":1025,"x_min":89,"x_max":1071,"o":"m 464 -17 q 186 70 283 -17 q 89 322 89 157 q 113 503 89 384 l 212 972 l 507 972 l 406 500 q 390 422 397 459 q 382 357 382 385 q 412 266 382 298 q 497 233 442 233 q 599 277 561 233 q 659 421 637 321 l 777 972 l 1071 972 l 950 404 q 853 151 913 238 q 697 23 792 63 q 464 -17 602 -17 m 600 1063 l 419 1280 l 650 1280 l 791 1063 l 600 1063 z "},"ı":{"ha":428,"x_min":27,"x_max":451,"o":"m 247 -17 q 86 37 145 -17 q 27 179 27 90 q 41 285 27 222 l 130 694 l 419 694 l 334 294 q 328 241 328 266 q 374 203 328 203 q 451 220 412 203 l 406 9 q 345 -8 387 0 q 247 -17 302 -17 z "},"ˆ":{"ha":694,"x_min":151,"x_max":714,"o":"m 539 777 l 460 885 l 339 777 l 151 777 l 370 999 l 585 999 l 714 777 l 539 777 z "},"˜":{"ha":694,"x_min":164,"x_max":751,"o":"m 751 1017 q 553 786 709 786 q 491 795 516 786 q 446 815 466 804 q 408 835 426 826 q 368 844 390 844 q 323 829 340 844 q 296 777 306 814 l 164 777 q 234 948 184 889 q 361 1007 285 1007 q 425 998 399 1007 q 470 978 450 989 q 508 958 490 967 q 550 949 526 949 q 618 1017 604 949 l 751 1017 z "},"ˉ":{"ha":694,"x_min":210,"x_max":686,"o":"m 210 777 l 242 928 l 686 928 l 654 777 l 210 777 z "},"˘":{"ha":694,"x_min":260,"x_max":715,"o":"m 715 1011 q 612 837 682 897 q 439 777 541 777 q 308 823 355 777 q 260 953 260 870 q 268 1011 260 974 l 407 1011 l 403 986 q 421 940 403 954 q 464 926 439 926 q 571 1011 541 926 l 715 1011 z "},"˙":{"ha":694,"x_min":330,"x_max":591,"o":"m 591 888 q 555 807 591 838 q 461 777 519 777 q 367 808 404 777 q 330 888 330 840 q 367 966 330 937 q 461 996 403 996 q 556 966 520 996 q 591 888 591 937 z "},"˚":{"ha":694,"x_min":292,"x_max":654,"o":"m 654 936 q 603 820 654 864 q 471 777 552 777 q 342 821 393 777 q 292 936 292 865 q 315 1020 292 985 q 380 1075 338 1056 q 471 1095 421 1095 q 605 1051 555 1095 q 654 936 654 1007 m 536 936 q 520 974 536 958 q 471 990 505 990 q 427 974 444 990 q 410 936 410 958 q 427 897 410 913 q 471 882 444 882 q 517 897 498 882 q 536 936 536 912 z "},"¸":{"ha":694,"x_min":81,"x_max":419,"o":"m 419 -158 q 389 -242 419 -203 q 303 -302 358 -280 q 172 -323 249 -323 q 81 -317 119 -323 l 109 -200 q 164 -207 134 -207 q 219 -195 199 -207 q 239 -165 239 -183 q 165 -125 239 -125 l 136 -126 l 165 0 l 301 0 l 290 -45 q 389 -78 358 -50 q 419 -158 419 -106 z "},"˝":{"ha":694,"x_min":135,"x_max":846,"o":"m 669 777 l 464 777 l 611 996 l 846 996 l 669 777 m 340 777 l 135 777 l 282 996 l 517 996 l 340 777 z "},"˛":{"ha":694,"x_min":86,"x_max":366,"o":"m 342 0 q 270 -79 288 -53 q 252 -125 252 -105 q 301 -171 252 -171 q 366 -157 332 -171 l 340 -268 q 237 -289 298 -289 q 125 -258 163 -289 q 86 -172 86 -227 q 113 -92 86 -130 q 211 0 140 -54 l 342 0 z "},"ˇ":{"ha":694,"x_min":208,"x_max":771,"o":"m 553 777 l 338 777 l 208 999 l 383 999 l 463 890 l 583 999 l 771 999 l 553 777 z "},"Ł":{"ha":751,"x_min":-35,"x_max":697,"o":"m 648 0 l 21 0 l 79 275 l -35 231 l 14 460 l 127 504 l 227 972 l 519 972 l 447 629 l 639 704 l 590 475 l 399 400 l 363 229 l 697 229 l 648 0 z "},"ł":{"ha":486,"x_min":-29,"x_max":494,"o":"m 250 -17 q 90 37 149 -17 q 31 179 31 90 q 43 279 31 223 l -29 241 l 17 460 l 91 499 l 205 1028 l 494 1028 l 417 669 l 494 710 l 449 492 l 371 452 l 338 294 q 331 241 331 266 q 378 203 331 203 q 454 220 416 203 l 410 9 q 348 -8 390 0 q 250 -17 306 -17 z "},"Š":{"ha":794,"x_min":17,"x_max":862,"o":"m 768 699 q 640 755 696 739 q 525 771 583 771 q 452 751 479 771 q 425 700 425 732 q 447 648 425 670 q 541 587 469 627 q 702 461 656 526 q 747 297 747 397 q 695 129 747 203 q 550 19 642 55 q 330 -17 457 -17 q 158 4 238 -17 q 17 57 77 24 l 68 297 q 330 201 197 201 q 436 277 436 201 q 410 333 436 311 q 318 386 384 356 q 161 502 208 437 q 114 665 114 566 q 165 836 114 760 q 307 950 217 912 q 514 989 396 989 q 682 972 608 989 q 817 933 756 955 l 768 699 m 644 1020 l 429 1020 l 299 1242 l 474 1242 l 553 1134 l 674 1242 l 862 1242 l 644 1020 z "},"š":{"ha":660,"x_min":-3,"x_max":744,"o":"m 606 489 q 519 517 570 504 q 427 530 468 530 q 364 492 364 530 q 380 461 364 471 q 421 440 395 451 q 536 381 502 408 q 587 320 570 355 q 603 231 603 284 q 560 101 603 157 q 436 14 517 45 q 239 -17 355 -17 q 106 -7 170 -17 q -3 17 42 3 l 35 216 q 249 161 155 161 q 334 205 334 161 q 315 238 334 225 q 268 260 296 250 q 125 342 166 293 q 83 468 83 391 q 126 597 83 541 q 245 683 170 654 q 424 711 321 711 q 540 702 473 711 q 643 684 607 693 l 606 489 m 526 777 l 311 777 l 181 999 l 356 999 l 435 890 l 556 999 l 744 999 l 526 777 z "},"Ž":{"ha":890,"x_min":-33,"x_max":974,"o":"m 401 229 l 831 229 l 782 0 l -33 0 l 9 205 l 561 743 l 151 743 l 200 972 l 974 972 l 930 768 l 401 229 m 696 1040 l 481 1040 l 351 1262 l 526 1262 l 606 1154 l 726 1262 l 914 1262 l 696 1040 z "},"ž":{"ha":724,"x_min":-56,"x_max":798,"o":"m 385 200 l 663 200 l 621 0 l -56 0 l -28 135 l 361 494 l 79 494 l 121 694 l 762 694 l 726 524 l 385 200 m 580 777 l 365 777 l 235 999 l 410 999 l 490 890 l 610 999 l 798 999 l 580 777 z "},"¦":{"ha":553,"x_min":119,"x_max":412,"o":"m 191 446 l 191 1063 l 412 1063 l 412 446 l 191 446 m 191 -326 l 191 307 l 412 307 l 412 -326 l 191 -326 m 119 1044 z "},"Ð":{"ha":1079,"x_min":-14,"x_max":1059,"o":"m 1059 578 q 986 271 1059 405 q 784 69 914 138 q 475 0 653 0 l 21 0 l 100 372 l -14 372 l 35 602 l 149 602 l 227 972 l 614 972 q 946 869 833 972 q 1059 578 1059 765 m 747 555 q 698 696 747 650 q 546 743 648 743 l 471 743 l 440 602 l 603 602 l 554 372 l 393 372 l 363 229 l 461 229 q 671 317 595 229 q 747 555 747 405 z "},"ð":{"ha":839,"x_min":33,"x_max":806,"o":"m 607 896 q 752 703 699 818 q 806 469 806 589 q 753 215 806 326 q 600 44 700 104 q 370 -17 500 -17 q 122 67 210 -17 q 33 302 33 151 q 81 508 33 413 q 212 657 128 603 q 397 711 296 711 q 464 698 437 711 q 514 661 491 684 l 517 661 q 470 748 504 700 q 407 822 436 795 l 207 745 l 151 842 l 317 904 q 168 1028 199 1006 l 453 1028 l 467 1019 q 519 981 505 994 l 704 1054 l 755 954 l 607 896 m 518 408 q 499 476 518 453 q 446 500 480 500 q 380 471 408 500 q 337 392 353 442 q 321 288 321 341 q 339 218 321 241 q 392 195 358 195 q 483 255 447 195 q 518 408 518 316 z "},"Ý":{"ha":903,"x_min":131,"x_max":1034,"o":"m 518 0 l 224 0 l 294 334 l 131 972 l 449 972 l 489 667 q 496 564 496 614 l 498 564 q 539 661 529 643 l 705 972 l 1034 972 l 589 338 l 518 0 m 654 1063 l 434 1063 l 664 1280 l 924 1280 l 654 1063 z "},"ý":{"ha":798,"x_min":-111,"x_max":868,"o":"m 49 -326 q -111 -298 -42 -326 l -64 -86 q 29 -115 -28 -115 q 150 -50 111 -115 l 184 7 l 43 694 l 346 694 l 374 359 q 378 260 378 313 l 376 233 l 379 233 q 404 300 389 263 q 571 694 418 337 l 868 694 l 465 -20 q 336 -207 393 -146 q 209 -296 278 -267 q 49 -326 139 -326 m 523 777 l 302 777 l 532 994 l 792 994 l 523 777 z "},"Þ":{"ha":925,"x_min":21,"x_max":929,"o":"m 929 542 q 873 346 929 431 q 719 218 818 260 q 489 175 621 175 l 350 175 l 314 0 l 21 0 l 227 972 l 519 972 l 490 835 l 590 835 q 842 760 755 835 q 929 542 929 684 m 618 521 q 587 598 618 570 q 497 625 557 625 l 446 625 l 396 385 l 478 385 q 579 423 541 385 q 618 521 618 461 z "},"þ":{"ha":876,"x_min":-72,"x_max":843,"o":"m 843 460 q 784 209 843 319 q 619 41 725 99 q 372 -17 513 -17 q 326 -15 363 -17 q 286 -11 290 -13 l 218 -319 l -72 -319 l 214 1028 l 503 1028 l 440 733 q 396 571 423 652 l 399 571 q 639 711 494 711 q 787 642 731 711 q 843 460 843 572 m 555 415 q 490 500 555 500 q 408 445 446 500 q 346 286 370 391 l 319 171 q 363 167 344 167 q 499 239 444 167 q 555 415 555 312 z "},"−":{"ha":993,"x_min":171,"x_max":843,"o":"m 171 309 l 171 476 l 843 476 l 843 309 l 171 309 z "},"×":{"ha":993,"x_min":157,"x_max":854,"o":"m 734 45 l 507 275 l 279 45 l 158 164 l 386 390 l 157 621 l 272 742 l 507 511 l 741 742 l 851 614 l 625 390 l 854 163 l 734 45 z "},"½":{"ha":1353,"x_min":121,"x_max":1323,"o":"m 188 396 l 274 810 q 195 773 233 787 q 121 753 157 760 l 150 895 q 203 907 174 898 q 263 929 233 916 q 321 958 293 943 q 370 986 349 972 l 487 986 l 364 396 l 188 396 m 398 0 l 183 0 l 1015 972 l 1229 972 l 398 0 m 808 0 l 820 61 q 854 141 829 108 q 910 200 878 175 q 977 246 942 226 q 1044 287 1013 267 q 1098 332 1075 308 q 1127 389 1120 356 q 1128 393 1128 391 q 1128 397 1128 395 q 1114 426 1128 414 q 1072 437 1101 437 q 1004 423 1045 437 q 922 382 963 409 l 957 549 q 1046 580 1002 570 q 1140 590 1091 590 q 1220 581 1185 590 q 1277 553 1254 571 q 1312 511 1300 536 q 1323 458 1323 487 q 1319 422 1323 440 q 1286 338 1309 374 q 1235 275 1263 302 q 1176 229 1206 248 q 1119 195 1145 210 q 1075 170 1093 180 q 1055 149 1057 159 l 1055 146 l 1271 146 l 1241 0 l 808 0 z "},"¼":{"ha":1310,"x_min":121,"x_max":1247,"o":"m 188 396 l 274 810 q 195 773 233 787 q 121 753 157 760 l 150 895 q 203 907 174 898 q 263 929 233 916 q 321 958 293 943 q 370 986 349 972 l 487 986 l 364 396 l 188 396 m 398 0 l 183 0 l 1015 972 l 1229 972 l 398 0 m 1217 106 l 1149 106 l 1127 0 l 964 0 l 985 106 l 724 106 l 749 227 q 830 309 792 267 q 904 394 869 351 q 974 484 940 438 q 1042 576 1008 530 l 1247 576 l 1177 238 l 1244 238 l 1217 106 m 1013 238 l 1052 422 q 1041 406 1049 418 q 1020 377 1033 394 q 992 341 1008 361 q 961 302 977 321 q 928 267 945 283 q 899 238 912 250 l 1013 238 z "},"¾":{"ha":1311,"x_min":54,"x_max":1252,"o":"m 86 554 q 156 530 109 541 q 244 518 203 518 q 318 535 295 518 q 341 576 341 552 q 320 609 341 598 q 245 620 299 620 l 163 620 l 193 756 l 277 756 q 348 771 322 756 q 374 808 374 787 q 299 850 374 850 q 230 842 266 850 q 167 823 193 834 l 198 959 q 370 986 274 986 q 510 946 458 986 q 562 840 562 905 q 525 746 562 786 q 425 692 488 707 l 425 690 q 500 647 474 680 q 526 561 526 614 q 493 468 526 509 q 399 405 460 427 q 250 382 337 382 q 144 391 201 382 q 54 414 87 400 l 86 554 m 380 0 l 165 0 l 998 972 l 1211 972 l 380 0 m 1221 106 l 1154 106 l 1132 0 l 968 0 l 990 106 l 729 106 l 754 227 q 835 309 797 267 q 909 394 873 351 q 979 484 945 438 q 1046 576 1013 530 l 1252 576 l 1181 238 l 1249 238 l 1221 106 m 1018 238 l 1057 422 q 1046 406 1054 418 q 1025 377 1038 394 q 997 341 1013 361 q 965 302 981 321 q 933 267 949 283 q 903 238 917 250 l 1018 238 z "},"₣":{"ha":751,"x_min":-33,"x_max":839,"o":"m 342 123 l 315 0 l 23 0 l 49 123 l -33 123 l -2 268 l 79 268 l 229 972 l 839 972 l 790 743 l 473 743 l 441 589 l 730 589 l 681 359 l 392 359 l 372 268 l 561 268 l 530 123 l 342 123 z "},"Ğ":{"ha":1015,"x_min":62,"x_max":1000,"o":"m 943 688 q 828 734 893 717 q 703 751 764 751 q 461 664 548 751 q 374 421 374 576 q 422 270 374 323 q 558 216 470 216 q 619 224 589 216 l 650 366 l 471 366 l 518 587 l 990 587 l 879 64 q 515 -17 713 -17 q 181 96 300 -17 q 62 416 62 210 q 143 713 62 581 q 368 918 223 846 q 708 989 513 989 q 1000 940 844 989 l 943 688 m 977 1297 q 873 1123 943 1183 q 700 1063 802 1063 q 569 1109 616 1063 q 521 1239 521 1156 q 529 1297 521 1260 l 668 1297 l 664 1272 q 682 1226 664 1240 q 725 1213 700 1213 q 832 1297 802 1213 l 977 1297 z "},"ğ":{"ha":876,"x_min":-18,"x_max":875,"o":"m 215 -326 q -18 -279 97 -326 l 29 -60 q 132 -109 77 -92 q 236 -126 186 -126 q 385 -80 333 -126 q 457 60 437 -34 l 468 113 l 465 113 q 368 16 425 50 q 245 -17 311 -17 q 90 54 146 -17 q 33 244 33 124 q 96 492 33 383 q 269 656 159 602 q 524 711 378 711 q 697 700 604 711 q 875 669 790 689 l 757 111 q 657 -146 722 -56 q 484 -281 592 -237 q 215 -326 376 -326 m 557 524 q 510 528 541 528 q 415 494 458 528 q 346 402 372 460 q 321 278 321 343 q 338 216 321 237 q 382 195 356 195 q 468 249 429 195 q 530 408 507 304 l 557 524 m 831 1011 q 728 837 798 897 q 555 777 657 777 q 424 823 471 777 q 376 953 376 870 q 384 1011 376 974 l 523 1011 l 519 986 q 537 940 519 954 q 580 926 555 926 q 687 1011 657 926 l 831 1011 z "},"İ":{"ha":484,"x_min":20,"x_max":530,"o":"m 313 0 l 20 0 l 225 972 l 518 972 l 313 0 m 530 1174 q 494 1094 530 1124 q 399 1063 458 1063 q 306 1095 342 1063 q 269 1174 269 1126 q 305 1252 269 1223 q 399 1282 341 1282 q 494 1252 458 1282 q 530 1174 530 1223 z "},"Ş":{"ha":794,"x_min":17,"x_max":817,"o":"m 768 699 q 640 755 696 739 q 525 771 583 771 q 452 751 479 771 q 425 700 425 732 q 447 648 425 670 q 541 587 469 627 q 702 461 656 526 q 747 297 747 397 q 695 129 747 203 q 550 19 642 55 q 330 -17 457 -17 q 158 4 238 -17 q 17 57 77 24 l 68 297 q 330 201 197 201 q 436 277 436 201 q 410 333 436 311 q 318 386 384 356 q 161 502 208 437 q 114 665 114 566 q 165 836 114 760 q 307 950 217 912 q 514 989 396 989 q 682 972 608 989 q 817 933 756 955 l 768 699 m 487 -158 q 456 -242 487 -203 q 371 -302 426 -280 q 240 -323 317 -323 q 149 -317 186 -323 l 176 -200 q 232 -207 202 -207 q 287 -195 267 -207 q 307 -165 307 -183 q 233 -125 307 -125 l 204 -126 l 233 0 l 369 0 l 358 -45 q 456 -78 426 -50 q 487 -158 487 -106 z "},"ş":{"ha":660,"x_min":-3,"x_max":643,"o":"m 606 489 q 519 517 570 504 q 427 530 468 530 q 364 492 364 530 q 380 461 364 471 q 421 440 395 451 q 536 381 502 408 q 587 320 570 355 q 603 231 603 284 q 560 101 603 157 q 436 14 517 45 q 239 -17 355 -17 q 106 -7 170 -17 q -3 17 42 3 l 35 216 q 249 161 155 161 q 334 205 334 161 q 315 238 334 225 q 268 260 296 250 q 125 342 166 293 q 83 468 83 391 q 126 597 83 541 q 245 683 170 654 q 424 711 321 711 q 540 702 473 711 q 643 684 607 693 l 606 489 m 404 -158 q 373 -242 404 -203 q 288 -302 342 -280 q 157 -323 233 -323 q 65 -317 103 -323 l 93 -200 q 149 -207 119 -207 q 203 -195 184 -207 q 223 -165 223 -183 q 150 -125 223 -125 l 121 -126 l 150 0 l 286 0 l 275 -45 q 373 -78 342 -50 q 404 -158 404 -106 z "},"Ć":{"ha":875,"x_min":56,"x_max":990,"o":"m 878 688 q 787 721 836 707 q 667 734 737 734 q 507 695 574 734 q 403 584 439 655 q 367 427 367 513 q 422 284 367 336 q 581 233 477 233 q 684 248 627 233 q 794 289 741 263 l 736 21 q 503 -17 630 -17 q 172 94 288 -17 q 56 400 56 204 q 135 713 56 576 q 357 920 214 850 q 692 989 500 989 q 822 979 753 989 q 937 956 890 969 l 878 688 m 721 1063 l 500 1063 l 730 1281 l 990 1281 l 721 1063 z "},"ć":{"ha":659,"x_min":33,"x_max":808,"o":"m 628 471 q 509 500 583 500 q 375 444 430 500 q 321 304 321 387 q 436 195 321 195 q 509 204 469 195 q 581 232 549 214 l 541 35 q 434 -4 492 9 q 322 -17 376 -17 q 110 59 187 -17 q 33 269 33 136 q 92 493 33 391 q 255 653 151 595 q 490 711 359 711 q 675 675 602 711 l 628 471 m 539 777 l 319 777 l 549 994 l 808 994 l 539 777 z "},"Č":{"ha":875,"x_min":56,"x_max":973,"o":"m 878 688 q 787 721 836 707 q 667 734 737 734 q 507 695 574 734 q 403 584 439 655 q 367 427 367 513 q 422 284 367 336 q 581 233 477 233 q 684 248 627 233 q 794 289 741 263 l 736 21 q 503 -17 630 -17 q 172 94 288 -17 q 56 400 56 204 q 135 713 56 576 q 357 920 214 850 q 692 989 500 989 q 822 979 753 989 q 937 956 890 969 l 878 688 m 755 1063 l 540 1063 l 410 1285 l 585 1285 l 665 1177 l 785 1285 l 973 1285 l 755 1063 z "},"č":{"ha":659,"x_min":33,"x_max":791,"o":"m 628 471 q 509 500 583 500 q 375 444 430 500 q 321 304 321 387 q 436 195 321 195 q 509 204 469 195 q 581 232 549 214 l 541 35 q 434 -4 492 9 q 322 -17 376 -17 q 110 59 187 -17 q 33 269 33 136 q 92 493 33 391 q 255 653 151 595 q 490 711 359 711 q 675 675 602 711 l 628 471 m 572 777 l 357 777 l 228 999 l 403 999 l 482 890 l 603 999 l 791 999 l 572 777 z "},"¯":{"ha":694,"x_min":227,"x_max":671,"o":"m 227 777 l 227 928 l 671 928 l 671 777 l 227 777 z "},"∙":{"ha":444,"x_min":119,"x_max":382,"o":"m 382 489 q 342 403 382 435 q 243 372 303 372 q 154 399 189 372 q 119 473 119 427 q 158 558 119 525 q 260 591 197 591 q 347 563 313 591 q 382 489 382 534 z "},"Ă":{"ha":1042,"x_min":-64,"x_max":950,"o":"m 652 0 l 637 179 l 346 179 l 258 0 l -64 0 l 476 972 l 840 972 l 950 0 l 652 0 m 609 684 q 612 750 609 730 l 606 750 l 593 716 l 567 657 l 449 408 l 623 408 l 610 652 l 609 684 m 935 1297 q 831 1123 901 1183 q 658 1063 760 1063 q 527 1109 574 1063 q 479 1239 479 1156 q 487 1297 479 1260 l 626 1297 l 622 1272 q 640 1226 622 1240 q 683 1213 658 1213 q 790 1297 760 1213 l 935 1297 z "},"ă":{"ha":876,"x_min":33,"x_max":875,"o":"m 758 0 l 472 0 q 482 123 472 22 l 479 123 q 248 -17 376 -17 q 89 54 145 -17 q 33 254 33 125 q 69 436 33 347 q 167 585 104 526 q 321 678 230 645 q 532 711 412 711 q 875 669 695 711 l 785 244 q 766 122 774 196 q 758 0 758 48 m 557 524 q 515 528 541 528 q 418 496 461 528 q 348 403 374 465 q 321 278 321 340 q 338 216 321 237 q 382 195 356 195 q 469 250 431 195 q 530 408 508 305 l 557 524 m 789 1011 q 686 837 756 897 q 513 777 615 777 q 381 823 429 777 q 334 953 334 870 q 342 1011 334 974 l 481 1011 l 477 986 q 495 940 477 954 q 538 926 513 926 q 645 1011 615 926 l 789 1011 z "},"Ą":{"ha":1042,"x_min":-64,"x_max":950,"o":"m 652 0 l 637 179 l 346 179 l 258 0 l -64 0 l 476 972 l 840 972 l 950 0 l 652 0 m 609 684 q 612 750 609 730 l 606 750 l 593 716 l 567 657 l 449 408 l 623 408 l 610 652 l 609 684 m 787 0 q 715 -79 733 -53 q 697 -125 697 -105 q 747 -171 697 -171 q 811 -157 777 -171 l 786 -268 q 683 -289 744 -289 q 570 -258 609 -289 q 532 -172 532 -227 q 558 -92 532 -130 q 656 0 585 -54 l 787 0 z "},"ą":{"ha":876,"x_min":33,"x_max":875,"o":"m 758 0 l 472 0 q 482 123 472 22 l 479 123 q 248 -17 376 -17 q 89 54 145 -17 q 33 254 33 125 q 69 436 33 347 q 167 585 104 526 q 321 678 230 645 q 532 711 412 711 q 875 669 695 711 l 785 244 q 766 122 774 196 q 758 0 758 48 m 557 524 q 515 528 541 528 q 418 496 461 528 q 348 403 374 465 q 321 278 321 340 q 338 216 321 237 q 382 195 356 195 q 469 250 431 195 q 530 408 508 305 l 557 524 m 601 0 q 529 -79 547 -53 q 511 -125 511 -105 q 560 -171 511 -171 q 625 -157 591 -171 l 600 -268 q 496 -289 557 -289 q 384 -258 422 -289 q 345 -172 345 -227 q 372 -92 345 -130 q 470 0 399 -54 l 601 0 z "},"Ď":{"ha":1079,"x_min":21,"x_max":1059,"o":"m 1059 578 q 986 271 1059 405 q 784 69 914 138 q 475 0 653 0 l 21 0 l 227 972 l 614 972 q 946 869 833 972 q 1059 578 1059 765 m 747 555 q 698 696 747 650 q 546 743 648 743 l 471 743 l 363 229 l 461 229 q 671 317 595 229 q 747 555 747 405 m 748 1063 l 533 1063 l 404 1285 l 578 1285 l 658 1177 l 779 1285 l 966 1285 l 748 1063 z "},"ď":{"ha":1158,"x_min":33,"x_max":1329,"o":"m 758 0 l 472 0 q 482 123 472 22 l 479 123 q 248 -17 378 -17 q 90 54 146 -17 q 33 250 33 124 q 93 491 33 385 q 262 654 153 596 q 505 711 371 711 q 552 709 515 711 q 593 705 590 707 l 663 1028 l 950 1028 l 785 244 q 766 122 774 196 q 758 0 758 48 m 557 524 q 514 528 532 528 q 417 496 460 528 q 348 402 374 465 q 321 278 321 338 q 339 216 321 237 q 383 195 357 195 q 468 249 430 195 q 530 408 507 304 l 557 524 m 1131 809 l 983 809 l 1086 1027 l 1329 1027 l 1131 809 z "},"Đ":{"ha":1079,"x_min":-14,"x_max":1059,"o":"m 1059 578 q 986 271 1059 405 q 784 69 914 138 q 475 0 653 0 l 21 0 l 100 372 l -14 372 l 35 602 l 149 602 l 227 972 l 614 972 q 946 869 833 972 q 1059 578 1059 765 m 747 555 q 698 696 747 650 q 546 743 648 743 l 471 743 l 440 602 l 603 602 l 554 372 l 393 372 l 363 229 l 461 229 q 671 317 595 229 q 747 555 747 405 z "},"Ę":{"ha":766,"x_min":21,"x_max":832,"o":"m 783 743 l 471 743 l 441 602 l 734 602 l 686 372 l 393 372 l 363 229 l 697 229 l 648 0 l 21 0 l 227 972 l 832 972 l 783 743 m 564 0 q 492 -79 510 -53 q 474 -125 474 -105 q 524 -171 474 -171 q 588 -157 554 -171 l 563 -268 q 460 -289 521 -289 q 347 -258 386 -289 q 309 -172 309 -227 q 335 -92 309 -130 q 433 0 362 -54 l 564 0 z "},"ę":{"ha":753,"x_min":33,"x_max":757,"o":"m 757 504 q 647 326 757 385 q 310 261 538 268 l 310 256 q 343 194 310 216 q 432 172 376 172 q 551 189 481 172 q 665 229 621 206 l 625 40 q 497 -1 572 15 q 346 -17 421 -17 q 117 60 200 -17 q 33 272 33 138 q 91 497 33 394 q 249 656 148 600 q 481 711 349 711 q 685 658 612 711 q 757 504 757 604 m 490 505 q 481 532 490 520 q 449 545 472 545 q 371 510 404 545 q 326 412 338 475 q 447 435 403 412 q 490 505 490 458 m 430 0 q 358 -79 376 -53 q 340 -125 340 -105 q 389 -171 340 -171 q 454 -157 420 -171 l 429 -268 q 326 -289 387 -289 q 213 -258 252 -289 q 174 -172 174 -227 q 201 -92 174 -130 q 299 0 228 -54 l 430 0 z "},"Ě":{"ha":766,"x_min":21,"x_max":856,"o":"m 783 743 l 471 743 l 441 602 l 734 602 l 686 372 l 393 372 l 363 229 l 697 229 l 648 0 l 21 0 l 227 972 l 832 972 l 783 743 m 637 1063 l 422 1063 l 293 1285 l 468 1285 l 547 1177 l 668 1285 l 856 1285 l 637 1063 z "},"ě":{"ha":753,"x_min":33,"x_max":798,"o":"m 757 504 q 647 326 757 385 q 310 261 538 268 l 310 256 q 343 194 310 216 q 432 172 376 172 q 551 189 481 172 q 665 229 621 206 l 625 40 q 497 -1 572 15 q 346 -17 421 -17 q 117 60 200 -17 q 33 272 33 138 q 91 497 33 394 q 249 656 148 600 q 481 711 349 711 q 685 658 612 711 q 757 504 757 604 m 490 505 q 481 532 490 520 q 449 545 472 545 q 371 510 404 545 q 326 412 338 475 q 447 435 403 412 q 490 505 490 458 m 579 777 l 364 777 l 235 999 l 410 999 l 489 890 l 610 999 l 798 999 l 579 777 z "},"Ĺ":{"ha":751,"x_min":21,"x_max":854,"o":"m 648 0 l 21 0 l 227 972 l 519 972 l 363 229 l 697 229 l 648 0 m 585 1063 l 365 1063 l 595 1280 l 854 1280 l 585 1063 z "},"ĺ":{"ha":428,"x_min":27,"x_max":699,"o":"m 247 -17 q 86 37 145 -17 q 27 179 27 90 q 41 285 27 222 l 201 1028 l 490 1028 l 334 294 q 328 241 328 266 q 374 203 328 203 q 451 220 412 203 l 406 9 q 345 -8 387 0 q 247 -17 302 -17 m 430 1090 l 210 1090 l 439 1308 l 699 1308 l 430 1090 z "},"Ľ":{"ha":751,"x_min":21,"x_max":894,"o":"m 648 0 l 21 0 l 227 972 l 519 972 l 363 229 l 697 229 l 648 0 m 696 755 l 548 755 l 651 973 l 894 973 l 696 755 z "},"ľ":{"ha":707,"x_min":27,"x_max":854,"o":"m 247 -17 q 86 37 145 -17 q 27 179 27 90 q 41 285 27 222 l 201 1028 l 490 1028 l 334 294 q 328 241 328 266 q 374 203 328 203 q 451 220 412 203 l 406 9 q 345 -8 387 0 q 247 -17 302 -17 m 656 809 l 508 809 l 611 1027 l 854 1027 l 656 809 z "},"Ŀ":{"ha":751,"x_min":21,"x_max":755,"o":"m 648 0 l 21 0 l 227 972 l 519 972 l 363 229 l 697 229 l 648 0 m 755 490 q 720 410 755 441 q 625 379 684 379 q 531 411 568 379 q 494 490 494 443 q 531 569 494 539 q 625 598 567 598 q 720 569 684 598 q 755 490 755 539 z "},"ŀ":{"ha":752,"x_min":27,"x_max":743,"o":"m 247 -17 q 86 37 145 -17 q 27 179 27 90 q 41 285 27 222 l 201 1028 l 490 1028 l 334 294 q 328 241 328 266 q 374 203 328 203 q 451 220 412 203 l 406 9 q 345 -8 387 0 q 247 -17 302 -17 m 743 511 q 707 430 743 461 q 612 399 671 399 q 518 431 555 399 q 481 511 481 463 q 518 589 481 559 q 612 618 554 618 q 707 589 671 618 q 743 511 743 559 z "},"Ń":{"ha":1146,"x_min":20,"x_max":1181,"o":"m 975 0 l 745 0 l 463 476 q 412 576 424 543 l 410 576 q 379 415 397 494 l 290 0 l 20 0 l 225 972 l 478 972 l 750 521 q 773 478 759 508 q 794 428 788 449 l 798 428 q 806 481 800 453 l 909 972 l 1181 972 l 975 0 m 760 1063 l 539 1063 l 769 1280 l 1029 1280 l 760 1063 z "},"ń":{"ha":869,"x_min":-7,"x_max":844,"o":"m 836 541 q 821 422 836 493 l 732 0 l 443 0 l 525 385 q 536 454 536 431 q 490 500 536 500 q 411 451 454 500 q 355 342 368 403 l 285 0 l -7 0 l 92 461 q 132 694 115 574 l 416 694 q 403 575 412 613 l 406 575 q 533 675 461 638 q 669 711 606 711 q 836 541 836 711 m 575 777 l 355 777 l 585 994 l 844 994 l 575 777 z "},"Ň":{"ha":1146,"x_min":20,"x_max":1181,"o":"m 975 0 l 745 0 l 463 476 q 412 576 424 543 l 410 576 q 379 415 397 494 l 290 0 l 20 0 l 225 972 l 478 972 l 750 521 q 773 478 759 508 q 794 428 788 449 l 798 428 q 806 481 800 453 l 909 972 l 1181 972 l 975 0 m 798 1063 l 583 1063 l 454 1285 l 629 1285 l 708 1177 l 829 1285 l 1017 1285 l 798 1063 z "},"ň":{"ha":869,"x_min":-7,"x_max":836,"o":"m 836 541 q 821 422 836 493 l 732 0 l 443 0 l 525 385 q 536 454 536 431 q 490 500 536 500 q 411 451 454 500 q 355 342 368 403 l 285 0 l -7 0 l 92 461 q 132 694 115 574 l 416 694 q 403 575 412 613 l 406 575 q 533 675 461 638 q 669 711 606 711 q 836 541 836 711 m 605 777 l 390 777 l 260 999 l 435 999 l 515 890 l 635 999 l 823 999 l 605 777 z "},"Ő":{"ha":1061,"x_min":62,"x_max":1043,"o":"m 1040 562 q 970 264 1040 402 q 775 55 900 127 q 479 -17 651 -17 q 255 36 349 -17 q 112 186 161 90 q 62 408 62 283 q 134 707 62 570 q 330 916 205 844 q 619 989 454 989 q 928 875 815 989 q 1040 562 1040 761 m 729 553 q 692 688 729 642 q 586 734 655 734 q 475 692 522 734 q 400 573 427 649 q 374 415 374 498 q 411 279 374 325 q 514 233 448 233 q 623 271 575 233 q 700 387 671 309 q 729 553 729 465 m 867 1063 l 661 1063 l 808 1282 l 1043 1282 l 867 1063 m 538 1063 l 332 1063 l 479 1282 l 714 1282 l 538 1063 z "},"ő":{"ha":839,"x_min":34,"x_max":897,"o":"m 806 406 q 752 183 806 284 q 600 33 697 83 q 370 -17 502 -17 q 122 64 210 -17 q 34 290 34 144 q 65 458 34 376 q 152 596 96 540 q 289 682 208 652 q 474 711 370 711 q 720 632 633 711 q 806 406 806 552 m 519 406 q 499 476 519 452 q 446 500 479 500 q 381 471 409 500 q 337 392 353 442 q 321 288 321 341 q 341 218 321 241 q 395 195 361 195 q 485 254 451 195 q 519 406 519 314 m 721 777 l 515 777 l 663 996 l 897 996 l 721 777 m 392 777 l 186 777 l 334 996 l 568 996 l 392 777 z "},"Ŕ":{"ha":947,"x_min":21,"x_max":950,"o":"m 950 721 q 874 532 950 610 q 671 431 798 453 l 671 428 q 806 254 777 389 l 860 0 l 549 0 l 513 216 q 473 310 502 277 q 389 342 444 342 l 386 342 l 314 0 l 21 0 l 227 972 l 608 972 q 860 907 770 972 q 950 721 950 841 m 637 667 q 611 743 637 715 q 530 770 584 770 l 478 770 l 428 547 l 493 547 q 598 582 559 547 q 637 667 637 616 m 616 1063 l 396 1063 l 626 1280 l 886 1280 l 616 1063 z "},"ŕ":{"ha":601,"x_min":-6,"x_max":722,"o":"m 598 447 l 597 447 q 523 464 563 464 q 409 423 452 464 q 342 283 365 382 l 283 0 l -6 0 l 88 443 q 132 694 121 597 l 416 694 q 398 561 408 629 l 401 561 q 487 675 441 638 q 595 711 534 711 q 656 703 621 711 l 598 447 m 453 777 l 233 777 l 463 994 l 722 994 l 453 777 z "},"Ř":{"ha":947,"x_min":21,"x_max":950,"o":"m 950 721 q 874 532 950 610 q 671 431 798 453 l 671 428 q 806 254 777 389 l 860 0 l 549 0 l 513 216 q 473 310 502 277 q 389 342 444 342 l 386 342 l 314 0 l 21 0 l 227 972 l 608 972 q 860 907 770 972 q 950 721 950 841 m 637 667 q 611 743 637 715 q 530 770 584 770 l 478 770 l 428 547 l 493 547 q 598 582 559 547 q 637 667 637 616 m 690 1063 l 475 1063 l 346 1285 l 521 1285 l 600 1177 l 721 1285 l 909 1285 l 690 1063 z "},"ř":{"ha":601,"x_min":-6,"x_max":736,"o":"m 598 447 l 597 447 q 523 464 563 464 q 409 423 452 464 q 342 283 365 382 l 283 0 l -6 0 l 88 443 q 132 694 121 597 l 416 694 q 398 561 408 629 l 401 561 q 487 675 441 638 q 595 711 534 711 q 656 703 621 711 l 598 447 m 517 777 l 302 777 l 173 999 l 348 999 l 427 890 l 548 999 l 736 999 l 517 777 z "},"Ś":{"ha":794,"x_min":17,"x_max":847,"o":"m 768 699 q 640 755 696 739 q 525 771 583 771 q 452 751 479 771 q 425 700 425 732 q 447 648 425 670 q 541 587 469 627 q 702 461 656 526 q 747 297 747 397 q 695 129 747 203 q 550 19 642 55 q 330 -17 457 -17 q 158 4 238 -17 q 17 57 77 24 l 68 297 q 330 201 197 201 q 436 277 436 201 q 410 333 436 311 q 318 386 384 356 q 161 502 208 437 q 114 665 114 566 q 165 836 114 760 q 307 950 217 912 q 514 989 396 989 q 682 972 608 989 q 817 933 756 955 l 768 699 m 578 1063 l 357 1063 l 587 1280 l 847 1280 l 578 1063 z "},"ś":{"ha":660,"x_min":-3,"x_max":736,"o":"m 606 489 q 519 517 570 504 q 427 530 468 530 q 364 492 364 530 q 380 461 364 471 q 421 440 395 451 q 536 381 502 408 q 587 320 570 355 q 603 231 603 284 q 560 101 603 157 q 436 14 517 45 q 239 -17 355 -17 q 106 -7 170 -17 q -3 17 42 3 l 35 216 q 249 161 155 161 q 334 205 334 161 q 315 238 334 225 q 268 260 296 250 q 125 342 166 293 q 83 468 83 391 q 126 597 83 541 q 245 683 170 654 q 424 711 321 711 q 540 702 473 711 q 643 684 607 693 l 606 489 m 467 777 l 247 777 l 477 994 l 736 994 l 467 777 z "},"Ţ":{"ha":884,"x_min":103,"x_max":993,"o":"m 945 743 l 669 743 l 513 0 l 218 0 l 375 743 l 103 743 l 151 972 l 993 972 l 945 743 m 549 -158 q 518 -242 549 -203 q 433 -302 488 -280 q 302 -323 378 -323 q 210 -317 248 -323 l 238 -200 q 294 -207 264 -207 q 349 -195 329 -207 q 368 -165 368 -183 q 295 -125 368 -125 l 266 -126 l 295 0 l 431 0 l 420 -45 q 518 -78 488 -50 q 549 -158 549 -106 z "},"ţ":{"ha":571,"x_min":22,"x_max":616,"o":"m 568 494 l 412 494 l 372 306 q 363 236 363 262 q 411 195 363 195 q 504 214 452 195 l 463 14 q 372 -8 431 1 q 267 -17 313 -17 q 66 172 66 -17 q 76 245 66 197 q 127 494 85 293 l 22 494 l 71 694 l 170 694 l 203 854 l 504 924 l 456 694 l 616 694 l 568 494 m 436 -158 q 406 -242 436 -203 q 320 -302 375 -280 q 189 -323 266 -323 q 98 -317 136 -323 l 125 -200 q 181 -207 151 -207 q 236 -195 216 -207 q 256 -165 256 -183 q 182 -125 256 -125 l 153 -126 l 182 0 l 318 0 l 307 -45 q 406 -78 375 -50 q 436 -158 436 -106 z "},"Ť":{"ha":884,"x_min":103,"x_max":993,"o":"m 945 743 l 669 743 l 513 0 l 218 0 l 375 743 l 103 743 l 151 972 l 993 972 l 945 743 m 670 1076 l 455 1076 l 326 1299 l 500 1299 l 580 1190 l 701 1299 l 888 1299 l 670 1076 z "},"ť":{"ha":793,"x_min":22,"x_max":946,"o":"m 568 494 l 412 494 l 372 306 q 363 236 363 262 q 411 195 363 195 q 504 214 452 195 l 463 14 q 372 -8 431 1 q 267 -17 313 -17 q 66 172 66 -17 q 76 245 66 197 q 127 494 85 293 l 22 494 l 71 694 l 170 694 l 203 854 l 504 924 l 456 694 l 616 694 l 568 494 m 749 782 l 600 782 l 703 1000 l 946 1000 l 749 782 z "},"Ů":{"ha":1025,"x_min":89,"x_max":1071,"o":"m 464 -17 q 186 70 283 -17 q 89 322 89 157 q 113 503 89 384 l 212 972 l 507 972 l 406 500 q 390 422 397 459 q 382 357 382 385 q 412 266 382 298 q 497 233 442 233 q 599 277 561 233 q 659 421 637 321 l 777 972 l 1071 972 l 950 404 q 853 151 913 238 q 697 23 792 63 q 464 -17 602 -17 m 840 1201 q 789 1085 840 1129 q 656 1042 738 1042 q 528 1086 578 1042 q 477 1201 477 1131 q 501 1285 477 1250 q 566 1340 524 1321 q 656 1360 607 1360 q 790 1316 741 1360 q 840 1201 840 1272 m 722 1201 q 706 1239 722 1223 q 656 1255 690 1255 q 613 1239 630 1255 q 595 1201 595 1223 q 613 1162 595 1178 q 656 1147 630 1147 q 703 1162 684 1147 q 722 1201 722 1177 z "},"ů":{"ha":869,"x_min":28,"x_max":868,"o":"m 746 0 l 453 0 q 464 114 458 79 l 461 114 q 332 16 400 48 q 197 -17 264 -17 q 28 154 28 -17 q 43 272 28 205 l 132 694 l 421 694 l 340 318 q 329 241 329 272 q 339 217 329 228 q 370 207 349 207 q 459 257 419 207 q 514 382 499 308 l 579 694 l 868 694 l 775 258 q 754 123 762 197 q 746 0 746 50 m 696 936 q 645 820 696 864 q 513 777 594 777 q 384 821 435 777 q 334 936 334 865 q 357 1020 334 985 q 422 1075 380 1056 q 513 1095 463 1095 q 647 1051 597 1095 q 696 936 696 1007 m 578 936 q 563 974 578 958 q 513 990 547 990 q 469 974 486 990 q 452 936 452 958 q 469 897 452 913 q 513 882 486 882 q 559 897 541 882 q 578 936 578 912 z "},"Ű":{"ha":1025,"x_min":89,"x_max":1071,"o":"m 464 -17 q 186 70 283 -17 q 89 322 89 157 q 113 503 89 384 l 212 972 l 507 972 l 406 500 q 390 422 397 459 q 382 357 382 385 q 412 266 382 298 q 497 233 442 233 q 599 277 561 233 q 659 421 637 321 l 777 972 l 1071 972 l 950 404 q 853 151 913 238 q 697 23 792 63 q 464 -17 602 -17 m 876 1063 l 670 1063 l 817 1282 l 1052 1282 l 876 1063 m 547 1063 l 341 1063 l 488 1282 l 723 1282 l 547 1063 z "},"ű":{"ha":869,"x_min":28,"x_max":936,"o":"m 746 0 l 453 0 q 464 114 458 79 l 461 114 q 332 16 400 48 q 197 -17 264 -17 q 28 154 28 -17 q 43 272 28 205 l 132 694 l 421 694 l 340 318 q 329 241 329 272 q 339 217 329 228 q 370 207 349 207 q 459 257 419 207 q 514 382 499 308 l 579 694 l 868 694 l 775 258 q 754 123 762 197 q 746 0 746 50 m 760 777 l 554 777 l 701 996 l 936 996 l 760 777 m 431 777 l 225 777 l 372 996 l 607 996 l 431 777 z "},"Ź":{"ha":890,"x_min":-33,"x_max":974,"o":"m 401 229 l 831 229 l 782 0 l -33 0 l 9 205 l 561 743 l 151 743 l 200 972 l 974 972 l 930 768 l 401 229 m 634 1063 l 414 1063 l 644 1280 l 903 1280 l 634 1063 z "},"ź":{"ha":724,"x_min":-56,"x_max":783,"o":"m 385 200 l 663 200 l 621 0 l -56 0 l -28 135 l 361 494 l 79 494 l 121 694 l 762 694 l 726 524 l 385 200 m 513 777 l 293 777 l 523 994 l 783 994 l 513 777 z "},"Ż":{"ha":890,"x_min":-33,"x_max":974,"o":"m 401 229 l 831 229 l 782 0 l -33 0 l 9 205 l 561 743 l 151 743 l 200 972 l 974 972 l 930 768 l 401 229 m 724 1174 q 688 1094 724 1124 q 594 1063 652 1063 q 500 1095 537 1063 q 463 1174 463 1126 q 499 1252 463 1223 q 594 1282 536 1282 q 689 1252 653 1282 q 724 1174 724 1223 z "},"ż":{"ha":724,"x_min":-56,"x_max":762,"o":"m 385 200 l 663 200 l 621 0 l -56 0 l -28 135 l 361 494 l 79 494 l 121 694 l 762 694 l 726 524 l 385 200 m 590 888 q 554 807 590 838 q 460 777 518 777 q 366 808 403 777 q 329 888 329 840 q 365 966 329 937 q 460 996 401 996 q 554 966 519 996 q 590 888 590 937 z "},"Γ":{"ha":751,"x_min":22,"x_max":856,"o":"m 472 743 l 315 0 l 22 0 l 228 972 l 856 972 l 807 743 l 472 743 z "},"Θ":{"ha":1063,"x_min":62,"x_max":1040,"o":"m 408 386 l 450 587 l 697 587 l 656 386 l 408 386 m 1040 562 q 970 264 1040 402 q 775 55 900 127 q 479 -17 651 -17 q 255 36 349 -17 q 112 186 161 90 q 62 408 62 283 q 134 707 62 570 q 330 916 205 844 q 619 989 454 989 q 928 875 815 989 q 1040 562 1040 761 m 729 553 q 692 688 729 642 q 586 734 655 734 q 475 692 522 734 q 400 573 427 649 q 374 415 374 498 q 411 279 374 325 q 514 233 448 233 q 623 271 575 233 q 700 387 671 309 q 729 553 729 465 z "},"Φ":{"ha":1215,"x_min":56,"x_max":1222,"o":"m 1222 542 q 1163 320 1222 421 q 1005 168 1105 218 q 772 117 905 117 l 696 117 l 669 -17 l 393 -17 l 421 117 l 390 117 q 145 204 234 117 q 56 443 56 292 q 114 674 56 570 q 275 829 173 777 q 514 882 376 882 l 590 882 l 611 989 l 879 989 l 859 882 l 889 882 q 1134 793 1046 882 q 1222 542 1222 705 m 522 672 q 428 643 469 672 q 366 564 388 614 q 343 460 343 513 q 374 363 343 400 q 457 326 406 326 l 465 326 l 539 672 l 522 672 m 757 326 q 851 356 811 326 q 913 435 891 385 q 936 539 936 484 q 904 636 936 600 q 822 672 873 672 l 814 672 l 741 326 l 757 326 z "},"α":{"ha":918,"x_min":24,"x_max":965,"o":"m 511 353 q 496 463 509 426 q 449 500 483 500 q 384 465 414 500 q 334 373 353 430 q 315 261 315 317 q 329 213 315 232 q 367 195 342 195 q 431 227 397 195 q 493 315 466 260 l 511 353 m 523 131 q 267 -17 412 -17 q 90 55 155 -17 q 24 248 24 126 q 79 481 24 374 q 230 650 134 589 q 441 711 326 711 q 560 682 511 711 q 633 608 608 653 l 636 608 l 677 694 l 965 694 l 742 357 q 765 243 746 281 q 815 205 785 205 q 883 220 849 205 l 840 14 q 695 -12 785 -12 q 575 27 618 -12 q 527 131 532 66 l 523 131 z "},"δ":{"ha":883,"x_min":28,"x_max":890,"o":"m 852 370 q 732 85 852 189 q 399 -18 612 -18 q 202 21 286 -18 q 73 131 118 60 q 28 293 28 202 q 61 434 28 369 q 163 547 94 498 q 323 621 232 596 q 235 798 235 699 q 330 981 235 918 q 614 1043 425 1043 q 759 1030 682 1043 q 890 996 837 1017 l 844 760 q 713 812 779 792 q 599 832 647 832 q 546 822 566 832 q 526 792 526 811 q 546 757 526 776 q 623 700 565 738 q 765 589 720 635 q 831 488 809 543 q 852 370 852 434 m 423 194 q 518 236 481 194 q 554 349 554 278 q 530 427 554 388 q 464 497 507 465 q 354 423 392 475 q 315 304 315 372 q 345 223 315 252 q 423 194 374 194 z "},"ε":{"ha":673,"x_min":1,"x_max":675,"o":"m 562 16 q 313 -17 437 -17 q 86 36 170 -17 q 1 180 1 90 q 48 295 1 250 q 184 358 94 340 l 186 361 q 120 415 146 380 q 94 501 94 451 q 183 656 94 600 q 456 711 272 711 q 675 685 572 711 l 639 509 q 482 536 549 536 q 407 522 434 536 q 380 481 380 508 q 404 442 380 458 q 481 427 427 427 q 561 433 509 427 l 526 269 q 425 275 469 275 q 335 259 367 275 q 302 214 302 243 q 329 173 302 188 q 403 158 355 158 q 505 170 455 158 q 602 197 555 182 l 566 16 l 562 16 z "},"σ":{"ha":907,"x_min":33,"x_max":958,"o":"m 779 494 q 803 380 803 452 q 691 85 803 188 q 372 -17 580 -17 q 123 63 214 -17 q 33 281 33 142 q 88 500 33 406 q 245 644 142 593 q 489 694 349 694 l 958 694 l 914 494 l 779 494 m 399 195 q 485 254 453 195 q 517 416 517 313 q 510 494 517 460 l 484 494 q 367 436 412 494 q 322 288 322 378 q 345 218 322 241 q 399 195 368 195 z "},"τ":{"ha":839,"x_min":40,"x_max":868,"o":"m 463 -17 q 302 37 361 -17 q 243 179 243 90 q 257 285 243 222 l 302 494 l 269 494 q 155 478 210 494 q 40 424 100 462 l 87 642 q 343 694 189 694 l 868 694 l 825 494 l 591 494 l 550 294 q 543 241 543 256 q 590 203 543 203 q 667 220 628 203 l 623 9 q 561 -8 603 0 q 463 -17 518 -17 z "},"φ":{"ha":1131,"x_min":29,"x_max":1090,"o":"m 1090 421 q 1036 186 1090 286 q 882 35 982 87 q 652 -17 782 -17 l 608 -17 l 545 -319 l 283 -319 l 347 -17 l 330 -17 q 111 61 192 -17 q 29 268 29 138 q 52 424 29 345 q 116 573 75 503 q 205 694 156 644 l 486 694 q 395 576 439 648 q 325 430 351 505 q 300 294 300 355 q 320 221 300 250 q 379 193 341 193 l 392 193 l 435 396 q 555 641 473 570 q 789 711 637 711 q 946 674 877 711 q 1053 571 1015 637 q 1090 421 1090 504 m 667 193 q 744 221 707 193 q 802 298 780 248 q 823 415 823 347 q 808 479 823 457 q 768 501 793 501 q 700 418 719 501 l 653 193 l 667 193 z "},"‗":{"ha":576,"x_min":0,"x_max":576,"o":"m 0 -201 l 0 -121 l 576 -121 l 576 -201 l 0 -201 m 0 -392 l 0 -311 l 576 -311 l 576 -392 l 0 -392 z "},"‼":{"ha":966,"x_min":33,"x_max":1004,"o":"m 830 328 l 598 328 l 699 972 l 1004 972 l 830 328 m 840 127 q 792 22 840 62 q 669 -17 745 -17 q 559 18 602 -17 q 516 109 516 53 q 564 214 516 174 q 688 254 611 254 q 798 218 756 254 q 840 127 840 182 m 347 328 l 115 328 l 216 972 l 521 972 l 347 328 m 357 127 q 310 22 357 62 q 186 -17 262 -17 q 76 18 119 -17 q 33 109 33 53 q 81 214 33 174 q 205 254 128 254 q 315 218 273 254 q 357 127 357 182 z "},"ⁿ":{"ha":639,"x_min":95,"x_max":711,"o":"m 412 485 l 468 747 q 476 806 476 787 q 466 837 476 825 q 433 849 455 849 q 372 823 400 849 q 334 760 343 796 l 277 485 l 95 485 l 199 972 l 380 972 l 363 892 l 365 892 q 538 983 444 983 q 631 949 597 983 q 665 859 665 916 q 651 751 665 824 l 594 485 l 412 485 m 711 469 z "},"₧":{"ha":1957,"x_min":20,"x_max":1910,"o":"m 1099 -17 q 950 28 1000 -17 q 900 158 900 73 q 909 239 900 195 l 939 373 l 829 373 l 854 488 q 697 356 798 399 q 461 313 596 313 l 365 313 l 298 0 l 20 0 l 225 972 l 546 972 q 811 894 720 972 q 902 667 902 816 q 886 559 902 610 l 978 559 l 998 654 l 1286 732 l 1249 559 l 1394 559 l 1354 373 l 1210 373 q 1189 272 1191 284 q 1187 254 1187 260 q 1244 195 1187 195 q 1319 210 1278 195 l 1277 9 q 1208 -8 1255 0 q 1099 -17 1162 -17 m 1879 210 q 1798 39 1879 93 q 1546 -14 1717 -14 q 1424 -5 1493 -14 q 1324 13 1356 4 l 1358 173 q 1542 132 1451 132 q 1605 144 1584 132 q 1626 171 1626 155 q 1607 197 1626 187 q 1529 221 1588 207 q 1435 271 1470 235 q 1400 360 1400 307 q 1484 525 1400 466 q 1722 583 1568 583 q 1821 576 1763 583 q 1910 562 1880 570 l 1877 408 q 1803 428 1847 419 q 1721 437 1759 437 q 1675 429 1692 437 q 1659 405 1659 420 q 1669 387 1659 394 q 1732 364 1680 380 q 1879 210 1879 322 m 441 522 q 556 558 516 522 q 597 661 597 595 q 566 735 597 709 q 482 762 534 762 l 460 762 l 409 522 l 441 522 z "},"Ĳ":{"ha":1206,"x_min":20,"x_max":1251,"o":"m 313 0 l 20 0 l 225 972 l 518 972 l 313 0 m 619 -17 q 536 -8 583 -17 q 448 16 488 0 l 507 286 q 579 247 540 261 q 643 233 618 233 q 770 281 722 233 q 842 432 819 330 l 957 972 l 1251 972 l 1132 415 q 619 -17 1038 -17 z "},"ĳ":{"ha":853,"x_min":27,"x_max":965,"o":"m 469 889 q 422 785 469 825 q 298 745 375 745 q 188 780 231 745 q 145 869 145 816 q 193 975 145 935 q 317 1015 240 1015 q 427 980 384 1015 q 469 889 469 945 m 247 -17 q 86 37 145 -17 q 27 179 27 90 q 41 285 27 222 l 130 694 l 419 694 l 334 294 q 328 241 328 266 q 374 203 328 203 q 451 220 412 203 l 406 9 q 345 -8 387 0 q 247 -17 302 -17 m 965 889 q 918 785 965 825 q 794 745 871 745 q 684 780 726 745 q 641 869 641 816 q 688 975 641 935 q 813 1015 736 1015 q 922 980 880 1015 q 965 889 965 945 m 393 -326 q 276 -302 321 -326 l 320 -98 q 346 -110 329 -105 q 377 -115 363 -115 q 445 -84 422 -115 q 481 14 468 -53 l 626 694 l 915 694 l 776 37 q 697 -173 748 -95 q 570 -289 646 -252 q 393 -326 494 -326 z "},"ŉ":{"ha":1095,"x_min":95,"x_max":1062,"o":"m 1062 541 q 1046 422 1062 493 l 958 0 l 669 0 l 751 385 q 762 454 762 431 q 716 500 762 500 q 637 451 680 500 q 581 342 594 403 l 511 0 l 219 0 l 317 461 q 358 694 341 574 l 642 694 q 629 575 637 613 l 631 575 q 759 675 687 638 q 895 711 831 711 q 1062 541 1062 711 m 263 694 l 95 694 l 178 996 l 399 996 l 263 694 z "},"′":{"ha":318,"x_min":115,"x_max":419,"o":"m 283 630 l 115 630 l 198 996 l 419 996 l 283 630 z "},"″":{"ha":652,"x_min":115,"x_max":753,"o":"m 283 630 l 115 630 l 198 996 l 419 996 l 283 630 m 616 630 l 448 630 l 532 996 l 753 996 l 616 630 z "},"℅":{"ha":1114,"x_min":39,"x_max":1128,"o":"m 1128 282 q 1093 125 1128 195 q 997 21 1059 56 q 852 -14 936 -14 q 682 45 745 -14 q 620 199 620 104 q 656 355 620 284 q 755 459 692 426 q 901 493 818 493 q 1067 437 1007 493 q 1128 282 1128 382 m 251 0 l 51 0 l 867 972 l 1067 972 l 251 0 m 946 278 q 930 329 946 311 q 890 347 915 347 q 826 309 850 347 q 803 201 803 270 q 818 152 803 170 q 859 134 833 134 q 922 174 899 134 q 946 278 946 215 m 437 814 q 328 846 382 846 q 251 805 279 846 q 222 699 222 764 q 239 643 222 663 q 288 623 257 623 q 414 656 343 623 l 389 509 q 263 479 332 479 q 99 535 159 479 q 39 692 39 591 q 76 842 39 775 q 178 948 112 909 q 326 986 244 986 q 457 958 406 986 l 437 814 z "},"ℓ":{"ha":449,"x_min":9,"x_max":437,"o":"m 9 286 l 131 446 l 131 754 q 170 956 131 900 q 289 1011 209 1011 q 397 965 357 1011 q 437 848 437 920 q 244 452 437 720 l 244 170 q 254 95 244 109 q 283 81 264 81 q 418 153 315 81 l 418 43 q 265 -17 342 -17 q 131 147 131 -17 l 131 300 l 77 233 l 9 286 m 244 610 q 328 769 313 728 q 343 848 343 810 q 292 929 343 929 q 261 913 271 929 q 244 764 244 883 l 244 610 z "},"□":{"ha":839,"x_min":98,"x_max":739,"o":"m 98 640 l 739 640 l 739 0 l 98 0 l 98 640 m 688 52 l 688 589 l 150 589 l 150 52 l 688 52 z "},"▪":{"ha":492,"x_min":89,"x_max":403,"o":"m 89 615 l 403 615 l 403 301 l 89 301 l 89 615 z "},"▫":{"ha":492,"x_min":89,"x_max":403,"o":"m 89 615 l 403 615 l 403 301 l 89 301 l 89 615 m 351 353 l 351 564 l 140 564 l 140 353 l 351 353 z "},"●":{"ha":839,"x_min":121,"x_max":718,"o":"m 121 392 q 162 544 121 473 q 273 652 204 614 q 419 690 342 690 q 573 648 500 690 q 682 534 645 606 q 718 392 718 463 q 632 182 718 272 q 421 93 546 93 q 211 178 301 93 q 121 392 121 264 z "},"◦":{"ha":492,"x_min":76,"x_max":416,"o":"m 246 629 q 367 579 317 629 q 416 460 416 530 q 367 339 416 389 q 246 289 317 289 q 126 339 176 289 q 76 460 76 389 q 126 579 76 529 q 246 629 176 629 m 245 578 q 162 543 197 578 q 127 460 127 509 q 162 375 127 410 q 247 340 197 340 q 331 375 296 340 q 365 460 365 410 q 330 544 365 509 q 245 578 295 578 z "},"Ā":{"ha":1042,"x_min":-64,"x_max":950,"o":"m 652 0 l 637 179 l 346 179 l 258 0 l -64 0 l 476 972 l 840 972 l 950 0 l 652 0 m 609 684 q 612 750 609 730 l 606 750 l 593 716 l 567 657 l 449 408 l 623 408 l 610 652 l 609 684 m 446 1063 l 478 1214 l 922 1214 l 890 1063 l 446 1063 z "},"ā":{"ha":876,"x_min":33,"x_max":875,"o":"m 758 0 l 472 0 q 482 123 472 22 l 479 123 q 248 -17 376 -17 q 89 54 145 -17 q 33 254 33 125 q 69 436 33 347 q 167 585 104 526 q 321 678 230 645 q 532 711 412 711 q 875 669 695 711 l 785 244 q 766 122 774 196 q 758 0 758 48 m 557 524 q 515 528 541 528 q 418 496 461 528 q 348 403 374 465 q 321 278 321 340 q 338 216 321 237 q 382 195 356 195 q 469 250 431 195 q 530 408 508 305 l 557 524 m 338 777 l 370 928 l 814 928 l 783 777 l 338 777 z "},"Ĉ":{"ha":875,"x_min":56,"x_max":941,"o":"m 878 688 q 787 721 836 707 q 667 734 737 734 q 507 695 574 734 q 403 584 439 655 q 367 427 367 513 q 422 284 367 336 q 581 233 477 233 q 684 248 627 233 q 794 289 741 263 l 736 21 q 503 -17 630 -17 q 172 94 288 -17 q 56 400 56 204 q 135 713 56 576 q 357 920 214 850 q 692 989 500 989 q 822 979 753 989 q 937 956 890 969 l 878 688 m 766 1063 l 686 1172 l 566 1063 l 378 1063 l 596 1286 l 811 1286 l 941 1063 l 766 1063 z "},"ĉ":{"ha":659,"x_min":33,"x_max":757,"o":"m 628 471 q 509 500 583 500 q 375 444 430 500 q 321 304 321 387 q 436 195 321 195 q 509 204 469 195 q 581 232 549 214 l 541 35 q 434 -4 492 9 q 322 -17 376 -17 q 110 59 187 -17 q 33 269 33 136 q 92 493 33 391 q 255 653 151 595 q 490 711 359 711 q 675 675 602 711 l 628 471 m 582 777 l 503 885 l 382 777 l 194 777 l 412 999 l 627 999 l 757 777 l 582 777 z "},"Ċ":{"ha":875,"x_min":56,"x_max":937,"o":"m 878 688 q 787 721 836 707 q 667 734 737 734 q 507 695 574 734 q 403 584 439 655 q 367 427 367 513 q 422 284 367 336 q 581 233 477 233 q 684 248 627 233 q 794 289 741 263 l 736 21 q 503 -17 630 -17 q 172 94 288 -17 q 56 400 56 204 q 135 713 56 576 q 357 920 214 850 q 692 989 500 989 q 822 979 753 989 q 937 956 890 969 l 878 688 m 798 1174 q 762 1094 798 1124 q 667 1063 726 1063 q 573 1095 610 1063 q 536 1174 536 1126 q 573 1252 536 1223 q 667 1282 609 1282 q 762 1252 726 1282 q 798 1174 798 1223 z "},"ċ":{"ha":659,"x_min":33,"x_max":675,"o":"m 628 471 q 509 500 583 500 q 375 444 430 500 q 321 304 321 387 q 436 195 321 195 q 509 204 469 195 q 581 232 549 214 l 541 35 q 434 -4 492 9 q 322 -17 376 -17 q 110 59 187 -17 q 33 269 33 136 q 92 493 33 391 q 255 653 151 595 q 490 711 359 711 q 675 675 602 711 l 628 471 m 603 888 q 567 807 603 838 q 473 777 531 777 q 379 808 416 777 q 342 888 342 840 q 378 966 342 937 q 473 996 414 996 q 567 966 532 996 q 603 888 603 937 z "},"Ē":{"ha":766,"x_min":21,"x_max":832,"o":"m 783 743 l 471 743 l 441 602 l 734 602 l 686 372 l 393 372 l 363 229 l 697 229 l 648 0 l 21 0 l 227 972 l 832 972 l 783 743 m 319 1063 l 351 1214 l 795 1214 l 763 1063 l 319 1063 z "},"ē":{"ha":753,"x_min":33,"x_max":757,"o":"m 757 504 q 647 326 757 385 q 310 261 538 268 l 310 256 q 343 194 310 216 q 432 172 376 172 q 551 189 481 172 q 665 229 621 206 l 625 40 q 497 -1 572 15 q 346 -17 421 -17 q 117 60 200 -17 q 33 272 33 138 q 91 497 33 394 q 249 656 148 600 q 481 711 349 711 q 685 658 612 711 q 757 504 757 604 m 490 505 q 481 532 490 520 q 449 545 472 545 q 371 510 404 545 q 326 412 338 475 q 447 435 403 412 q 490 505 490 458 m 273 777 l 305 928 l 749 928 l 718 777 l 273 777 z "},"Ĕ":{"ha":766,"x_min":21,"x_max":832,"o":"m 783 743 l 471 743 l 441 602 l 734 602 l 686 372 l 393 372 l 363 229 l 697 229 l 648 0 l 21 0 l 227 972 l 832 972 l 783 743 m 806 1297 q 702 1123 772 1183 q 529 1063 631 1063 q 398 1109 446 1063 q 350 1239 350 1156 q 358 1297 350 1260 l 497 1297 l 493 1272 q 511 1226 493 1240 q 554 1213 529 1213 q 661 1297 631 1213 l 806 1297 z "},"ĕ":{"ha":753,"x_min":33,"x_max":757,"o":"m 757 504 q 647 326 757 385 q 310 261 538 268 l 310 256 q 343 194 310 216 q 432 172 376 172 q 551 189 481 172 q 665 229 621 206 l 625 40 q 497 -1 572 15 q 346 -17 421 -17 q 117 60 200 -17 q 33 272 33 138 q 91 497 33 394 q 249 656 148 600 q 481 711 349 711 q 685 658 612 711 q 757 504 757 604 m 490 505 q 481 532 490 520 q 449 545 472 545 q 371 510 404 545 q 326 412 338 475 q 447 435 403 412 q 490 505 490 458 m 743 1011 q 640 837 710 897 q 467 777 569 777 q 335 823 383 777 q 288 953 288 870 q 296 1011 288 974 l 435 1011 l 431 986 q 449 940 431 954 q 492 926 467 926 q 599 1011 569 926 l 743 1011 z "},"Ė":{"ha":766,"x_min":21,"x_max":832,"o":"m 783 743 l 471 743 l 441 602 l 734 602 l 686 372 l 393 372 l 363 229 l 697 229 l 648 0 l 21 0 l 227 972 l 832 972 l 783 743 m 673 1174 q 637 1094 673 1124 q 543 1063 601 1063 q 449 1095 486 1063 q 412 1174 412 1126 q 448 1252 412 1223 q 543 1282 484 1282 q 637 1252 602 1282 q 673 1174 673 1223 z "},"ė":{"ha":753,"x_min":33,"x_max":757,"o":"m 757 504 q 647 326 757 385 q 310 261 538 268 l 310 256 q 343 194 310 216 q 432 172 376 172 q 551 189 481 172 q 665 229 621 206 l 625 40 q 497 -1 572 15 q 346 -17 421 -17 q 117 60 200 -17 q 33 272 33 138 q 91 497 33 394 q 249 656 148 600 q 481 711 349 711 q 685 658 612 711 q 757 504 757 604 m 490 505 q 481 532 490 520 q 449 545 472 545 q 371 510 404 545 q 326 412 338 475 q 447 435 403 412 q 490 505 490 458 m 601 888 q 565 807 601 838 q 471 777 529 777 q 377 808 414 777 q 340 888 340 840 q 376 966 340 937 q 471 996 412 996 q 565 966 530 996 q 601 888 601 937 z "},"Ĝ":{"ha":1015,"x_min":62,"x_max":1000,"o":"m 943 688 q 828 734 893 717 q 703 751 764 751 q 461 664 548 751 q 374 421 374 576 q 422 270 374 323 q 558 216 470 216 q 619 224 589 216 l 650 366 l 471 366 l 518 587 l 990 587 l 879 64 q 515 -17 713 -17 q 181 96 300 -17 q 62 416 62 210 q 143 713 62 581 q 368 918 223 846 q 708 989 513 989 q 1000 940 844 989 l 943 688 m 811 1063 l 732 1171 l 611 1063 l 423 1063 l 642 1285 l 857 1285 l 986 1063 l 811 1063 z "},"ĝ":{"ha":876,"x_min":-18,"x_max":875,"o":"m 215 -326 q -18 -279 97 -326 l 29 -60 q 132 -109 77 -92 q 236 -126 186 -126 q 385 -80 333 -126 q 457 60 437 -34 l 468 113 l 465 113 q 368 16 425 50 q 245 -17 311 -17 q 90 54 146 -17 q 33 244 33 124 q 96 492 33 383 q 269 656 159 602 q 524 711 378 711 q 697 700 604 711 q 875 669 790 689 l 757 111 q 657 -146 722 -56 q 484 -281 592 -237 q 215 -326 376 -326 m 557 524 q 510 528 541 528 q 415 494 458 528 q 346 402 372 460 q 321 278 321 343 q 338 216 321 237 q 382 195 356 195 q 468 249 429 195 q 530 408 507 304 l 557 524 m 675 777 l 596 885 l 475 777 l 288 777 l 506 999 l 721 999 l 850 777 l 675 777 z "},"Ġ":{"ha":1015,"x_min":62,"x_max":1000,"o":"m 943 688 q 828 734 893 717 q 703 751 764 751 q 461 664 548 751 q 374 421 374 576 q 422 270 374 323 q 558 216 470 216 q 619 224 589 216 l 650 366 l 471 366 l 518 587 l 990 587 l 879 64 q 515 -17 713 -17 q 181 96 300 -17 q 62 416 62 210 q 143 713 62 581 q 368 918 223 846 q 708 989 513 989 q 1000 940 844 989 l 943 688 m 834 1174 q 798 1094 834 1124 q 704 1063 762 1063 q 610 1095 647 1063 q 573 1174 573 1126 q 609 1252 573 1223 q 704 1282 646 1282 q 799 1252 763 1282 q 834 1174 834 1223 z "},"ġ":{"ha":876,"x_min":-18,"x_max":875,"o":"m 215 -326 q -18 -279 97 -326 l 29 -60 q 132 -109 77 -92 q 236 -126 186 -126 q 385 -80 333 -126 q 457 60 437 -34 l 468 113 l 465 113 q 368 16 425 50 q 245 -17 311 -17 q 90 54 146 -17 q 33 244 33 124 q 96 492 33 383 q 269 656 159 602 q 524 711 378 711 q 697 700 604 711 q 875 669 790 689 l 757 111 q 657 -146 722 -56 q 484 -281 592 -237 q 215 -326 376 -326 m 557 524 q 510 528 541 528 q 415 494 458 528 q 346 402 372 460 q 321 278 321 343 q 338 216 321 237 q 382 195 356 195 q 468 249 429 195 q 530 408 507 304 l 557 524 m 696 888 q 660 807 696 838 q 566 777 624 777 q 472 808 509 777 q 435 888 435 840 q 471 966 435 937 q 566 996 507 996 q 660 966 625 996 q 696 888 696 937 z "},"Ģ":{"ha":1015,"x_min":62,"x_max":1000,"o":"m 943 688 q 828 734 893 717 q 703 751 764 751 q 461 664 548 751 q 374 421 374 576 q 422 270 374 323 q 558 216 470 216 q 619 224 589 216 l 650 366 l 471 366 l 518 587 l 990 587 l 879 64 q 515 -17 713 -17 q 181 96 300 -17 q 62 416 62 210 q 143 713 62 581 q 368 918 223 846 q 708 989 513 989 q 1000 940 844 989 l 943 688 m 467 -319 l 305 -319 l 372 -73 l 602 -73 l 467 -319 z "},"ģ":{"ha":876,"x_min":-18,"x_max":875,"o":"m 215 -326 q -18 -279 97 -326 l 29 -60 q 132 -109 77 -92 q 236 -126 186 -126 q 385 -80 333 -126 q 457 60 437 -34 l 468 113 l 465 113 q 368 16 425 50 q 245 -17 311 -17 q 90 54 146 -17 q 33 244 33 124 q 96 492 33 383 q 269 656 159 602 q 524 711 378 711 q 697 700 604 711 q 875 669 790 689 l 757 111 q 657 -146 722 -56 q 484 -281 592 -237 q 215 -326 376 -326 m 557 524 q 510 528 541 528 q 415 494 458 528 q 346 402 372 460 q 321 278 321 343 q 338 216 321 237 q 382 195 356 195 q 468 249 429 195 q 530 408 507 304 l 557 524 m 657 1071 l 806 1071 l 703 853 l 460 853 l 657 1071 z "},"Ĥ":{"ha":1116,"x_min":20,"x_max":1150,"o":"m 943 0 l 648 0 l 726 363 l 390 363 l 313 0 l 20 0 l 227 972 l 519 972 l 443 612 l 779 612 l 856 972 l 1150 972 l 943 0 m 800 1063 l 721 1171 l 600 1063 l 412 1063 l 631 1285 l 846 1285 l 975 1063 l 800 1063 z "},"ĥ":{"ha":869,"x_min":-7,"x_max":888,"o":"m 836 541 q 821 422 836 493 l 732 0 l 443 0 l 525 385 q 536 454 536 431 q 489 500 536 500 q 410 451 452 500 q 354 342 367 403 l 282 0 l -7 0 l 211 1028 l 500 1028 l 404 575 l 407 575 q 534 674 462 637 q 669 711 606 711 q 836 541 836 711 m 713 1088 l 633 1196 l 513 1088 l 325 1088 l 543 1310 l 758 1310 l 888 1088 l 713 1088 z "},"Ħ":{"ha":1116,"x_min":20,"x_max":1219,"o":"m 1124 850 l 1219 850 l 1192 718 l 1096 718 l 943 0 l 648 0 l 726 363 l 390 363 l 313 0 l 20 0 l 172 718 l 77 718 l 105 850 l 200 850 l 227 972 l 519 972 l 493 850 l 829 850 l 856 972 l 1150 972 l 1124 850 m 779 612 l 802 718 l 465 718 l 443 612 l 779 612 z "},"ħ":{"ha":869,"x_min":-7,"x_max":832,"o":"m 832 524 q 817 406 832 476 l 732 0 l 443 0 l 521 368 q 532 437 532 426 q 485 484 532 484 q 406 435 448 484 q 350 325 363 387 l 282 0 l -7 0 l 158 783 l 90 783 l 118 916 l 187 916 l 211 1028 l 500 1028 l 475 916 l 663 916 l 635 783 l 447 783 l 400 558 l 403 558 q 530 657 458 621 q 665 694 602 694 q 832 524 832 694 z "},"Ĩ":{"ha":484,"x_min":20,"x_max":688,"o":"m 313 0 l 20 0 l 225 972 l 518 972 l 313 0 m 688 1303 q 489 1072 645 1072 q 427 1081 452 1072 q 382 1101 402 1090 q 344 1121 362 1112 q 304 1131 326 1131 q 259 1115 277 1131 q 232 1063 242 1100 l 100 1063 q 171 1234 120 1175 q 297 1293 221 1293 q 361 1284 336 1293 q 406 1264 386 1275 q 444 1244 426 1253 q 486 1235 462 1235 q 554 1303 541 1235 l 688 1303 z "},"ĩ":{"ha":428,"x_min":27,"x_max":616,"o":"m 247 -17 q 86 37 145 -17 q 27 179 27 90 q 41 285 27 222 l 130 694 l 419 694 l 334 294 q 328 241 328 266 q 374 203 328 203 q 451 220 412 203 l 406 9 q 345 -8 387 0 q 247 -17 302 -17 m 616 1017 q 417 786 573 786 q 355 795 380 786 q 310 815 330 804 q 272 835 290 826 q 233 844 254 844 q 188 829 205 844 q 160 777 170 814 l 28 777 q 99 948 48 889 q 225 1007 149 1007 q 289 998 264 1007 q 334 978 314 989 q 372 958 354 967 q 414 949 390 949 q 482 1017 469 949 l 616 1017 z "},"Ī":{"ha":484,"x_min":20,"x_max":629,"o":"m 313 0 l 20 0 l 225 972 l 518 972 l 313 0 m 153 1063 l 185 1214 l 629 1214 l 597 1063 l 153 1063 z "},"ī":{"ha":428,"x_min":27,"x_max":551,"o":"m 247 -17 q 86 37 145 -17 q 27 179 27 90 q 41 285 27 222 l 130 694 l 419 694 l 334 294 q 328 241 328 266 q 374 203 328 203 q 451 220 412 203 l 406 9 q 345 -8 387 0 q 247 -17 302 -17 m 75 777 l 106 928 l 551 928 l 519 777 l 75 777 z "},"Ĭ":{"ha":484,"x_min":20,"x_max":646,"o":"m 313 0 l 20 0 l 225 972 l 518 972 l 313 0 m 646 1297 q 542 1123 612 1183 q 369 1063 471 1063 q 238 1109 286 1063 q 190 1239 190 1156 q 198 1297 190 1260 l 337 1297 l 333 1272 q 351 1226 333 1240 q 394 1213 369 1213 q 501 1297 471 1213 l 646 1297 z "},"ĭ":{"ha":428,"x_min":27,"x_max":574,"o":"m 247 -17 q 86 37 145 -17 q 27 179 27 90 q 41 285 27 222 l 130 694 l 419 694 l 334 294 q 328 241 328 266 q 374 203 328 203 q 451 220 412 203 l 406 9 q 345 -8 387 0 q 247 -17 302 -17 m 574 1011 q 470 837 541 897 q 297 777 399 777 q 166 823 214 777 q 118 953 118 870 q 126 1011 118 974 l 265 1011 l 261 986 q 279 940 261 954 q 322 926 297 926 q 429 1011 399 926 l 574 1011 z "},"Į":{"ha":484,"x_min":-7,"x_max":518,"o":"m 313 0 l 20 0 l 225 972 l 518 972 l 313 0 m 249 0 q 177 -79 195 -53 q 159 -125 159 -105 q 208 -171 159 -171 q 273 -157 239 -171 l 248 -268 q 144 -289 205 -289 q 32 -258 71 -289 q -7 -172 -7 -227 q 20 -92 -7 -130 q 118 0 47 -54 l 249 0 z "},"į":{"ha":428,"x_min":27,"x_max":469,"o":"m 469 889 q 422 785 469 825 q 298 745 375 745 q 188 780 231 745 q 145 869 145 816 q 193 975 145 935 q 317 1015 240 1015 q 427 980 384 1015 q 469 889 469 945 m 247 -17 q 86 37 145 -17 q 27 179 27 90 q 41 285 27 222 l 130 694 l 419 694 l 334 294 q 328 241 328 266 q 374 203 328 203 q 451 220 412 203 l 406 9 q 345 -8 387 0 q 247 -17 302 -17 m 300 0 q 228 -79 245 -53 q 210 -125 210 -105 q 259 -171 210 -171 q 323 -157 290 -171 l 298 -268 q 195 -289 256 -289 q 83 -258 121 -289 q 44 -172 44 -227 q 71 -92 44 -130 q 169 0 98 -54 l 300 0 z "},"Ĵ":{"ha":713,"x_min":-45,"x_max":889,"o":"m 126 -17 q 43 -8 90 -17 q -45 16 -5 0 l 14 286 q 86 247 47 261 q 150 233 125 233 q 277 281 229 233 q 349 432 326 330 l 464 972 l 758 972 l 639 415 q 126 -17 545 -17 m 714 1063 l 635 1171 l 514 1063 l 326 1063 l 545 1285 l 760 1285 l 889 1063 l 714 1063 z "},"ĵ":{"ha":428,"x_min":-210,"x_max":576,"o":"m -93 -326 q -210 -302 -164 -326 l -165 -98 q -140 -110 -157 -105 q -109 -115 -123 -115 q -40 -84 -63 -115 q -4 14 -18 -53 l 140 694 l 429 694 l 290 37 q 212 -173 262 -95 q 84 -289 161 -252 q -93 -326 8 -326 m 401 777 l 321 885 l 201 777 l 13 777 l 231 999 l 446 999 l 576 777 l 401 777 z "},"Ķ":{"ha":958,"x_min":21,"x_max":1093,"o":"m 1093 972 l 713 509 l 914 0 l 558 0 l 427 406 q 414 461 420 422 l 411 461 l 314 0 l 21 0 l 227 972 l 519 972 l 425 525 l 428 525 l 445 551 l 746 972 l 1093 972 m 388 -319 l 226 -319 l 293 -73 l 522 -73 l 388 -319 z "},"ķ":{"ha":840,"x_min":-8,"x_max":924,"o":"m 643 353 l 774 0 l 458 0 l 358 350 l 355 350 l 281 0 l -8 0 l 211 1028 l 500 1028 l 361 375 l 364 375 l 591 694 l 924 694 l 643 353 m 323 -319 l 161 -319 l 229 -73 l 458 -73 l 323 -319 z "},"ĸ":{"ha":840,"x_min":-8,"x_max":924,"o":"m 643 353 l 774 0 l 458 0 l 358 350 l 355 350 l 281 0 l -8 0 l 140 694 l 429 694 l 361 375 l 364 375 l 591 694 l 924 694 l 643 353 z "},"Ļ":{"ha":751,"x_min":21,"x_max":697,"o":"m 648 0 l 21 0 l 227 972 l 519 972 l 363 229 l 697 229 l 648 0 m 496 -158 q 465 -242 496 -203 q 380 -302 435 -280 q 249 -323 326 -323 q 157 -317 195 -323 l 185 -200 q 241 -207 211 -207 q 296 -195 276 -207 q 315 -165 315 -183 q 242 -125 315 -125 l 213 -126 l 242 0 l 378 0 l 367 -45 q 465 -78 435 -50 q 496 -158 496 -106 z "},"ļ":{"ha":428,"x_min":27,"x_max":490,"o":"m 247 -17 q 86 37 145 -17 q 27 179 27 90 q 41 285 27 222 l 201 1028 l 490 1028 l 334 294 q 328 241 328 266 q 374 203 328 203 q 451 220 412 203 l 406 9 q 345 -8 387 0 q 247 -17 302 -17 m 405 -158 q 374 -242 405 -203 q 289 -302 344 -280 q 158 -323 235 -323 q 66 -317 104 -323 l 94 -200 q 150 -207 120 -207 q 205 -195 185 -207 q 224 -165 224 -183 q 151 -125 224 -125 l 122 -126 l 151 0 l 287 0 l 276 -45 q 374 -78 344 -50 q 405 -158 405 -106 z "},"Ņ":{"ha":1146,"x_min":20,"x_max":1181,"o":"m 975 0 l 745 0 l 463 476 q 412 576 424 543 l 410 576 q 379 415 397 494 l 290 0 l 20 0 l 225 972 l 478 972 l 750 521 q 773 478 759 508 q 794 428 788 449 l 798 428 q 806 481 800 453 l 909 972 l 1181 972 l 975 0 m 481 -319 l 319 -319 l 386 -73 l 615 -73 l 481 -319 z "},"ņ":{"ha":869,"x_min":-7,"x_max":836,"o":"m 836 541 q 821 422 836 493 l 732 0 l 443 0 l 525 385 q 536 454 536 431 q 490 500 536 500 q 411 451 454 500 q 355 342 368 403 l 285 0 l -7 0 l 92 461 q 132 694 115 574 l 416 694 q 403 575 412 613 l 406 575 q 533 675 461 638 q 669 711 606 711 q 836 541 836 711 m 328 -319 l 166 -319 l 233 -73 l 463 -73 l 328 -319 z "},"Ŋ":{"ha":1146,"x_min":20,"x_max":1181,"o":"m 412 576 l 410 576 q 379 415 397 494 l 290 0 l 20 0 l 225 972 l 493 972 l 744 498 q 788 406 780 431 l 791 406 q 799 458 793 431 q 809 508 805 486 l 909 972 l 1181 972 l 975 0 l 964 -45 q 600 -321 901 -321 q 441 -300 511 -321 l 486 -90 q 585 -111 542 -111 q 669 -83 634 -111 q 716 0 705 -55 l 463 476 q 412 576 420 553 z "},"ŋ":{"ha":869,"x_min":-7,"x_max":836,"o":"m 536 454 q 490 500 536 500 q 411 451 454 500 q 355 342 368 403 l 285 0 l -7 0 l 92 461 q 132 694 115 574 l 416 694 q 403 575 412 613 l 406 575 q 533 675 461 638 q 669 711 606 711 q 836 541 836 711 q 821 422 836 493 l 722 -45 q 355 -321 651 -321 q 197 -300 267 -321 l 241 -90 q 341 -111 298 -111 q 406 -85 382 -111 q 443 0 431 -60 l 525 385 q 536 454 536 431 z "},"Ō":{"ha":1061,"x_min":62,"x_max":1040,"o":"m 1040 562 q 970 264 1040 402 q 775 55 900 127 q 479 -17 651 -17 q 255 36 349 -17 q 112 186 161 90 q 62 408 62 283 q 134 707 62 570 q 330 916 205 844 q 619 989 454 989 q 928 875 815 989 q 1040 562 1040 761 m 729 553 q 692 688 729 642 q 586 734 655 734 q 475 692 522 734 q 400 573 427 649 q 374 415 374 498 q 411 279 374 325 q 514 233 448 233 q 623 271 575 233 q 700 387 671 309 q 729 553 729 465 m 413 1063 l 445 1214 l 889 1214 l 857 1063 l 413 1063 z "},"ō":{"ha":839,"x_min":34,"x_max":806,"o":"m 806 406 q 752 183 806 284 q 600 33 697 83 q 370 -17 502 -17 q 122 64 210 -17 q 34 290 34 144 q 65 458 34 376 q 152 596 96 540 q 289 682 208 652 q 474 711 370 711 q 720 632 633 711 q 806 406 806 552 m 519 406 q 499 476 519 452 q 446 500 479 500 q 381 471 409 500 q 337 392 353 442 q 321 288 321 341 q 341 218 321 241 q 395 195 361 195 q 485 254 451 195 q 519 406 519 314 m 251 777 l 283 928 l 727 928 l 695 777 l 251 777 z "},"Ŏ":{"ha":1061,"x_min":62,"x_max":1040,"o":"m 1040 562 q 970 264 1040 402 q 775 55 900 127 q 479 -17 651 -17 q 255 36 349 -17 q 112 186 161 90 q 62 408 62 283 q 134 707 62 570 q 330 916 205 844 q 619 989 454 989 q 928 875 815 989 q 1040 562 1040 761 m 729 553 q 692 688 729 642 q 586 734 655 734 q 475 692 522 734 q 400 573 427 649 q 374 415 374 498 q 411 279 374 325 q 514 233 448 233 q 623 271 575 233 q 700 387 671 309 q 729 553 729 465 m 905 1297 q 801 1123 871 1183 q 628 1063 730 1063 q 497 1109 545 1063 q 449 1239 449 1156 q 457 1297 449 1260 l 596 1297 l 592 1272 q 610 1226 592 1240 q 653 1213 628 1213 q 760 1297 730 1213 l 905 1297 z "},"ŏ":{"ha":839,"x_min":34,"x_max":806,"o":"m 806 406 q 752 183 806 284 q 600 33 697 83 q 370 -17 502 -17 q 122 64 210 -17 q 34 290 34 144 q 65 458 34 376 q 152 596 96 540 q 289 682 208 652 q 474 711 370 711 q 720 632 633 711 q 806 406 806 552 m 519 406 q 499 476 519 452 q 446 500 479 500 q 381 471 409 500 q 337 392 353 442 q 321 288 321 341 q 341 218 321 241 q 395 195 361 195 q 485 254 451 195 q 519 406 519 314 m 758 1011 q 654 837 725 897 q 481 777 584 777 q 350 823 398 777 q 302 953 302 870 q 311 1011 302 974 l 450 1011 l 446 986 q 464 940 446 954 q 507 926 481 926 q 614 1011 584 926 l 758 1011 z "},"Ŗ":{"ha":947,"x_min":21,"x_max":950,"o":"m 950 721 q 874 532 950 610 q 671 431 798 453 l 671 428 q 806 254 777 389 l 860 0 l 549 0 l 513 216 q 473 310 502 277 q 389 342 444 342 l 386 342 l 314 0 l 21 0 l 227 972 l 608 972 q 860 907 770 972 q 950 721 950 841 m 637 667 q 611 743 637 715 q 530 770 584 770 l 478 770 l 428 547 l 493 547 q 598 582 559 547 q 637 667 637 616 m 368 -319 l 205 -319 l 273 -73 l 502 -73 l 368 -319 z "},"ŗ":{"ha":601,"x_min":-57,"x_max":656,"o":"m 598 447 l 597 447 q 523 464 563 464 q 409 423 452 464 q 342 283 365 382 l 283 0 l -6 0 l 88 443 q 132 694 121 597 l 416 694 q 398 561 408 629 l 401 561 q 487 675 441 638 q 595 711 534 711 q 656 703 621 711 l 598 447 m 105 -319 l -57 -319 l 10 -73 l 239 -73 l 105 -319 z "},"Ŝ":{"ha":794,"x_min":17,"x_max":817,"o":"m 768 699 q 640 755 696 739 q 525 771 583 771 q 452 751 479 771 q 425 700 425 732 q 447 648 425 670 q 541 587 469 627 q 702 461 656 526 q 747 297 747 397 q 695 129 747 203 q 550 19 642 55 q 330 -17 457 -17 q 158 4 238 -17 q 17 57 77 24 l 68 297 q 330 201 197 201 q 436 277 436 201 q 410 333 436 311 q 318 386 384 356 q 161 502 208 437 q 114 665 114 566 q 165 836 114 760 q 307 950 217 912 q 514 989 396 989 q 682 972 608 989 q 817 933 756 955 l 768 699 m 623 1063 l 543 1171 l 422 1063 l 235 1063 l 453 1285 l 668 1285 l 798 1063 l 623 1063 z "},"ŝ":{"ha":660,"x_min":-3,"x_max":709,"o":"m 606 489 q 519 517 570 504 q 427 530 468 530 q 364 492 364 530 q 380 461 364 471 q 421 440 395 451 q 536 381 502 408 q 587 320 570 355 q 603 231 603 284 q 560 101 603 157 q 436 14 517 45 q 239 -17 355 -17 q 106 -7 170 -17 q -3 17 42 3 l 35 216 q 249 161 155 161 q 334 205 334 161 q 315 238 334 225 q 268 260 296 250 q 125 342 166 293 q 83 468 83 391 q 126 597 83 541 q 245 683 170 654 q 424 711 321 711 q 540 702 473 711 q 643 684 607 693 l 606 489 m 534 777 l 454 885 l 334 777 l 146 777 l 364 999 l 579 999 l 709 777 l 534 777 z "},"Ŧ":{"ha":884,"x_min":103,"x_max":993,"o":"m 945 743 l 669 743 l 626 540 l 804 540 l 776 408 l 598 408 l 513 0 l 218 0 l 304 408 l 127 408 l 155 540 l 332 540 l 375 743 l 103 743 l 151 972 l 993 972 l 945 743 z "},"ŧ":{"ha":571,"x_min":-5,"x_max":616,"o":"m 568 494 l 412 494 l 397 421 l 537 421 l 509 289 l 369 289 q 363 236 363 261 q 411 195 363 195 q 504 214 452 195 l 463 14 q 372 -8 431 1 q 267 -17 313 -17 q 66 172 66 -17 q 68 195 66 182 q 84 289 69 207 l -5 289 l 23 421 l 112 421 l 127 494 l 22 494 l 71 694 l 170 694 l 203 854 l 504 924 l 456 694 l 616 694 l 568 494 z "},"Ũ":{"ha":1025,"x_min":89,"x_max":1071,"o":"m 464 -17 q 186 70 283 -17 q 89 322 89 157 q 113 503 89 384 l 212 972 l 507 972 l 406 500 q 390 422 397 459 q 382 357 382 385 q 412 266 382 298 q 497 233 442 233 q 599 277 561 233 q 659 421 637 321 l 777 972 l 1071 972 l 950 404 q 853 151 913 238 q 697 23 792 63 q 464 -17 602 -17 m 955 1303 q 756 1072 912 1072 q 694 1081 720 1072 q 649 1101 669 1090 q 611 1121 629 1112 q 572 1131 593 1131 q 527 1115 544 1131 q 499 1063 509 1100 l 368 1063 q 438 1234 387 1175 q 564 1293 488 1293 q 628 1284 603 1293 q 673 1264 653 1275 q 711 1244 693 1253 q 753 1235 729 1235 q 821 1303 808 1235 l 955 1303 z "},"ũ":{"ha":869,"x_min":28,"x_max":868,"o":"m 746 0 l 453 0 q 464 114 458 79 l 461 114 q 332 16 400 48 q 197 -17 264 -17 q 28 154 28 -17 q 43 272 28 205 l 132 694 l 421 694 l 340 318 q 329 241 329 272 q 339 217 329 228 q 370 207 349 207 q 459 257 419 207 q 514 382 499 308 l 579 694 l 868 694 l 775 258 q 754 123 762 197 q 746 0 746 50 m 829 1017 q 631 786 787 786 q 569 795 594 786 q 524 815 544 804 q 486 835 504 826 q 446 844 468 844 q 401 829 418 844 q 374 777 384 814 l 242 777 q 312 948 262 889 q 439 1007 363 1007 q 503 998 477 1007 q 548 978 528 989 q 586 958 568 967 q 628 949 604 949 q 696 1017 682 949 l 829 1017 z "},"Ū":{"ha":1025,"x_min":89,"x_max":1071,"o":"m 464 -17 q 186 70 283 -17 q 89 322 89 157 q 113 503 89 384 l 212 972 l 507 972 l 406 500 q 390 422 397 459 q 382 357 382 385 q 412 266 382 298 q 497 233 442 233 q 599 277 561 233 q 659 421 637 321 l 777 972 l 1071 972 l 950 404 q 853 151 913 238 q 697 23 792 63 q 464 -17 602 -17 m 425 1063 l 456 1214 l 901 1214 l 869 1063 l 425 1063 z "},"ū":{"ha":869,"x_min":28,"x_max":868,"o":"m 746 0 l 453 0 q 464 114 458 79 l 461 114 q 332 16 400 48 q 197 -17 264 -17 q 28 154 28 -17 q 43 272 28 205 l 132 694 l 421 694 l 340 318 q 329 241 329 272 q 339 217 329 228 q 370 207 349 207 q 459 257 419 207 q 514 382 499 308 l 579 694 l 868 694 l 775 258 q 754 123 762 197 q 746 0 746 50 m 286 777 l 317 928 l 762 928 l 730 777 l 286 777 z "},"Ŭ":{"ha":1025,"x_min":89,"x_max":1071,"o":"m 464 -17 q 186 70 283 -17 q 89 322 89 157 q 113 503 89 384 l 212 972 l 507 972 l 406 500 q 390 422 397 459 q 382 357 382 385 q 412 266 382 298 q 497 233 442 233 q 599 277 561 233 q 659 421 637 321 l 777 972 l 1071 972 l 950 404 q 853 151 913 238 q 697 23 792 63 q 464 -17 602 -17 m 931 1297 q 827 1123 898 1183 q 654 1063 757 1063 q 523 1109 571 1063 q 475 1239 475 1156 q 484 1297 475 1260 l 623 1297 l 618 1272 q 636 1226 618 1240 q 680 1213 654 1213 q 787 1297 757 1213 l 931 1297 z "},"ŭ":{"ha":869,"x_min":28,"x_max":868,"o":"m 746 0 l 453 0 q 464 114 458 79 l 461 114 q 332 16 400 48 q 197 -17 264 -17 q 28 154 28 -17 q 43 272 28 205 l 132 694 l 421 694 l 340 318 q 329 241 329 272 q 339 217 329 228 q 370 207 349 207 q 459 257 419 207 q 514 382 499 308 l 579 694 l 868 694 l 775 258 q 754 123 762 197 q 746 0 746 50 m 784 1011 q 680 837 751 897 q 507 777 610 777 q 376 823 424 777 q 328 953 328 870 q 336 1011 328 974 l 475 1011 l 471 986 q 489 940 471 954 q 532 926 507 926 q 640 1011 610 926 l 784 1011 z "},"Ų":{"ha":1025,"x_min":89,"x_max":1071,"o":"m 464 -17 q 186 70 283 -17 q 89 322 89 157 q 113 503 89 384 l 212 972 l 507 972 l 406 500 q 390 422 397 459 q 382 357 382 385 q 412 266 382 298 q 497 233 442 233 q 599 277 561 233 q 659 421 637 321 l 777 972 l 1071 972 l 950 404 q 853 151 913 238 q 697 23 792 63 q 464 -17 602 -17 m 532 0 q 459 -79 477 -53 q 441 -125 441 -105 q 491 -171 441 -171 q 555 -157 522 -171 l 530 -268 q 427 -289 488 -289 q 315 -258 353 -289 q 276 -172 276 -227 q 303 -92 276 -130 q 401 0 330 -54 l 532 0 z "},"ų":{"ha":869,"x_min":28,"x_max":868,"o":"m 746 0 l 453 0 q 464 114 458 79 l 461 114 q 332 16 400 48 q 197 -17 264 -17 q 28 154 28 -17 q 43 272 28 205 l 132 694 l 421 694 l 340 318 q 329 241 329 272 q 339 217 329 228 q 370 207 349 207 q 459 257 419 207 q 514 382 499 308 l 579 694 l 868 694 l 775 258 q 754 123 762 197 q 746 0 746 50 m 583 0 q 511 -79 529 -53 q 493 -125 493 -105 q 543 -171 493 -171 q 607 -157 573 -171 l 582 -268 q 479 -289 540 -289 q 366 -258 405 -289 q 328 -172 328 -227 q 354 -92 328 -130 q 452 0 381 -54 l 583 0 z "},"Ŵ":{"ha":1463,"x_min":144,"x_max":1579,"o":"m 1128 0 l 821 0 l 798 560 q 807 643 798 589 l 811 667 l 808 667 q 792 618 806 654 q 766 554 779 582 l 507 0 l 171 0 l 144 972 l 453 972 l 425 397 q 411 286 422 355 l 415 286 q 433 342 420 304 q 457 401 447 380 l 722 972 l 1040 972 l 1046 393 q 1043 338 1046 374 q 1039 288 1041 302 l 1042 288 l 1076 397 l 1278 972 l 1579 972 l 1128 0 m 982 1063 l 903 1171 l 782 1063 l 594 1063 l 812 1285 l 1027 1285 l 1157 1063 l 982 1063 z "},"ŵ":{"ha":1174,"x_min":79,"x_max":1234,"o":"m 892 0 l 591 0 l 595 351 q 603 456 595 400 l 600 456 q 580 393 593 427 q 424 0 568 359 l 115 0 l 79 694 l 355 694 l 330 290 q 321 200 325 226 l 325 200 q 357 293 346 267 l 524 694 l 806 694 l 796 293 q 790 201 796 250 l 794 201 l 822 293 l 958 694 l 1234 694 l 892 0 m 757 777 l 677 885 l 557 777 l 369 777 l 587 999 l 802 999 l 932 777 l 757 777 z "},"Ŷ":{"ha":903,"x_min":131,"x_max":1034,"o":"m 518 0 l 224 0 l 294 334 l 131 972 l 449 972 l 489 667 q 496 564 496 614 l 498 564 q 539 661 529 643 l 705 972 l 1034 972 l 589 338 l 518 0 m 680 1063 l 601 1171 l 480 1063 l 292 1063 l 511 1285 l 726 1285 l 855 1063 l 680 1063 z "},"ŷ":{"ha":798,"x_min":-111,"x_max":868,"o":"m 49 -326 q -111 -298 -42 -326 l -64 -86 q 29 -115 -28 -115 q 150 -50 111 -115 l 184 7 l 43 694 l 346 694 l 374 359 q 378 260 378 313 l 376 233 l 379 233 q 404 300 389 263 q 571 694 418 337 l 868 694 l 465 -20 q 336 -207 393 -146 q 209 -296 278 -267 q 49 -326 139 -326 m 560 777 l 481 885 l 360 777 l 172 777 l 391 999 l 606 999 l 735 777 l 560 777 z "},"ſ":{"ha":524,"x_min":-68,"x_max":667,"o":"m 623 812 q 535 833 574 833 q 427 742 446 833 l 218 -231 l -68 -231 l 144 768 q 509 1044 205 1044 q 667 1023 597 1044 l 623 812 z "},"Ǻ":{"ha":1042,"x_min":-64,"x_max":1047,"o":"m 652 0 l 637 179 l 346 179 l 258 0 l -64 0 l 476 972 q 460 1048 460 1005 q 515 1175 460 1127 q 657 1222 570 1222 q 804 1174 749 1222 q 859 1048 859 1126 q 840 968 859 1006 l 950 0 l 652 0 m 729 1048 q 711 1089 729 1072 q 657 1107 694 1107 q 609 1090 628 1107 q 590 1048 590 1073 q 609 1006 590 1023 q 657 989 627 989 q 708 1006 687 989 q 729 1048 729 1023 m 609 684 q 612 750 609 730 l 606 750 l 593 716 l 567 657 l 449 408 l 623 408 l 610 652 l 609 684 m 778 1194 l 557 1194 l 787 1411 l 1047 1411 l 778 1194 z "},"ǻ":{"ha":876,"x_min":33,"x_max":963,"o":"m 758 0 l 472 0 q 482 123 472 22 l 479 123 q 248 -17 376 -17 q 89 54 145 -17 q 33 254 33 125 q 69 436 33 347 q 167 585 104 526 q 321 678 230 645 q 532 711 412 711 q 875 669 695 711 l 785 244 q 766 122 774 196 q 758 0 758 48 m 557 524 q 515 528 541 528 q 418 496 461 528 q 348 403 374 465 q 321 278 321 340 q 338 216 321 237 q 382 195 356 195 q 469 250 431 195 q 530 408 508 305 l 557 524 m 736 936 q 685 820 736 864 q 552 777 633 777 q 424 821 474 777 q 373 936 373 865 q 396 1020 373 985 q 461 1075 420 1056 q 552 1095 503 1095 q 686 1051 636 1095 q 736 936 736 1007 m 618 936 q 602 974 618 958 q 552 990 586 990 q 508 974 526 990 q 491 936 491 958 q 508 897 491 913 q 552 882 526 882 q 599 897 580 882 q 618 936 618 912 m 694 1147 l 473 1147 l 703 1365 l 963 1365 l 694 1147 z "},"Ǽ":{"ha":1390,"x_min":-110,"x_max":1428,"o":"m 1379 743 l 1067 743 l 1038 602 l 1331 602 l 1282 372 l 989 372 l 958 229 l 1293 229 l 1244 0 l 616 0 l 654 179 l 350 179 l 227 0 l -110 0 l 619 972 l 1428 972 l 1379 743 m 736 746 l 509 408 l 703 408 l 775 746 l 736 746 m 1049 1063 l 829 1063 l 1059 1280 l 1318 1280 l 1049 1063 z "},"ǽ":{"ha":1229,"x_min":33,"x_max":1234,"o":"m 1234 504 q 1122 326 1234 383 q 786 261 1011 268 l 786 256 q 819 194 786 216 q 908 172 852 172 q 1027 189 958 172 q 1141 229 1095 206 l 1101 40 q 973 -1 1048 15 q 822 -17 898 -17 q 665 13 734 -17 q 555 106 595 43 l 553 106 q 429 11 493 38 q 278 -17 364 -17 q 151 16 208 -17 q 64 110 95 49 q 33 254 33 171 q 70 431 33 340 q 166 583 106 522 q 313 678 227 644 q 509 711 399 711 q 760 672 624 711 q 957 711 842 711 q 1161 658 1088 711 q 1234 504 1234 604 m 966 505 q 957 532 966 520 q 925 545 948 545 q 847 510 880 545 q 803 412 814 475 q 923 435 879 412 q 966 505 966 458 m 557 524 q 515 528 541 528 q 418 496 461 528 q 348 403 374 465 q 321 278 321 340 q 338 216 321 237 q 382 195 356 195 q 469 250 431 195 q 530 408 508 305 l 557 524 m 752 777 l 532 777 l 762 994 l 1021 994 l 752 777 z "},"Ǿ":{"ha":1061,"x_min":25,"x_max":1059,"o":"m 964 833 q 1040 562 1040 727 q 970 264 1040 402 q 775 55 900 127 q 479 -17 651 -17 q 237 47 336 -17 l 123 -78 l 25 20 l 139 143 q 62 408 62 256 q 134 707 62 570 q 330 916 205 844 q 619 989 454 989 q 861 928 762 989 l 958 1032 l 1059 935 l 964 833 m 696 746 q 650 769 678 760 q 591 778 622 778 q 465 729 520 778 q 376 591 409 680 q 343 419 343 502 l 343 366 l 696 746 m 760 553 q 757 610 760 593 l 401 224 q 504 191 448 191 q 639 239 581 191 q 728 373 697 287 q 760 553 760 458 m 690 1063 l 469 1063 l 699 1280 l 959 1280 l 690 1063 z "},"ǿ":{"ha":839,"x_min":5,"x_max":838,"o":"m 760 583 q 806 406 806 512 q 751 183 806 283 q 598 33 696 83 q 368 -17 500 -17 q 171 26 250 -17 l 86 -54 l 5 43 l 79 114 q 33 290 33 189 q 90 513 33 412 q 244 663 146 614 q 472 711 342 711 q 664 669 583 711 l 757 758 l 838 661 l 760 583 m 498 513 q 453 525 475 525 q 323 467 370 525 q 277 315 277 409 l 277 301 l 498 513 m 562 382 l 561 401 l 339 187 q 389 171 364 171 q 517 226 471 171 q 562 382 562 281 m 534 777 l 313 777 l 543 994 l 803 994 l 534 777 z "},"·":{"ha":444,"x_min":119,"x_max":382,"o":"m 382 489 q 342 403 382 435 q 243 372 303 372 q 154 399 189 372 q 119 473 119 427 q 158 558 119 525 q 260 591 197 591 q 347 563 313 591 q 382 489 382 534 z "},"Ẁ":{"ha":1463,"x_min":144,"x_max":1579,"o":"m 1128 0 l 821 0 l 798 560 q 807 643 798 589 l 811 667 l 808 667 q 792 618 806 654 q 766 554 779 582 l 507 0 l 171 0 l 144 972 l 453 972 l 425 397 q 411 286 422 355 l 415 286 q 433 342 420 304 q 457 401 447 380 l 722 972 l 1040 972 l 1046 393 q 1043 338 1046 374 q 1039 288 1041 302 l 1042 288 l 1076 397 l 1278 972 l 1579 972 l 1128 0 m 832 1063 l 652 1280 l 882 1280 l 1024 1063 l 832 1063 z "},"ẁ":{"ha":1174,"x_min":79,"x_max":1234,"o":"m 892 0 l 591 0 l 595 351 q 603 456 595 400 l 600 456 q 580 393 593 427 q 424 0 568 359 l 115 0 l 79 694 l 355 694 l 330 290 q 321 200 325 226 l 325 200 q 357 293 346 267 l 524 694 l 806 694 l 796 293 q 790 201 796 250 l 794 201 l 822 293 l 958 694 l 1234 694 l 892 0 m 648 777 l 467 994 l 698 994 l 840 777 l 648 777 z "},"Ẃ":{"ha":1463,"x_min":144,"x_max":1579,"o":"m 1128 0 l 821 0 l 798 560 q 807 643 798 589 l 811 667 l 808 667 q 792 618 806 654 q 766 554 779 582 l 507 0 l 171 0 l 144 972 l 453 972 l 425 397 q 411 286 422 355 l 415 286 q 433 342 420 304 q 457 401 447 380 l 722 972 l 1040 972 l 1046 393 q 1043 338 1046 374 q 1039 288 1041 302 l 1042 288 l 1076 397 l 1278 972 l 1579 972 l 1128 0 m 945 1063 l 724 1063 l 954 1280 l 1214 1280 l 945 1063 z "},"ẃ":{"ha":1174,"x_min":79,"x_max":1234,"o":"m 892 0 l 591 0 l 595 351 q 603 456 595 400 l 600 456 q 580 393 593 427 q 424 0 568 359 l 115 0 l 79 694 l 355 694 l 330 290 q 321 200 325 226 l 325 200 q 357 293 346 267 l 524 694 l 806 694 l 796 293 q 790 201 796 250 l 794 201 l 822 293 l 958 694 l 1234 694 l 892 0 m 754 777 l 534 777 l 764 994 l 1023 994 l 754 777 z "},"Ẅ":{"ha":1463,"x_min":144,"x_max":1579,"o":"m 1128 0 l 821 0 l 798 560 q 807 643 798 589 l 811 667 l 808 667 q 792 618 806 654 q 766 554 779 582 l 507 0 l 171 0 l 144 972 l 453 972 l 425 397 q 411 286 422 355 l 415 286 q 433 342 420 304 q 457 401 447 380 l 722 972 l 1040 972 l 1046 393 q 1043 338 1046 374 q 1039 288 1041 302 l 1042 288 l 1076 397 l 1278 972 l 1579 972 l 1128 0 m 1184 1174 q 1149 1094 1184 1124 q 1054 1063 1114 1063 q 960 1094 997 1063 q 923 1174 923 1126 q 959 1252 923 1222 q 1054 1282 995 1282 q 1148 1252 1112 1282 q 1184 1174 1184 1221 m 844 1174 q 809 1094 844 1126 q 713 1063 774 1063 q 620 1095 656 1063 q 583 1174 583 1127 q 619 1252 583 1222 q 713 1282 655 1282 q 808 1252 772 1282 q 844 1174 844 1223 z "},"ẅ":{"ha":1174,"x_min":79,"x_max":1234,"o":"m 892 0 l 591 0 l 595 351 q 603 456 595 400 l 600 456 q 580 393 593 427 q 424 0 568 359 l 115 0 l 79 694 l 355 694 l 330 290 q 321 200 325 226 l 325 200 q 357 293 346 267 l 524 694 l 806 694 l 796 293 q 790 201 796 250 l 794 201 l 822 293 l 958 694 l 1234 694 l 892 0 m 980 888 q 945 807 980 838 q 850 777 909 777 q 756 808 793 777 q 719 888 719 840 q 755 966 719 936 q 850 996 791 996 q 944 965 908 996 q 980 888 980 935 m 640 888 q 605 808 640 840 q 509 777 570 777 q 415 809 452 777 q 379 888 379 841 q 415 966 379 936 q 509 996 451 996 q 604 966 568 996 q 640 888 640 937 z "},"Ỳ":{"ha":903,"x_min":131,"x_max":1034,"o":"m 518 0 l 224 0 l 294 334 l 131 972 l 449 972 l 489 667 q 496 564 496 614 l 498 564 q 539 661 529 643 l 705 972 l 1034 972 l 589 338 l 518 0 m 543 1063 l 363 1280 l 593 1280 l 735 1063 l 543 1063 z "},"ỳ":{"ha":798,"x_min":-111,"x_max":868,"o":"m 49 -326 q -111 -298 -42 -326 l -64 -86 q 29 -115 -28 -115 q 150 -50 111 -115 l 184 7 l 43 694 l 346 694 l 374 359 q 378 260 378 313 l 376 233 l 379 233 q 404 300 389 263 q 571 694 418 337 l 868 694 l 465 -20 q 336 -207 393 -146 q 209 -296 278 -267 q 49 -326 139 -326 m 442 777 l 262 994 l 492 994 l 634 777 l 442 777 z "},"‛":{"ha":498,"x_min":208,"x_max":512,"o":"m 208 996 l 429 996 l 512 694 l 344 694 l 208 996 z "},"₤":{"ha":832,"x_min":7,"x_max":833,"o":"m 447 320 q 351 211 411 254 l 747 211 l 702 0 l 7 0 l 49 197 q 143 242 109 212 q 197 320 178 273 l 89 320 l 114 437 l 225 437 l 245 534 l 134 534 l 159 649 l 270 649 l 277 685 q 408 907 307 825 q 653 989 508 989 q 833 951 758 989 l 786 732 q 730 766 764 753 q 661 778 696 778 q 527 649 551 778 l 694 649 l 669 534 l 503 534 l 482 437 l 649 437 l 624 320 l 447 320 z "},"℮":{"ha":833,"x_min":58,"x_max":776,"o":"m 776 359 l 214 359 l 215 109 q 416 26 296 26 q 684 193 589 26 l 732 164 q 588 19 662 62 q 416 -24 515 -24 q 157 85 256 -24 q 58 359 58 195 q 156 636 58 530 q 414 743 254 743 q 671 639 575 743 q 776 359 768 534 m 618 410 l 618 611 q 413 694 530 694 q 214 611 295 694 l 214 410 l 618 410 z "},"⅛":{"ha":1384,"x_min":121,"x_max":1320,"o":"m 188 396 l 274 810 q 195 773 233 787 q 121 753 157 760 l 150 895 q 203 907 174 898 q 263 929 233 916 q 321 958 293 943 q 370 986 349 972 l 487 986 l 364 396 l 188 396 m 398 0 l 183 0 l 1015 972 l 1229 972 l 398 0 m 794 141 q 947 302 794 272 q 903 349 922 316 q 885 422 885 382 q 946 543 885 496 q 1109 589 1006 589 q 1264 548 1208 589 q 1320 434 1320 507 q 1183 291 1320 321 q 1242 241 1220 277 q 1265 157 1265 205 q 1235 68 1265 107 q 1150 8 1206 30 q 1016 -14 1095 -14 q 855 29 916 -14 q 794 141 794 73 m 968 160 q 984 116 968 132 q 1027 101 1001 101 q 1075 120 1056 101 q 1095 172 1095 139 q 1081 215 1095 197 q 1036 233 1067 233 q 988 215 1008 233 q 968 160 968 197 m 1045 403 q 1059 361 1045 374 q 1095 349 1074 349 q 1137 368 1121 349 q 1153 413 1153 387 q 1103 469 1153 469 q 1061 451 1078 469 q 1045 403 1045 433 z "},"⅜":{"ha":1357,"x_min":54,"x_max":1300,"o":"m 86 554 q 156 530 109 541 q 244 518 203 518 q 318 535 295 518 q 341 576 341 552 q 320 609 341 598 q 245 620 299 620 l 163 620 l 193 756 l 277 756 q 348 771 322 756 q 374 808 374 787 q 299 850 374 850 q 230 842 266 850 q 167 823 193 834 l 198 959 q 370 986 274 986 q 510 946 458 986 q 562 840 562 905 q 525 746 562 786 q 425 692 488 707 l 425 690 q 500 647 474 680 q 526 561 526 614 q 493 468 526 509 q 399 405 460 427 q 250 382 337 382 q 144 391 201 382 q 54 414 87 400 l 86 554 m 371 0 l 156 0 l 988 972 l 1202 972 l 371 0 m 774 141 q 927 302 774 272 q 883 349 901 316 q 865 422 865 382 q 925 543 865 496 q 1088 589 986 589 q 1244 548 1187 589 q 1300 434 1300 507 q 1163 291 1300 321 q 1222 241 1200 277 q 1244 157 1244 205 q 1215 68 1244 107 q 1130 8 1185 30 q 996 -14 1074 -14 q 834 29 895 -14 q 774 141 774 73 m 947 160 q 964 116 947 132 q 1006 101 981 101 q 1055 120 1036 101 q 1074 172 1074 139 q 1060 215 1074 197 q 1016 233 1046 233 q 967 215 987 233 q 947 160 947 197 m 1025 403 q 1039 361 1025 374 q 1075 349 1053 349 q 1117 368 1101 349 q 1133 413 1133 387 q 1083 469 1133 469 q 1041 451 1057 469 q 1025 403 1025 433 z "},"⅝":{"ha":1335,"x_min":43,"x_max":1284,"o":"m 43 416 l 70 547 q 133 522 101 530 q 200 514 165 514 q 313 572 301 514 q 315 583 315 579 q 210 629 315 629 q 186 629 199 629 q 157 627 172 628 q 124 625 141 626 q 91 621 107 623 l 218 974 l 551 974 l 521 828 l 313 828 l 286 759 q 310 761 296 760 q 333 761 323 761 q 459 727 416 761 q 502 629 502 693 q 496 582 502 609 q 401 432 475 483 q 206 382 326 382 q 43 416 98 382 m 351 0 l 136 0 l 968 972 l 1181 972 l 351 0 m 758 141 q 911 302 758 272 q 867 349 885 316 q 848 422 848 382 q 909 543 848 496 q 1072 589 970 589 q 1227 548 1171 589 q 1284 434 1284 507 q 1147 291 1284 321 q 1206 241 1183 277 q 1228 157 1228 205 q 1199 68 1228 107 q 1114 8 1169 30 q 979 -14 1058 -14 q 818 29 879 -14 q 758 141 758 73 m 931 160 q 948 116 931 132 q 990 101 964 101 q 1039 120 1019 101 q 1058 172 1058 139 q 1044 215 1058 197 q 1000 233 1030 233 q 951 215 971 233 q 931 160 931 197 m 1008 403 q 1023 361 1008 374 q 1059 349 1037 349 q 1100 368 1084 349 q 1116 413 1116 387 q 1067 469 1116 469 q 1025 451 1041 469 q 1008 403 1008 433 z "},"⅞":{"ha":1274,"x_min":75,"x_max":1230,"o":"m 604 876 q 432 647 507 766 q 308 396 357 528 l 123 396 q 174 497 146 445 q 237 605 201 549 q 317 719 273 661 q 418 840 362 778 l 168 840 l 196 972 l 624 972 l 604 876 m 290 0 l 75 0 l 907 972 l 1120 972 l 290 0 m 703 141 q 857 302 703 272 q 812 349 831 316 q 794 422 794 382 q 855 543 794 496 q 1018 589 916 589 q 1173 548 1117 589 q 1230 434 1230 507 q 1093 291 1230 321 q 1152 241 1129 277 q 1174 157 1174 205 q 1144 68 1174 107 q 1059 8 1115 30 q 925 -14 1004 -14 q 764 29 825 -14 q 703 141 703 73 m 877 160 q 893 116 877 132 q 936 101 910 101 q 984 120 965 101 q 1004 172 1004 139 q 990 215 1004 197 q 945 233 976 233 q 897 215 917 233 q 877 160 877 197 m 954 403 q 968 361 954 374 q 1004 349 983 349 q 1046 368 1030 349 q 1062 413 1062 387 q 1013 469 1062 469 q 970 451 987 469 q 954 403 954 433 z "},";":{"ha":444,"x_min":-100,"x_max":429,"o":"m 429 568 q 382 464 429 504 q 258 424 335 424 q 149 458 192 424 q 106 549 106 492 q 153 654 106 614 q 278 694 199 694 q 387 659 345 694 q 429 568 429 624 m 140 -161 l -100 -161 l 69 184 l 338 184 l 140 -161 z "},"΄":{"ha":494,"x_min":115,"x_max":461,"o":"m 264 782 l 115 782 l 218 1000 l 461 1000 l 264 782 z "},"΅":{"ha":733,"x_min":11,"x_max":722,"o":"m 722 885 q 689 812 722 839 q 604 785 656 785 q 520 813 553 785 q 488 885 488 841 q 520 955 488 928 q 604 982 552 982 q 689 955 656 982 q 722 885 722 928 m 404 833 l 277 833 l 319 1093 l 549 1093 l 404 833 m 245 885 q 213 812 245 839 q 129 785 181 785 q 44 813 78 785 q 11 885 11 841 q 44 956 11 929 q 129 982 77 982 q 213 956 181 982 q 245 885 245 929 z "},"Ά":{"ha":1105,"x_min":0,"x_max":1014,"o":"m 715 0 l 701 179 l 410 179 l 322 0 l 0 0 l 540 972 l 904 972 l 1014 0 l 715 0 m 673 684 q 676 750 673 730 l 669 750 l 656 716 l 631 657 l 513 408 l 686 408 l 673 652 l 673 684 m 182 755 l 34 755 l 137 973 l 380 973 l 182 755 z "},"Έ":{"ha":1024,"x_min":68,"x_max":1090,"o":"m 1041 743 l 728 743 l 699 602 l 992 602 l 944 372 l 651 372 l 621 229 l 955 229 l 906 0 l 279 0 l 484 972 l 1090 972 l 1041 743 m 217 755 l 68 755 l 172 973 l 414 973 l 217 755 z "},"Ή":{"ha":1374,"x_min":68,"x_max":1409,"o":"m 1202 0 l 907 0 l 985 363 l 648 363 l 571 0 l 278 0 l 485 972 l 778 972 l 701 612 l 1038 612 l 1114 972 l 1409 972 l 1202 0 m 217 755 l 68 755 l 172 973 l 414 973 l 217 755 z "},"Ί":{"ha":743,"x_min":68,"x_max":777,"o":"m 572 0 l 279 0 l 484 972 l 777 972 l 572 0 m 217 755 l 68 755 l 172 973 l 414 973 l 217 755 z "},"Ό":{"ha":1294,"x_min":68,"x_max":1273,"o":"m 1273 562 q 1203 264 1273 402 q 1008 55 1133 127 q 712 -17 884 -17 q 488 36 582 -17 q 345 186 394 90 q 295 408 295 283 q 366 707 295 570 q 562 916 437 844 q 852 989 687 989 q 1160 875 1048 989 q 1273 562 1273 761 m 962 553 q 925 688 962 642 q 819 734 888 734 q 707 692 755 734 q 633 573 660 649 q 606 415 606 498 q 644 279 606 325 q 747 233 681 233 q 856 271 808 233 q 933 387 904 309 q 962 553 962 465 m 217 755 l 68 755 l 172 973 l 414 973 l 217 755 z "},"Ύ":{"ha":1236,"x_min":68,"x_max":1367,"o":"m 852 0 l 557 0 l 628 334 l 465 972 l 783 972 l 823 667 q 829 564 829 614 l 832 564 q 873 661 863 643 l 1039 972 l 1367 972 l 922 338 l 852 0 m 217 755 l 68 755 l 172 973 l 414 973 l 217 755 z "},"Ώ":{"ha":1347,"x_min":68,"x_max":1348,"o":"m 779 0 l 838 275 q 985 399 935 326 q 1034 576 1034 472 q 990 694 1034 648 q 873 739 947 739 q 762 711 810 739 q 688 630 715 684 q 661 497 661 577 q 684 375 661 433 q 749 275 707 317 l 690 0 l 244 0 l 293 229 l 530 229 q 400 367 450 281 q 350 546 350 454 q 415 780 350 681 q 603 934 480 879 q 888 989 726 989 q 1127 942 1022 989 q 1290 809 1232 896 q 1348 611 1348 722 q 1271 381 1348 480 q 1053 229 1194 281 l 1275 229 l 1226 0 l 779 0 m 217 755 l 68 755 l 172 973 l 414 973 l 217 755 z "},"ΐ":{"ha":509,"x_min":-15,"x_max":696,"o":"m 260 -17 q 99 37 158 -17 q 40 179 40 90 q 54 285 40 222 l 143 694 l 432 694 l 347 294 q 340 241 340 256 q 387 203 340 203 q 464 220 425 203 l 419 9 q 357 -8 399 0 q 260 -17 315 -17 m 696 885 q 664 812 696 839 q 578 785 631 785 q 494 813 527 785 q 462 885 462 841 q 494 955 462 928 q 578 982 526 982 q 664 955 631 982 q 696 885 696 928 m 378 833 l 251 833 l 294 1093 l 523 1093 l 378 833 m 220 885 q 188 812 220 839 q 103 785 155 785 q 19 813 52 785 q -15 885 -15 841 q 18 956 -15 929 q 103 982 51 982 q 188 956 155 982 q 220 885 220 929 z "},"Α":{"ha":1042,"x_min":-64,"x_max":950,"o":"m 652 0 l 637 179 l 346 179 l 258 0 l -64 0 l 476 972 l 840 972 l 950 0 l 652 0 m 609 684 q 612 750 609 730 l 606 750 l 593 716 l 567 657 l 449 408 l 623 408 l 610 652 l 609 684 z "},"Β":{"ha":974,"x_min":21,"x_max":965,"o":"m 965 745 q 900 593 965 653 q 722 511 836 532 l 722 509 q 865 442 814 497 q 917 301 917 387 q 866 141 917 209 q 716 37 815 74 q 476 0 618 0 l 21 0 l 227 972 l 627 972 q 882 917 798 972 q 965 745 965 861 m 654 688 q 627 756 654 736 q 532 777 600 777 l 478 777 l 439 593 l 530 593 q 620 621 585 593 q 654 688 654 648 m 606 307 q 580 372 606 347 q 509 396 554 396 l 399 396 l 354 197 l 457 197 q 566 227 527 197 q 606 307 606 256 z "},"Ε":{"ha":766,"x_min":21,"x_max":832,"o":"m 783 743 l 471 743 l 441 602 l 734 602 l 686 372 l 393 372 l 363 229 l 697 229 l 648 0 l 21 0 l 227 972 l 832 972 l 783 743 z "},"Ζ":{"ha":890,"x_min":-33,"x_max":974,"o":"m 401 229 l 831 229 l 782 0 l -33 0 l 9 205 l 561 743 l 151 743 l 200 972 l 974 972 l 930 768 l 401 229 z "},"Η":{"ha":1116,"x_min":20,"x_max":1150,"o":"m 943 0 l 648 0 l 726 363 l 390 363 l 313 0 l 20 0 l 227 972 l 519 972 l 443 612 l 779 612 l 856 972 l 1150 972 l 943 0 z "},"Ι":{"ha":484,"x_min":20,"x_max":518,"o":"m 313 0 l 20 0 l 225 972 l 518 972 l 313 0 z "},"Κ":{"ha":958,"x_min":21,"x_max":1093,"o":"m 1093 972 l 713 509 l 914 0 l 558 0 l 427 406 q 414 461 420 422 l 411 461 l 314 0 l 21 0 l 227 972 l 519 972 l 425 525 l 428 525 l 445 551 l 746 972 l 1093 972 z "},"Λ":{"ha":1042,"x_min":-64,"x_max":950,"o":"m 640 0 l 613 684 l 614 750 l 607 750 q 593 714 606 744 q 568 657 581 684 l 261 0 l -64 0 l 465 972 l 840 972 l 950 0 l 640 0 z "},"Μ":{"ha":1369,"x_min":20,"x_max":1404,"o":"m 1198 0 l 909 0 l 1031 572 l 1063 718 l 1057 718 l 1007 597 l 733 0 l 464 0 l 429 564 q 425 718 425 621 l 419 718 q 374 444 399 568 l 279 0 l 20 0 l 225 972 l 636 972 l 670 391 q 667 300 670 347 l 671 300 q 694 368 682 332 q 720 432 707 404 l 957 972 l 1404 972 l 1198 0 z "},"Ν":{"ha":1146,"x_min":20,"x_max":1181,"o":"m 975 0 l 745 0 l 463 476 q 412 576 424 543 l 410 576 q 379 415 397 494 l 290 0 l 20 0 l 225 972 l 478 972 l 750 521 q 773 478 759 508 q 794 428 788 449 l 798 428 q 806 481 800 453 l 909 972 l 1181 972 l 975 0 z "},"Ξ":{"ha":822,"x_min":-29,"x_max":896,"o":"m 142 743 l 191 972 l 896 972 l 847 743 l 142 743 m 168 375 l 216 604 l 714 604 l 665 375 l 168 375 m -29 0 l 20 229 l 753 229 l 704 0 l -29 0 z "},"Ο":{"ha":1061,"x_min":62,"x_max":1040,"o":"m 1040 562 q 970 264 1040 402 q 775 55 900 127 q 479 -17 651 -17 q 255 36 349 -17 q 112 186 161 90 q 62 408 62 283 q 134 707 62 570 q 330 916 205 844 q 619 989 454 989 q 928 875 815 989 q 1040 562 1040 761 m 729 553 q 692 688 729 642 q 586 734 655 734 q 475 692 522 734 q 400 573 427 649 q 374 415 374 498 q 411 279 374 325 q 514 233 448 233 q 623 271 575 233 q 700 387 671 309 q 729 553 729 465 z "},"Π":{"ha":1086,"x_min":21,"x_max":1121,"o":"m 623 0 l 775 722 l 467 722 l 314 0 l 21 0 l 227 972 l 1121 972 l 916 0 l 623 0 z "},"Ρ":{"ha":925,"x_min":21,"x_max":958,"o":"m 958 679 q 903 484 958 569 q 749 355 848 398 q 518 313 651 313 l 379 313 l 314 0 l 21 0 l 227 972 l 619 972 q 871 897 783 972 q 958 679 958 821 m 647 659 q 616 735 647 709 q 526 762 585 762 l 475 762 l 425 522 l 507 522 q 609 561 570 522 q 647 659 647 599 z "},"Σ":{"ha":854,"x_min":-54,"x_max":925,"o":"m -54 0 l -17 178 l 383 501 l 135 817 l 167 972 l 925 972 l 876 743 l 522 743 l 714 497 l 400 229 l 806 229 l 757 0 l -54 0 z "},"Τ":{"ha":884,"x_min":103,"x_max":993,"o":"m 945 743 l 669 743 l 513 0 l 218 0 l 375 743 l 103 743 l 151 972 l 993 972 l 945 743 z "},"Υ":{"ha":903,"x_min":131,"x_max":1034,"o":"m 518 0 l 224 0 l 294 334 l 131 972 l 449 972 l 489 667 q 496 564 496 614 l 498 564 q 539 661 529 643 l 705 972 l 1034 972 l 589 338 l 518 0 z "},"Χ":{"ha":975,"x_min":-82,"x_max":1099,"o":"m 715 475 l 888 0 l 557 0 l 503 252 q 494 335 496 283 l 494 355 l 492 355 q 446 261 471 301 l 281 0 l -82 0 l 317 503 l 153 972 l 493 972 l 530 728 q 538 644 537 688 l 538 621 l 541 621 q 559 667 546 636 q 584 716 572 698 q 758 972 596 734 l 1099 972 l 715 475 z "},"Ψ":{"ha":1208,"x_min":138,"x_max":1250,"o":"m 753 464 l 760 464 q 869 504 829 465 q 928 633 909 543 l 1000 972 l 1250 972 l 1173 604 q 1088 397 1146 479 q 939 274 1029 315 q 708 224 849 232 l 703 224 l 656 0 l 406 0 l 453 224 l 447 224 q 220 309 303 230 q 138 519 138 387 q 147 616 138 576 l 222 972 l 472 972 l 399 624 q 390 555 390 581 q 418 490 390 515 q 496 464 447 464 l 503 464 l 611 972 l 861 972 l 753 464 z "},"Ω":{"ha":1076,"x_min":-26,"x_max":1078,"o":"m 509 0 l 567 275 q 714 399 665 326 q 764 576 764 472 q 720 694 764 648 q 603 739 676 739 q 492 711 539 739 q 417 630 444 684 q 390 497 390 577 q 413 375 390 433 q 478 275 437 317 l 419 0 l -26 0 l 22 229 l 260 229 q 129 367 179 281 q 79 546 79 454 q 144 780 79 681 q 333 934 210 879 q 618 989 456 989 q 856 942 751 989 q 1019 809 961 896 q 1078 611 1078 722 q 1001 381 1078 480 q 782 229 924 281 l 1004 229 l 956 0 l 509 0 z "},"Ϊ":{"ha":484,"x_min":20,"x_max":677,"o":"m 313 0 l 20 0 l 225 972 l 518 972 l 313 0 m 677 1174 q 642 1094 677 1124 q 547 1063 607 1063 q 453 1094 490 1063 q 416 1174 416 1126 q 452 1252 416 1222 q 547 1282 488 1282 q 642 1252 606 1282 q 677 1174 677 1221 m 338 1174 q 303 1094 338 1126 q 207 1063 268 1063 q 113 1095 149 1063 q 77 1174 77 1127 q 113 1252 77 1222 q 207 1282 149 1282 q 302 1252 266 1282 q 338 1174 338 1223 z "},"Ϋ":{"ha":903,"x_min":131,"x_max":1034,"o":"m 518 0 l 224 0 l 294 334 l 131 972 l 449 972 l 489 667 q 496 564 496 614 l 498 564 q 539 661 529 643 l 705 972 l 1034 972 l 589 338 l 518 0 m 905 1174 q 869 1094 905 1124 q 774 1063 834 1063 q 681 1094 718 1063 q 644 1174 644 1126 q 680 1252 644 1222 q 774 1282 715 1282 q 869 1252 833 1282 q 905 1174 905 1221 m 565 1174 q 530 1094 565 1126 q 434 1063 495 1063 q 340 1095 376 1063 q 304 1174 304 1127 q 340 1252 304 1222 q 434 1282 376 1282 q 529 1252 493 1282 q 565 1174 565 1223 z "},"ά":{"ha":918,"x_min":24,"x_max":965,"o":"m 511 353 q 496 463 509 426 q 449 500 483 500 q 384 465 414 500 q 334 373 353 430 q 315 261 315 317 q 329 213 315 232 q 367 195 342 195 q 431 227 397 195 q 493 315 466 260 l 511 353 m 523 131 q 267 -17 412 -17 q 90 55 155 -17 q 24 248 24 126 q 79 481 24 374 q 230 650 134 589 q 441 711 326 711 q 560 682 511 711 q 633 608 608 653 l 636 608 l 677 694 l 965 694 l 742 357 q 765 243 746 281 q 815 205 785 205 q 883 220 849 205 l 840 14 q 695 -12 785 -12 q 575 27 618 -12 q 527 131 532 66 l 523 131 m 530 782 l 382 782 l 485 1000 l 728 1000 l 530 782 z "},"έ":{"ha":673,"x_min":1,"x_max":693,"o":"m 562 16 q 313 -17 437 -17 q 86 36 170 -17 q 1 180 1 90 q 48 295 1 250 q 184 358 94 340 l 186 361 q 120 415 146 380 q 94 501 94 451 q 183 656 94 600 q 456 711 272 711 q 675 685 572 711 l 639 509 q 482 536 549 536 q 407 522 434 536 q 380 481 380 508 q 404 442 380 458 q 481 427 427 427 q 561 433 509 427 l 526 269 q 425 275 469 275 q 335 259 367 275 q 302 214 302 243 q 329 173 302 188 q 403 158 355 158 q 505 170 455 158 q 602 197 555 182 l 566 16 l 562 16 m 496 782 l 347 782 l 450 1000 l 693 1000 l 496 782 z "},"ή":{"ha":903,"x_min":20,"x_max":862,"o":"m 426 570 q 554 672 481 633 q 695 711 626 711 q 862 541 862 711 q 842 404 862 493 l 691 -319 l 402 -319 l 551 385 q 562 454 562 435 q 550 488 562 475 q 516 500 537 500 q 437 451 479 500 q 381 342 394 403 l 309 0 l 20 0 l 107 409 q 113 453 113 432 q 74 489 113 489 q 28 480 54 489 l 71 682 q 234 709 125 709 q 373 672 323 709 q 423 570 423 636 l 426 570 m 584 782 l 435 782 l 538 1000 l 781 1000 l 584 782 z "},"ί":{"ha":509,"x_min":40,"x_max":535,"o":"m 260 -17 q 99 37 158 -17 q 40 179 40 90 q 54 285 40 222 l 143 694 l 432 694 l 347 294 q 340 241 340 256 q 387 203 340 203 q 464 220 425 203 l 419 9 q 357 -8 399 0 q 260 -17 315 -17 m 338 782 l 189 782 l 292 1000 l 535 1000 l 338 782 z "},"ΰ":{"ha":930,"x_min":38,"x_max":907,"o":"m 383 277 q 401 224 383 246 q 456 203 420 203 q 560 275 526 203 q 595 521 595 348 q 583 694 595 618 l 872 694 q 886 518 886 600 q 421 -17 886 -17 q 242 14 317 -17 q 129 103 168 45 q 89 236 89 160 q 105 361 89 293 l 117 410 q 123 454 123 433 q 83 490 123 490 q 38 481 63 490 l 80 683 q 243 709 135 709 q 387 674 341 709 q 432 579 432 639 q 420 481 432 538 l 390 339 q 383 277 383 312 m 907 885 q 874 812 907 839 q 789 785 842 785 q 705 813 738 785 q 673 885 673 841 q 705 955 673 928 q 789 982 737 982 q 874 955 842 982 q 907 885 907 928 m 589 833 l 462 833 l 505 1093 l 734 1093 l 589 833 m 431 885 q 398 812 431 839 q 314 785 366 785 q 230 813 263 785 q 196 885 196 841 q 229 956 196 929 q 314 982 262 982 q 398 956 366 982 q 431 885 431 929 z "},"β":{"ha":913,"x_min":-74,"x_max":923,"o":"m 863 304 q 756 67 863 151 q 456 -17 650 -17 q 284 9 355 -17 l 215 -319 l -74 -319 l 134 671 q 281 952 174 861 q 569 1044 389 1044 q 756 1010 675 1044 q 880 913 836 976 q 923 771 923 851 q 860 614 923 680 q 692 530 797 549 l 692 528 q 817 442 770 503 q 863 304 863 381 m 569 307 q 533 391 569 362 q 416 419 496 419 l 457 611 q 580 648 535 612 q 625 755 625 684 q 606 812 625 790 q 555 833 587 833 q 473 795 505 833 q 421 660 441 757 l 328 224 q 439 195 380 195 q 534 224 499 195 q 569 307 569 253 z "},"γ":{"ha":846,"x_min":34,"x_max":865,"o":"m 382 -319 l 96 -319 q 142 -144 117 -246 q 178 14 167 -42 l 178 29 q 160 208 178 99 q 103 460 142 316 q 34 694 64 605 l 355 694 q 400 473 380 606 q 423 252 420 341 l 426 252 q 565 596 519 389 q 577 694 572 632 l 865 694 q 854 615 859 645 q 443 -50 777 259 l 427 -123 q 382 -319 392 -283 z "},"ζ":{"ha":675,"x_min":24,"x_max":785,"o":"m 597 -3 q 567 -116 597 -60 q 490 -210 536 -172 l 197 -210 q 290 -93 290 -146 q 263 -37 290 -62 q 151 31 235 -12 q 24 235 24 98 q 104 470 24 348 q 370 745 185 592 l 465 825 l 465 828 l 222 828 l 265 1028 l 785 1028 l 742 828 l 658 755 q 401 500 472 599 q 330 317 330 402 q 354 243 330 274 q 443 182 378 213 q 563 97 528 141 q 597 -3 597 53 z "},"η":{"ha":903,"x_min":20,"x_max":862,"o":"m 426 570 q 554 672 481 633 q 695 711 626 711 q 862 541 862 711 q 842 404 862 493 l 691 -319 l 402 -319 l 551 385 q 562 454 562 435 q 550 488 562 475 q 516 500 537 500 q 437 451 479 500 q 381 342 394 403 l 309 0 l 20 0 l 107 409 q 113 453 113 432 q 74 489 113 489 q 28 480 54 489 l 71 682 q 234 709 125 709 q 373 672 323 709 q 423 570 423 636 l 426 570 z "},"θ":{"ha":880,"x_min":53,"x_max":897,"o":"m 897 696 q 829 332 897 497 q 642 75 760 167 q 382 -17 524 -17 q 140 74 227 -17 q 53 332 53 164 q 118 697 53 532 q 301 954 183 862 q 568 1046 420 1046 q 744 1002 669 1046 q 858 880 819 959 q 897 696 897 800 m 603 615 q 611 711 611 667 q 543 831 611 831 q 392 615 452 831 l 603 615 m 349 415 q 342 318 342 366 q 408 196 342 196 q 558 415 494 196 l 349 415 z "},"ι":{"ha":509,"x_min":40,"x_max":464,"o":"m 260 -17 q 99 37 158 -17 q 40 179 40 90 q 54 285 40 222 l 143 694 l 432 694 l 347 294 q 340 241 340 256 q 387 203 340 203 q 464 220 425 203 l 419 9 q 357 -8 399 0 q 260 -17 315 -17 z "},"κ":{"ha":848,"x_min":-3,"x_max":846,"o":"m 465 0 l 395 260 l 328 201 l 286 0 l -3 0 l 144 694 l 433 694 l 378 433 l 500 570 q 750 705 623 705 q 806 701 777 705 q 846 693 835 697 l 798 468 q 746 478 775 478 q 661 446 699 478 l 621 411 l 777 0 l 465 0 z "},"λ":{"ha":802,"x_min":-56,"x_max":736,"o":"m 462 0 l 431 387 l 258 0 l -56 0 l 391 696 l 389 718 q 296 794 378 794 q 225 783 264 794 q 170 760 186 771 l 210 993 q 393 1021 294 1021 q 526 990 473 1021 q 610 902 579 959 q 652 740 640 844 l 736 0 l 462 0 z "},"μ":{"ha":940,"x_min":-75,"x_max":906,"o":"m 488 125 q 393 29 450 66 q 277 -14 336 -8 l 214 -319 l -75 -319 l 139 694 l 428 694 l 347 318 q 338 245 338 261 q 376 207 338 207 q 466 256 426 207 q 521 382 506 306 l 586 694 l 875 694 l 789 294 q 783 241 783 266 q 829 203 783 203 q 906 220 867 203 l 861 9 q 800 -8 842 0 q 702 -17 758 -17 q 557 22 613 -17 q 491 125 501 60 l 488 125 z "},"ν":{"ha":821,"x_min":41,"x_max":800,"o":"m 800 611 q 705 302 800 458 q 427 0 610 146 l 175 0 l 41 694 l 329 694 l 387 231 q 490 391 450 288 q 530 587 530 494 q 517 694 530 656 l 791 694 q 800 611 800 665 z "},"ξ":{"ha":706,"x_min":27,"x_max":778,"o":"m 27 235 q 104 424 27 343 q 323 546 182 505 q 251 600 279 566 q 223 668 223 633 q 258 754 223 717 q 370 823 292 792 l 370 828 l 193 828 l 236 1028 l 778 1028 l 737 839 q 544 777 612 819 q 475 681 475 735 q 494 637 475 657 q 542 606 512 616 q 600 610 555 608 q 669 612 645 612 l 623 390 q 517 399 583 399 q 380 375 427 399 q 334 307 334 351 q 347 267 334 285 q 381 234 360 249 q 478 182 403 218 q 598 97 564 141 q 633 -3 633 53 q 604 -112 633 -56 q 526 -210 575 -168 l 233 -210 q 326 -93 326 -146 q 298 -37 326 -62 q 186 31 271 -12 q 95 91 126 62 q 45 155 64 119 q 27 235 27 191 z "},"ο":{"ha":839,"x_min":34,"x_max":806,"o":"m 806 406 q 752 183 806 284 q 600 33 697 83 q 370 -17 502 -17 q 122 64 210 -17 q 34 290 34 144 q 65 458 34 376 q 152 596 96 540 q 289 682 208 652 q 474 711 370 711 q 720 632 633 711 q 806 406 806 552 m 519 406 q 499 476 519 452 q 446 500 479 500 q 381 471 409 500 q 337 392 353 442 q 321 288 321 341 q 341 218 321 241 q 395 195 361 195 q 485 254 451 195 q 519 406 519 314 z "},"ρ":{"ha":861,"x_min":-81,"x_max":827,"o":"m 827 403 q 783 184 827 280 q 655 36 739 88 q 464 -17 572 -17 q 361 -3 412 -17 q 281 33 310 11 l 279 33 l 208 -319 l -81 -319 l 57 336 q 203 623 97 534 q 492 711 309 711 q 733 627 640 711 q 827 403 827 543 m 406 195 q 496 251 464 195 q 529 401 529 307 q 510 473 529 447 q 458 500 490 500 q 356 380 378 500 l 323 225 q 406 195 361 195 z "},"ς":{"ha":726,"x_min":33,"x_max":690,"o":"m 33 260 q 93 489 33 385 q 260 653 153 594 q 505 711 367 711 q 690 675 616 711 l 643 471 q 524 500 598 500 q 395 442 451 500 q 340 307 340 385 q 353 267 340 285 q 388 234 366 249 q 484 182 409 218 q 604 97 570 141 q 639 -3 639 53 q 610 -112 639 -56 q 532 -210 581 -168 l 239 -210 q 332 -93 332 -146 q 305 -34 332 -61 q 198 35 279 -7 q 71 138 109 83 q 33 260 33 193 z "},"υ":{"ha":930,"x_min":38,"x_max":886,"o":"m 383 277 q 401 224 383 246 q 456 203 420 203 q 560 275 526 203 q 595 521 595 348 q 583 694 595 618 l 872 694 q 886 518 886 600 q 421 -17 886 -17 q 242 14 317 -17 q 129 103 168 45 q 89 236 89 160 q 105 361 89 293 l 117 410 q 123 454 123 433 q 83 490 123 490 q 38 481 63 490 l 80 683 q 243 709 135 709 q 387 674 341 709 q 432 579 432 639 q 420 481 432 538 l 390 339 q 383 277 383 312 z "},"χ":{"ha":789,"x_min":-179,"x_max":860,"o":"m 529 -319 q 388 -271 435 -319 q 318 -98 342 -222 l 301 -9 l 125 -319 l -179 -319 l 232 233 l 201 376 q 167 472 187 445 q 115 500 147 500 q 47 478 83 500 l 93 693 q 214 711 130 711 q 342 673 296 711 q 406 546 388 635 l 424 447 l 551 694 l 860 694 l 503 205 l 538 40 q 565 -57 553 -31 q 594 -95 576 -83 q 639 -106 612 -106 q 700 -87 668 -106 l 656 -298 q 529 -319 614 -319 z "},"ψ":{"ha":1156,"x_min":52,"x_max":1156,"o":"m 684 -17 l 624 -17 l 560 -319 l 299 -319 l 363 -17 l 336 -17 q 126 54 201 -17 q 52 253 52 125 q 68 379 52 301 l 135 694 l 395 694 l 328 379 q 315 283 315 315 q 395 193 315 193 l 407 193 l 559 903 l 820 903 l 668 193 l 686 193 q 750 210 724 193 q 792 262 775 227 q 828 379 810 296 l 895 694 l 1156 694 l 1089 379 q 1007 134 1054 215 q 885 18 960 54 q 684 -17 810 -17 z "},"ω":{"ha":1196,"x_min":35,"x_max":1152,"o":"m 1152 471 q 1055 109 1152 235 q 777 -17 958 -17 q 637 16 696 -17 q 551 106 578 48 l 549 106 q 443 11 500 39 q 304 -17 386 -17 q 107 60 179 -17 q 35 269 35 137 q 75 469 35 366 q 211 694 115 572 l 490 694 q 355 484 407 595 q 302 288 302 373 q 321 224 302 245 q 364 203 340 203 q 421 231 399 203 q 457 321 443 260 l 494 498 l 755 498 l 718 321 q 716 309 718 316 q 714 294 715 302 q 712 279 713 286 q 711 265 711 271 q 727 219 711 235 q 768 203 743 203 q 852 277 819 203 q 885 460 885 352 q 874 581 885 518 q 843 694 863 643 l 1122 694 q 1152 471 1152 589 z "},"ϊ":{"ha":509,"x_min":16,"x_max":617,"o":"m 260 -17 q 99 37 158 -17 q 40 179 40 90 q 54 285 40 222 l 143 694 l 432 694 l 347 294 q 340 241 340 256 q 387 203 340 203 q 464 220 425 203 l 419 9 q 357 -8 399 0 q 260 -17 315 -17 m 617 877 q 582 797 617 827 q 487 766 547 766 q 393 797 430 766 q 356 877 356 829 q 392 955 356 925 q 487 985 428 985 q 581 955 545 985 q 617 877 617 924 m 277 877 q 242 797 277 829 q 146 766 208 766 q 53 798 89 766 q 16 877 16 830 q 52 955 16 925 q 146 985 88 985 q 241 955 205 985 q 277 877 277 926 z "},"ϋ":{"ha":930,"x_min":38,"x_max":886,"o":"m 383 277 q 401 224 383 246 q 456 203 420 203 q 560 275 526 203 q 595 521 595 348 q 583 694 595 618 l 872 694 q 886 518 886 600 q 421 -17 886 -17 q 242 14 317 -17 q 129 103 168 45 q 89 236 89 160 q 105 361 89 293 l 117 410 q 123 454 123 433 q 83 490 123 490 q 38 481 63 490 l 80 683 q 243 709 135 709 q 387 674 341 709 q 432 579 432 639 q 420 481 432 538 l 390 339 q 383 277 383 312 m 844 877 q 809 797 844 827 q 714 766 774 766 q 620 797 657 766 q 583 877 583 829 q 619 955 583 925 q 714 985 655 985 q 808 955 772 985 q 844 877 844 924 m 505 877 q 470 797 505 829 q 374 766 435 766 q 280 798 316 766 q 243 877 243 830 q 279 955 243 925 q 374 985 315 985 q 469 955 433 985 q 505 877 505 926 z "},"ό":{"ha":839,"x_min":34,"x_max":806,"o":"m 806 406 q 752 183 806 284 q 600 33 697 83 q 370 -17 502 -17 q 122 64 210 -17 q 34 290 34 144 q 65 458 34 376 q 152 596 96 540 q 289 682 208 652 q 474 711 370 711 q 720 632 633 711 q 806 406 806 552 m 519 406 q 499 476 519 452 q 446 500 479 500 q 381 471 409 500 q 337 392 353 442 q 321 288 321 341 q 341 218 321 241 q 395 195 361 195 q 485 254 451 195 q 519 406 519 314 m 561 782 l 412 782 l 515 1000 l 758 1000 l 561 782 z "},"ύ":{"ha":930,"x_min":38,"x_max":886,"o":"m 383 277 q 401 224 383 246 q 456 203 420 203 q 560 275 526 203 q 595 521 595 348 q 583 694 595 618 l 872 694 q 886 518 886 600 q 421 -17 886 -17 q 242 14 317 -17 q 129 103 168 45 q 89 236 89 160 q 105 361 89 293 l 117 410 q 123 454 123 433 q 83 490 123 490 q 38 481 63 490 l 80 683 q 243 709 135 709 q 387 674 341 709 q 432 579 432 639 q 420 481 432 538 l 390 339 q 383 277 383 312 m 589 782 l 441 782 l 544 1000 l 787 1000 l 589 782 z "},"ώ":{"ha":1196,"x_min":35,"x_max":1152,"o":"m 1152 471 q 1055 109 1152 235 q 777 -17 958 -17 q 637 16 696 -17 q 551 106 578 48 l 549 106 q 443 11 500 39 q 304 -17 386 -17 q 107 60 179 -17 q 35 269 35 137 q 75 469 35 366 q 211 694 115 572 l 490 694 q 355 484 407 595 q 302 288 302 373 q 321 224 302 245 q 364 203 340 203 q 421 231 399 203 q 457 321 443 260 l 494 498 l 755 498 l 718 321 q 716 309 718 316 q 714 294 715 302 q 712 279 713 286 q 711 265 711 271 q 727 219 711 235 q 768 203 743 203 q 852 277 819 203 q 885 460 885 352 q 874 581 885 518 q 843 694 863 643 l 1122 694 q 1152 471 1152 589 m 722 782 l 573 782 l 676 1000 l 919 1000 l 722 782 z "},"Ё":{"ha":766,"x_min":21,"x_max":844,"o":"m 783 743 l 471 743 l 441 602 l 734 602 l 686 372 l 393 372 l 363 229 l 697 229 l 648 0 l 21 0 l 227 972 l 832 972 l 783 743 m 844 1174 q 808 1094 844 1124 q 713 1063 773 1063 q 620 1094 656 1063 q 583 1174 583 1126 q 618 1252 583 1222 q 713 1282 654 1282 q 808 1252 772 1282 q 844 1174 844 1221 m 504 1174 q 469 1094 504 1126 q 373 1063 434 1063 q 279 1095 315 1063 q 243 1174 243 1127 q 279 1252 243 1222 q 373 1282 315 1282 q 468 1252 432 1282 q 504 1174 504 1223 z "},"Ђ":{"ha":1026,"x_min":77,"x_max":1008,"o":"m 1008 339 q 965 154 1008 236 q 843 32 921 73 q 661 -9 766 -9 q 575 -2 625 -9 q 509 12 524 5 l 549 205 q 624 192 578 192 q 701 225 673 192 q 729 310 729 259 q 703 379 729 355 q 614 403 676 403 l 529 403 l 444 0 l 150 0 l 307 743 l 77 743 l 125 972 l 966 972 l 918 743 l 602 743 l 572 603 l 746 603 q 885 569 825 603 q 976 475 944 536 q 1008 339 1008 414 z "},"Ѓ":{"ha":751,"x_min":21,"x_max":895,"o":"m 806 743 l 471 743 l 314 0 l 21 0 l 227 972 l 854 972 l 806 743 m 625 1063 l 405 1063 l 635 1280 l 895 1280 l 625 1063 z "},"Є":{"ha":873,"x_min":56,"x_max":936,"o":"m 882 707 q 782 742 841 727 q 663 757 724 757 q 492 721 558 757 q 399 603 426 684 l 751 603 l 704 380 l 372 380 l 371 367 q 397 292 371 330 q 471 234 422 254 q 582 215 519 215 q 789 268 683 215 l 736 21 q 503 -17 630 -17 q 261 34 362 -17 q 108 181 160 85 q 56 407 56 277 q 133 722 56 587 q 352 922 211 856 q 689 989 494 989 q 936 953 797 989 l 882 707 z "},"Ѕ":{"ha":794,"x_min":17,"x_max":817,"o":"m 768 699 q 640 755 696 739 q 525 771 583 771 q 452 751 479 771 q 425 700 425 732 q 447 648 425 670 q 541 587 469 627 q 702 461 656 526 q 747 297 747 397 q 695 129 747 203 q 550 19 642 55 q 330 -17 457 -17 q 158 4 238 -17 q 17 57 77 24 l 68 297 q 330 201 197 201 q 436 277 436 201 q 410 333 436 311 q 318 386 384 356 q 161 502 208 437 q 114 665 114 566 q 165 836 114 760 q 307 950 217 912 q 514 989 396 989 q 682 972 608 989 q 817 933 756 955 l 768 699 z "},"Ї":{"ha":484,"x_min":20,"x_max":677,"o":"m 313 0 l 20 0 l 225 972 l 518 972 l 313 0 m 677 1174 q 642 1094 677 1124 q 547 1063 607 1063 q 453 1094 490 1063 q 416 1174 416 1126 q 452 1252 416 1222 q 547 1282 488 1282 q 642 1252 606 1282 q 677 1174 677 1221 m 338 1174 q 303 1094 338 1126 q 207 1063 268 1063 q 113 1095 149 1063 q 77 1174 77 1127 q 113 1252 77 1222 q 207 1282 149 1282 q 302 1252 266 1282 q 338 1174 338 1223 z "},"Љ":{"ha":1474,"x_min":-50,"x_max":1449,"o":"m 1141 332 q 1111 409 1141 382 q 1021 436 1080 436 l 993 436 l 946 210 l 1006 210 q 1105 242 1069 210 q 1141 332 1141 275 m 1038 646 l 1109 646 q 1362 570 1275 646 q 1449 353 1449 495 q 1336 92 1449 183 q 1017 0 1224 0 l 608 0 l 764 734 l 610 734 q 433 262 503 403 q 281 55 364 121 q 83 -12 199 -12 q -50 3 4 -12 l -1 233 q 52 225 22 225 q 151 287 102 225 q 275 542 199 348 q 427 972 351 735 l 1107 972 l 1038 646 z "},"Њ":{"ha":1515,"x_min":20,"x_max":1463,"o":"m 1463 353 q 1351 92 1463 183 q 1031 0 1238 0 l 623 0 l 703 380 l 395 380 l 313 0 l 20 0 l 227 972 l 519 972 l 446 627 l 754 627 l 828 972 l 1121 972 l 1050 646 l 1124 646 q 1376 570 1289 646 q 1463 353 1463 495 m 1156 332 q 1125 409 1156 382 q 1035 436 1094 436 l 1007 436 l 960 210 l 1019 210 q 1119 242 1083 210 q 1156 332 1156 275 z "},"Ћ":{"ha":1217,"x_min":75,"x_max":1107,"o":"m 1107 364 q 1095 257 1107 315 l 1040 0 l 747 0 l 794 225 q 799 265 799 242 q 681 354 799 354 l 559 354 l 485 0 l 192 0 l 347 743 l 75 743 l 123 972 l 965 972 l 917 743 l 642 743 l 611 597 l 812 597 q 1032 537 958 597 q 1107 364 1107 477 z "},"Ќ":{"ha":958,"x_min":21,"x_max":1093,"o":"m 723 1063 l 503 1063 l 732 1280 l 992 1280 l 723 1063 z "},"Ў":{"ha":901,"x_min":1,"x_max":1034,"o":"m 151 -17 q 67 -8 111 -17 q 1 14 24 1 l 52 252 q 153 229 98 229 q 233 255 195 229 q 298 322 271 280 l 117 972 l 436 972 l 489 677 q 497 574 497 631 l 500 574 q 542 672 528 648 l 710 972 l 1034 972 l 600 298 q 386 52 486 120 q 151 -17 286 -17 m 478 1312 q 506 1239 479 1264 q 579 1214 532 1214 q 728 1312 691 1214 l 926 1312 q 801 1133 895 1194 q 557 1072 707 1072 q 356 1138 433 1072 q 279 1312 280 1204 l 478 1312 z "},"Џ":{"ha":1114,"x_min":20,"x_max":1149,"o":"m 942 0 l 618 0 l 562 -273 l 298 -273 l 354 0 l 20 0 l 227 972 l 519 972 l 366 249 l 701 249 l 856 972 l 1149 972 l 942 0 z "},"А":{"ha":1042,"x_min":-64,"x_max":950,"o":"m 652 0 l 637 179 l 346 179 l 258 0 l -64 0 l 476 972 l 840 972 l 950 0 l 652 0 m 609 684 q 612 750 609 730 l 606 750 l 593 716 l 567 657 l 449 408 l 623 408 l 610 652 l 609 684 z "},"Б":{"ha":964,"x_min":21,"x_max":925,"o":"m 875 743 l 469 743 l 439 593 l 591 593 q 833 521 749 593 q 917 315 917 449 q 864 141 917 213 q 712 35 812 69 q 476 0 613 0 l 21 0 l 227 972 l 925 972 l 875 743 m 606 307 q 579 373 606 349 q 504 396 553 396 l 399 396 l 354 197 l 460 197 q 567 227 529 197 q 606 307 606 256 z "},"В":{"ha":974,"x_min":21,"x_max":965,"o":"m 965 745 q 900 593 965 653 q 722 511 836 532 l 722 509 q 865 442 814 497 q 917 301 917 387 q 866 141 917 209 q 716 37 815 74 q 476 0 618 0 l 21 0 l 227 972 l 627 972 q 882 917 798 972 q 965 745 965 861 m 654 688 q 627 756 654 736 q 532 777 600 777 l 478 777 l 439 593 l 530 593 q 620 621 585 593 q 654 688 654 648 m 606 307 q 580 372 606 347 q 509 396 554 396 l 399 396 l 354 197 l 457 197 q 566 227 527 197 q 606 307 606 256 z "},"Г":{"ha":751,"x_min":21,"x_max":854,"o":"m 806 743 l 471 743 l 314 0 l 21 0 l 227 972 l 854 972 l 806 743 z "},"Д":{"ha":1166,"x_min":-90,"x_max":1100,"o":"m 646 734 q 415 233 570 467 l 650 233 l 757 734 l 646 734 m 18 233 l 104 233 q 456 972 342 539 l 1100 972 l 943 233 l 1093 233 l 986 -273 l 722 -273 l 779 0 l 231 0 l 174 -273 l -90 -273 l 18 233 z "},"Е":{"ha":766,"x_min":21,"x_max":832,"o":"m 783 743 l 471 743 l 441 602 l 734 602 l 686 372 l 393 372 l 363 229 l 697 229 l 648 0 l 21 0 l 227 972 l 832 972 l 783 743 z "},"Ж":{"ha":1377,"x_min":-85,"x_max":1491,"o":"m 982 0 l 852 418 q 841 469 841 450 l 842 473 l 839 473 l 737 0 l 471 0 l 570 461 l 567 461 q 553 437 562 454 q 530 406 543 421 l 241 0 l -85 0 l 328 504 l 132 972 l 444 972 l 572 538 q 578 511 577 523 l 581 511 l 677 972 l 945 972 l 846 515 l 848 515 l 867 546 l 878 562 l 1171 972 l 1491 972 l 1097 500 l 1299 0 l 982 0 z "},"З":{"ha":847,"x_min":5,"x_max":840,"o":"m 840 742 q 773 580 840 644 q 587 501 707 517 l 587 498 q 723 423 675 479 q 771 281 771 367 q 715 123 771 193 q 556 18 659 54 q 319 -17 454 -17 q 5 47 134 -17 l 54 272 q 321 195 171 195 q 442 222 399 195 q 485 300 485 250 q 336 390 485 390 l 199 390 l 243 603 l 397 603 q 512 628 470 603 q 554 699 554 653 q 424 778 554 778 q 303 763 373 778 q 186 725 233 747 l 231 945 q 510 989 370 989 q 755 925 670 989 q 840 742 840 861 z "},"И":{"ha":1128,"x_min":21,"x_max":1162,"o":"m 957 0 l 686 0 l 772 408 q 811 570 791 493 l 808 570 q 784 541 798 556 q 290 0 770 526 l 21 0 l 227 972 l 497 972 l 406 536 q 379 433 396 486 l 382 433 q 406 464 389 444 q 872 972 424 484 l 1162 972 l 957 0 z "},"Й":{"ha":1128,"x_min":21,"x_max":1162,"o":"m 957 0 l 686 0 l 772 408 q 811 570 791 493 l 808 570 q 784 541 798 556 q 290 0 770 526 l 21 0 l 227 972 l 497 972 l 406 536 q 379 433 396 486 l 382 433 q 406 464 389 444 q 872 972 424 484 l 1162 972 l 957 0 m 620 1326 q 647 1253 621 1278 q 721 1227 673 1227 q 869 1326 833 1227 l 1067 1326 q 943 1147 1037 1208 q 699 1086 849 1086 q 498 1152 574 1086 q 420 1326 422 1217 l 620 1326 z "},"К":{"ha":958,"x_min":21,"x_max":1093,"o":"m 1093 972 l 713 509 l 914 0 l 558 0 l 427 406 q 414 461 420 422 l 411 461 l 314 0 l 21 0 l 227 972 l 519 972 l 425 525 l 428 525 l 445 551 l 746 972 l 1093 972 z "},"Л":{"ha":1114,"x_min":-50,"x_max":1107,"o":"m 610 734 q 433 262 503 403 q 281 55 364 121 q 83 -12 199 -12 q -50 3 4 -12 l -1 233 q 52 225 22 225 q 151 287 102 225 q 275 542 199 348 q 427 972 351 735 l 1107 972 l 901 0 l 608 0 l 764 734 l 610 734 z "},"М":{"ha":1369,"x_min":20,"x_max":1404,"o":"m 1198 0 l 909 0 l 1031 572 l 1063 718 l 1057 718 l 1007 597 l 733 0 l 464 0 l 429 564 q 425 718 425 621 l 419 718 q 374 444 399 568 l 279 0 l 20 0 l 225 972 l 636 972 l 670 391 q 667 300 670 347 l 671 300 q 694 368 682 332 q 720 432 707 404 l 957 972 l 1404 972 l 1198 0 z "},"Н":{"ha":1116,"x_min":20,"x_max":1150,"o":"m 943 0 l 648 0 l 726 363 l 390 363 l 313 0 l 20 0 l 227 972 l 519 972 l 443 612 l 779 612 l 856 972 l 1150 972 l 943 0 z "},"О":{"ha":1061,"x_min":62,"x_max":1040,"o":"m 1040 562 q 970 264 1040 402 q 775 55 900 127 q 479 -17 651 -17 q 255 36 349 -17 q 112 186 161 90 q 62 408 62 283 q 134 707 62 570 q 330 916 205 844 q 619 989 454 989 q 928 875 815 989 q 1040 562 1040 761 m 729 553 q 692 688 729 642 q 586 734 655 734 q 475 692 522 734 q 400 573 427 649 q 374 415 374 498 q 411 279 374 325 q 514 233 448 233 q 623 271 575 233 q 700 387 671 309 q 729 553 729 465 z "},"П":{"ha":1114,"x_min":21,"x_max":1149,"o":"m 943 0 l 650 0 l 803 724 l 467 724 l 314 0 l 21 0 l 227 972 l 1149 972 l 943 0 z "},"Р":{"ha":925,"x_min":21,"x_max":958,"o":"m 958 679 q 903 484 958 569 q 749 355 848 398 q 518 313 651 313 l 379 313 l 314 0 l 21 0 l 227 972 l 619 972 q 871 897 783 972 q 958 679 958 821 m 647 659 q 616 735 647 709 q 526 762 585 762 l 475 762 l 425 522 l 507 522 q 609 561 570 522 q 647 659 647 599 z "},"С":{"ha":875,"x_min":56,"x_max":937,"o":"m 878 688 q 787 721 836 707 q 667 734 737 734 q 507 695 574 734 q 403 584 439 655 q 367 427 367 513 q 422 284 367 336 q 581 233 477 233 q 684 248 627 233 q 794 289 741 263 l 736 21 q 503 -17 630 -17 q 172 94 288 -17 q 56 400 56 204 q 135 713 56 576 q 357 920 214 850 q 692 989 500 989 q 822 979 753 989 q 937 956 890 969 l 878 688 z "},"Т":{"ha":884,"x_min":103,"x_max":993,"o":"m 945 743 l 669 743 l 513 0 l 218 0 l 375 743 l 103 743 l 151 972 l 993 972 l 945 743 z "},"У":{"ha":901,"x_min":1,"x_max":1034,"o":"m 151 -17 q 67 -8 111 -17 q 1 14 24 1 l 52 252 q 153 229 98 229 q 233 255 195 229 q 298 322 271 280 l 117 972 l 436 972 l 489 677 q 497 574 497 631 l 500 574 q 542 672 528 648 l 710 972 l 1034 972 l 600 298 q 386 52 486 120 q 151 -17 286 -17 z "},"Ф":{"ha":1215,"x_min":56,"x_max":1222,"o":"m 1222 542 q 1163 320 1222 421 q 1005 168 1105 218 q 772 117 905 117 l 696 117 l 669 -17 l 393 -17 l 421 117 l 390 117 q 145 204 234 117 q 56 443 56 292 q 114 674 56 570 q 275 829 173 777 q 514 882 376 882 l 590 882 l 611 989 l 879 989 l 859 882 l 889 882 q 1134 793 1046 882 q 1222 542 1222 705 m 522 672 q 428 643 469 672 q 366 564 388 614 q 343 460 343 513 q 374 363 343 400 q 457 326 406 326 l 465 326 l 539 672 l 522 672 m 757 326 q 851 356 811 326 q 913 435 891 385 q 936 539 936 484 q 904 636 936 600 q 822 672 873 672 l 814 672 l 741 326 l 757 326 z "},"Х":{"ha":975,"x_min":-82,"x_max":1099,"o":"m 715 475 l 888 0 l 557 0 l 503 252 q 494 335 496 283 l 494 355 l 492 355 q 446 261 471 301 l 281 0 l -82 0 l 317 503 l 153 972 l 493 972 l 530 728 q 538 644 537 688 l 538 621 l 541 621 q 559 667 546 636 q 584 716 572 698 q 758 972 596 734 l 1099 972 l 715 475 z "},"Ц":{"ha":1203,"x_min":20,"x_max":1149,"o":"m 994 249 l 1145 249 l 1034 -273 l 770 -273 l 828 0 l 20 0 l 227 972 l 519 972 l 366 249 l 701 249 l 856 972 l 1149 972 l 994 249 z "},"Ч":{"ha":1063,"x_min":122,"x_max":1097,"o":"m 892 0 l 599 0 l 671 346 q 541 295 618 315 q 393 275 465 275 q 194 341 266 275 q 122 522 122 408 q 139 652 122 575 l 207 972 l 500 972 l 431 650 q 422 591 422 610 q 519 518 422 518 q 621 538 562 518 q 724 589 680 558 l 804 972 l 1097 972 l 892 0 z "},"Ш":{"ha":1436,"x_min":20,"x_max":1471,"o":"m 1265 0 l 20 0 l 225 972 l 518 972 l 366 249 l 549 249 l 701 972 l 994 972 l 842 249 l 1025 249 l 1178 972 l 1471 972 l 1265 0 z "},"Щ":{"ha":1527,"x_min":20,"x_max":1472,"o":"m 1318 249 l 1468 249 l 1358 -273 l 1094 -273 l 1152 0 l 20 0 l 227 972 l 519 972 l 366 249 l 549 249 l 703 972 l 996 972 l 842 249 l 1025 249 l 1179 972 l 1472 972 l 1318 249 z "},"Ъ":{"ha":1104,"x_min":103,"x_max":1065,"o":"m 1065 353 q 953 92 1065 183 q 633 0 841 0 l 197 0 l 355 743 l 103 743 l 153 972 l 696 972 l 625 646 l 726 646 q 979 570 892 646 q 1065 353 1065 495 m 758 332 q 727 409 758 382 q 637 436 696 436 l 582 436 l 534 210 l 623 210 q 722 242 686 210 q 758 332 758 275 z "},"Ы":{"ha":1378,"x_min":21,"x_max":1379,"o":"m 1174 0 l 880 0 l 1086 972 l 1379 972 l 1174 0 m 861 353 q 749 92 861 183 q 429 0 637 0 l 21 0 l 227 972 l 519 972 l 449 646 l 522 646 q 774 570 688 646 q 861 353 861 495 m 554 332 q 523 409 554 382 q 433 436 492 436 l 406 436 l 358 210 l 418 210 q 518 242 481 210 q 554 332 554 275 z "},"Ь":{"ha":928,"x_min":21,"x_max":889,"o":"m 889 353 q 777 92 889 183 q 457 0 665 0 l 21 0 l 227 972 l 519 972 l 449 646 l 550 646 q 802 570 715 646 q 889 353 889 495 m 582 332 q 551 409 582 382 q 461 436 520 436 l 406 436 l 358 210 l 446 210 q 546 242 509 210 q 582 332 582 275 z "},"Э":{"ha":889,"x_min":0,"x_max":880,"o":"m 880 562 q 806 251 880 386 q 596 50 732 116 q 272 -17 460 -17 q 127 -4 205 -17 q 0 26 48 9 l 54 268 q 163 231 102 245 q 278 216 224 216 q 406 234 354 216 q 491 283 458 251 q 542 375 523 315 l 187 375 l 235 597 l 566 597 l 566 600 q 538 680 566 640 q 463 740 510 720 q 357 760 416 760 q 150 718 241 760 l 200 956 q 433 989 313 989 q 676 938 576 989 q 828 790 776 886 q 880 562 880 694 z "},"Ю":{"ha":1495,"x_min":20,"x_max":1474,"o":"m 1474 562 q 1403 264 1474 406 q 1215 53 1333 123 q 936 -17 1097 -17 q 786 7 849 -17 q 678 68 722 31 q 605 156 634 106 q 559 261 575 207 q 543 359 543 315 l 543 364 l 390 364 l 313 0 l 20 0 l 227 972 l 519 972 l 441 604 l 571 604 q 682 814 609 727 q 855 945 755 901 q 1076 989 956 989 q 1368 875 1262 989 q 1474 562 1474 762 m 1161 553 q 1131 688 1161 642 q 1042 734 1101 734 q 949 695 989 734 q 880 577 908 656 q 852 415 852 497 q 884 279 852 325 q 971 233 916 233 q 1063 270 1021 233 q 1133 388 1105 307 q 1161 553 1161 470 z "},"Я":{"ha":960,"x_min":-66,"x_max":994,"o":"m 789 0 l 496 0 l 570 351 l 567 351 q 395 228 460 351 l 272 0 l -66 0 l 86 257 q 190 381 132 334 q 326 452 248 428 l 326 454 q 199 528 245 473 q 153 664 153 583 q 263 892 153 812 q 579 972 374 972 l 994 972 l 789 0 m 603 764 q 498 733 534 764 q 463 650 463 703 q 492 579 463 605 q 579 554 522 554 l 612 554 l 659 764 l 603 764 z "},"а":{"ha":876,"x_min":33,"x_max":875,"o":"m 758 0 l 472 0 q 482 123 472 22 l 479 123 q 248 -17 376 -17 q 89 54 145 -17 q 33 254 33 125 q 69 436 33 347 q 167 585 104 526 q 321 678 230 645 q 532 711 412 711 q 875 669 695 711 l 785 244 q 766 122 774 196 q 758 0 758 48 m 557 524 q 515 528 541 528 q 418 496 461 528 q 348 403 374 465 q 321 278 321 340 q 338 216 321 237 q 382 195 356 195 q 469 250 431 195 q 530 408 508 305 l 557 524 z "},"б":{"ha":855,"x_min":54,"x_max":881,"o":"m 363 587 l 366 587 q 473 653 419 632 q 593 673 526 673 q 760 604 700 673 q 820 411 820 535 q 764 186 820 288 q 614 34 709 85 q 393 -17 519 -17 q 143 75 231 -17 q 54 339 54 167 q 104 656 54 508 q 239 889 153 804 q 469 1011 326 973 q 881 1050 613 1050 l 829 808 q 536 790 622 808 q 414 731 450 772 q 363 587 379 689 m 534 384 q 514 449 534 424 q 454 473 494 473 q 392 459 422 473 q 345 422 363 445 q 338 377 342 410 q 335 318 335 345 q 414 195 335 195 q 500 250 467 195 q 534 384 534 304 z "},"в":{"ha":793,"x_min":33,"x_max":779,"o":"m 779 538 q 732 424 779 469 q 596 361 684 379 q 710 320 668 357 q 753 225 753 283 q 699 101 753 160 q 556 12 646 41 q 349 -17 466 -17 q 109 50 184 -17 q 33 258 33 117 q 89 507 33 402 q 250 661 144 611 q 504 711 356 711 q 654 690 593 711 q 747 629 714 669 q 779 538 779 590 m 511 498 q 498 532 511 517 q 460 546 485 546 q 329 416 372 546 q 469 439 426 419 q 511 498 511 458 m 485 235 q 465 274 485 258 q 411 290 446 290 q 350 287 378 290 q 301 281 322 283 q 296 240 296 263 q 317 180 296 200 q 376 160 338 160 q 454 182 422 160 q 485 235 485 203 z "},"г":{"ha":665,"x_min":16,"x_max":648,"o":"m 648 517 q 620 404 648 453 q 536 325 591 355 q 396 269 482 294 q 305 234 331 250 q 279 199 279 218 q 351 161 279 161 q 581 218 441 161 l 539 22 q 283 -17 410 -17 q 16 186 16 -17 q 72 337 16 277 q 260 437 127 397 q 348 471 323 456 q 372 503 372 486 q 319 533 372 533 q 229 520 283 533 q 129 490 175 508 l 171 681 q 276 701 205 690 q 397 711 346 711 q 584 662 519 711 q 648 517 648 612 z "},"д":{"ha":846,"x_min":33,"x_max":832,"o":"m 832 642 q 774 288 832 438 q 607 61 717 138 q 343 -17 497 -17 q 114 59 194 -17 q 33 278 33 136 q 80 479 33 384 q 204 624 127 575 q 379 673 282 673 q 490 650 441 673 q 561 583 538 626 l 564 583 q 570 673 570 609 q 539 775 570 739 q 436 811 509 811 q 218 773 338 811 l 264 991 q 486 1028 376 1028 q 744 929 655 1028 q 832 642 832 829 m 521 412 q 493 469 513 449 q 444 489 472 489 q 382 459 411 489 q 336 379 354 429 q 318 286 318 330 q 336 216 318 238 q 383 195 355 195 q 467 256 429 195 q 521 412 505 317 z "},"е":{"ha":753,"x_min":33,"x_max":757,"o":"m 757 504 q 647 326 757 385 q 310 261 538 268 l 310 256 q 343 194 310 216 q 432 172 376 172 q 551 189 481 172 q 665 229 621 206 l 625 40 q 497 -1 572 15 q 346 -17 421 -17 q 117 60 200 -17 q 33 272 33 138 q 91 497 33 394 q 249 656 148 600 q 481 711 349 711 q 685 658 612 711 q 757 504 757 604 m 490 505 q 481 532 490 520 q 449 545 472 545 q 371 510 404 545 q 326 412 338 475 q 447 435 403 412 q 490 505 490 458 z "},"ж":{"ha":1221,"x_min":-83,"x_max":1304,"o":"m 1019 346 l 1152 0 l 857 0 l 755 343 l 753 343 l 679 0 l 411 0 l 485 346 l 482 346 l 233 0 l -83 0 l 224 370 l 102 694 l 392 694 l 488 371 l 490 371 l 559 694 l 828 694 l 758 368 l 761 368 l 991 694 l 1304 694 l 1019 346 z "},"з":{"ha":696,"x_min":-35,"x_max":682,"o":"m 682 538 q 625 415 682 460 q 460 355 568 369 l 460 354 q 581 309 535 349 q 627 210 627 269 q 229 -12 627 -12 q -35 24 79 -12 l 3 200 q 191 160 99 160 q 293 175 259 160 q 328 227 328 191 q 299 266 328 254 q 214 278 270 278 l 81 278 l 114 432 l 254 432 q 345 447 319 432 q 371 492 371 463 q 278 542 371 542 q 94 505 186 542 l 134 682 q 392 711 267 711 q 609 668 535 711 q 682 538 682 624 z "},"и":{"ha":869,"x_min":28,"x_max":868,"o":"m 746 0 l 453 0 q 464 114 458 79 l 461 114 q 332 16 400 48 q 197 -17 264 -17 q 28 154 28 -17 q 43 272 28 205 l 132 694 l 421 694 l 340 318 q 329 241 329 272 q 339 217 329 228 q 370 207 349 207 q 459 257 419 207 q 514 382 499 308 l 579 694 l 868 694 l 775 258 q 754 123 762 197 q 746 0 746 50 z "},"й":{"ha":869,"x_min":28,"x_max":868,"o":"m 746 0 l 453 0 q 464 114 458 79 l 461 114 q 332 16 400 48 q 197 -17 264 -17 q 28 154 28 -17 q 43 272 28 205 l 132 694 l 421 694 l 340 318 q 329 241 329 272 q 339 217 329 228 q 370 207 349 207 q 459 257 419 207 q 514 382 499 308 l 579 694 l 868 694 l 775 258 q 754 123 762 197 q 746 0 746 50 m 397 1026 q 424 953 398 978 q 498 928 450 928 q 646 1026 610 928 l 844 1026 q 720 847 814 908 q 475 786 626 786 q 275 852 351 786 q 197 1026 199 918 l 397 1026 z "},"к":{"ha":838,"x_min":-8,"x_max":926,"o":"m 642 346 l 774 0 l 458 0 l 357 343 l 354 343 l 281 0 l -8 0 l 140 694 l 429 694 l 359 368 l 363 368 l 593 694 l 926 694 l 642 346 z "},"л":{"ha":918,"x_min":-57,"x_max":924,"o":"m 775 0 l 486 0 l 593 500 l 486 500 q 375 215 417 300 q 291 82 334 129 q 194 14 249 35 q 57 -8 138 -8 q -3 -4 33 -8 q -57 7 -39 1 l -20 211 q 31 204 -3 204 q 117 250 78 204 q 199 397 156 295 q 306 694 243 498 l 924 694 l 775 0 z "},"м":{"ha":1138,"x_min":-7,"x_max":1137,"o":"m 989 0 l 728 0 l 836 514 q 784 396 809 446 l 593 0 l 345 0 l 321 393 l 321 431 l 321 514 l 214 0 l -7 0 l 140 694 l 492 694 l 513 338 l 514 308 q 511 232 514 268 q 555 339 529 284 l 723 694 l 1137 694 l 989 0 z "},"н":{"ha":878,"x_min":-4,"x_max":882,"o":"m 734 0 l 446 0 l 503 271 l 342 271 l 285 0 l -4 0 l 143 694 l 432 694 l 382 458 l 543 458 l 593 694 l 882 694 l 734 0 z "},"о":{"ha":839,"x_min":34,"x_max":806,"o":"m 806 406 q 752 183 806 284 q 600 33 697 83 q 370 -17 502 -17 q 122 64 210 -17 q 34 290 34 144 q 65 458 34 376 q 152 596 96 540 q 289 682 208 652 q 474 711 370 711 q 720 632 633 711 q 806 406 806 552 m 519 406 q 499 476 519 452 q 446 500 479 500 q 381 471 409 500 q 337 392 353 442 q 321 288 321 341 q 341 218 321 241 q 395 195 361 195 q 485 254 451 195 q 519 406 519 314 z "},"п":{"ha":869,"x_min":-7,"x_max":836,"o":"m 836 541 q 821 422 836 493 l 732 0 l 443 0 l 525 385 q 536 454 536 431 q 490 500 536 500 q 411 451 454 500 q 355 342 368 403 l 285 0 l -7 0 l 92 461 q 132 694 115 574 l 416 694 q 403 575 412 613 l 406 575 q 533 675 461 638 q 669 711 606 711 q 836 541 836 711 z "},"р":{"ha":876,"x_min":-72,"x_max":843,"o":"m 843 460 q 784 209 843 319 q 619 41 725 99 q 372 -17 513 -17 q 326 -15 363 -17 q 286 -11 290 -13 l 218 -319 l -72 -319 l 92 450 q 119 592 107 519 q 134 694 132 665 l 411 694 q 396 571 408 637 l 399 571 q 639 711 494 711 q 787 642 731 711 q 843 460 843 572 m 555 415 q 490 500 555 500 q 408 445 446 500 q 346 286 370 391 l 319 171 q 363 167 344 167 q 499 239 444 167 q 555 415 555 312 z "},"с":{"ha":659,"x_min":33,"x_max":675,"o":"m 628 471 q 509 500 583 500 q 375 444 430 500 q 321 304 321 387 q 436 195 321 195 q 509 204 469 195 q 581 232 549 214 l 541 35 q 434 -4 492 9 q 322 -17 376 -17 q 110 59 187 -17 q 33 269 33 136 q 92 493 33 391 q 255 653 151 595 q 490 711 359 711 q 675 675 602 711 l 628 471 z "}}}
